SplineFontDB: 3.2
FontName: XBFDECTerminal18
FullName: XBF DEC Terminal 18
FamilyName: XBF DEC Terminal 18
Weight: Book
Copyright: Copyright (c) 1991 Digital Equipment Corporation. All Rights Reserved.
UComments: "2022-3-11: Created with FontForge (http://fontforge.org)"
Version: 001.000
ItalicAngle: 0
UnderlinePosition: -100
UnderlineWidth: 50
Ascent: 750
Descent: 250
InvalidEm: 0
LayerCount: 2
Layer: 0 0 "Back" 1
Layer: 1 0 "Fore" 0
XUID: [1021 709 503293988 13908009]
StyleMap: 0x0040
FSType: 0
OS2Version: 0
OS2_WeightWidthSlopeOnly: 0
OS2_UseTypoMetrics: 1
CreationTime: 1646981224
ModificationTime: 1646981224
PfmFamily: 48
TTFWeight: 400
TTFWidth: 5
LineGap: 0
VLineGap: 90
Panose: 2 0 6 9 0 0 0 0 0 0
OS2TypoAscent: 750
OS2TypoAOffset: 0
OS2TypoDescent: -250
OS2TypoDOffset: 0
OS2TypoLinegap: 0
OS2WinAscent: 750
OS2WinAOffset: 0
OS2WinDescent: 250
OS2WinDOffset: 0
HheadAscent: 750
HheadAOffset: 0
HheadDescent: -250
HheadDOffset: 0
OS2SubXSize: 650
OS2SubYSize: 700
OS2SubXOff: 0
OS2SubYOff: 140
OS2SupXSize: 650
OS2SupYSize: 700
OS2SupXOff: 0
OS2SupYOff: 480
OS2StrikeYSize: 49
OS2StrikeYPos: 258
OS2Vendor: 'PfEd'
MacStyle: 0
DEI: 91125
Encoding: UnicodeBmp
UnicodeInterp: none
NameList: AGL For New Fonts
DisplaySize: 18
AntiAlias: 1
FitToEm: 0
BeginChars: 65536 202

StartChar: exclam
Encoding: 33 33 1
Width: 611
Flags: HW
LayerCount: 2
Back
Fore
SplineSet
278 556 m 1
 278 611 l 1
 389 611 l 1
 389 556 l 1
 278 556 l 1
278 500 m 1
 278 556 l 1
 389 556 l 1
 389 500 l 1
 278 500 l 1
278 444 m 1
 278 500 l 1
 389 500 l 1
 389 444 l 1
 278 444 l 1
278 389 m 1
 278 444 l 1
 389 444 l 1
 389 389 l 1
 278 389 l 1
278 333 m 1
 278 389 l 1
 389 389 l 1
 389 333 l 1
 278 333 l 1
278 278 m 1
 278 333 l 1
 389 333 l 1
 389 278 l 1
 278 278 l 1
278 222 m 1
 278 278 l 1
 389 278 l 1
 389 222 l 1
 278 222 l 1
278 111 m 1
 278 167 l 1
 389 167 l 1
 389 111 l 1
 278 111 l 1
222 56 m 1
 222 111 l 1
 444 111 l 1
 444 56 l 1
 222 56 l 1
278 0 m 1
 278 56 l 1
 389 56 l 1
 389 0 l 1
 278 0 l 1
EndSplineSet
EndChar

StartChar: quotedbl
Encoding: 34 34 2
Width: 611
Flags: HW
LayerCount: 2
Back
Fore
SplineSet
167 667 m 1
 167 722 l 1
 278 722 l 1
 278 667 l 1
 167 667 l 1
389 667 m 1
 389 722 l 1
 500 722 l 1
 500 667 l 1
 389 667 l 1
167 611 m 1
 167 667 l 1
 278 667 l 1
 278 611 l 1
 167 611 l 1
389 611 m 1
 389 667 l 1
 500 667 l 1
 500 611 l 1
 389 611 l 1
167 556 m 1
 167 611 l 1
 278 611 l 1
 278 556 l 1
 167 556 l 1
389 556 m 1
 389 611 l 1
 500 611 l 1
 500 556 l 1
 389 556 l 1
167 500 m 1
 167 556 l 1
 278 556 l 1
 278 500 l 1
 167 500 l 1
389 500 m 1
 389 556 l 1
 500 556 l 1
 500 500 l 1
 389 500 l 1
167 444 m 1
 167 500 l 1
 278 500 l 1
 278 444 l 1
 167 444 l 1
389 444 m 1
 389 500 l 1
 500 500 l 1
 500 444 l 1
 389 444 l 1
EndSplineSet
EndChar

StartChar: numbersign
Encoding: 35 35 3
Width: 611
Flags: HW
LayerCount: 2
Back
Fore
SplineSet
167 556 m 1
 167 611 l 1
 278 611 l 1
 278 556 l 1
 167 556 l 1
389 556 m 1
 389 611 l 1
 500 611 l 1
 500 556 l 1
 389 556 l 1
167 500 m 1
 167 556 l 1
 278 556 l 1
 278 500 l 1
 167 500 l 1
389 500 m 1
 389 556 l 1
 500 556 l 1
 500 500 l 1
 389 500 l 1
167 444 m 1
 167 500 l 1
 278 500 l 1
 278 444 l 1
 167 444 l 1
389 444 m 1
 389 500 l 1
 500 500 l 1
 500 444 l 1
 389 444 l 1
167 389 m 1
 167 444 l 1
 278 444 l 1
 278 389 l 1
 167 389 l 1
389 389 m 1
 389 444 l 1
 500 444 l 1
 500 389 l 1
 389 389 l 1
167 333 m 1
 167 389 l 1
 278 389 l 1
 278 333 l 1
 167 333 l 1
389 333 m 1
 389 389 l 1
 500 389 l 1
 500 333 l 1
 389 333 l 1
56 278 m 1
 56 333 l 1
 611 333 l 1
 611 278 l 1
 56 278 l 1
167 222 m 1
 167 278 l 1
 278 278 l 1
 278 222 l 1
 167 222 l 1
389 222 m 1
 389 278 l 1
 500 278 l 1
 500 222 l 1
 389 222 l 1
167 167 m 1
 167 222 l 1
 278 222 l 1
 278 167 l 1
 167 167 l 1
389 167 m 1
 389 222 l 1
 500 222 l 1
 500 167 l 1
 389 167 l 1
56 111 m 1
 56 167 l 1
 611 167 l 1
 611 111 l 1
 56 111 l 1
167 56 m 1
 167 111 l 1
 278 111 l 1
 278 56 l 1
 167 56 l 1
389 56 m 1
 389 111 l 1
 500 111 l 1
 500 56 l 1
 389 56 l 1
167 0 m 1
 167 56 l 1
 278 56 l 1
 278 0 l 1
 167 0 l 1
389 0 m 1
 389 56 l 1
 500 56 l 1
 500 0 l 1
 389 0 l 1
167 -56 m 1
 167 0 l 1
 278 0 l 1
 278 -56 l 1
 167 -56 l 1
389 -56 m 1
 389 0 l 1
 500 0 l 1
 500 -56 l 1
 389 -56 l 1
167 -111 m 1
 167 -56 l 1
 278 -56 l 1
 278 -111 l 1
 167 -111 l 1
389 -111 m 1
 389 -56 l 1
 500 -56 l 1
 500 -111 l 1
 389 -111 l 1
167 -167 m 1
 167 -111 l 1
 278 -111 l 1
 278 -167 l 1
 167 -167 l 1
389 -167 m 1
 389 -111 l 1
 500 -111 l 1
 500 -167 l 1
 389 -167 l 1
EndSplineSet
EndChar

StartChar: dollar
Encoding: 36 36 4
Width: 611
Flags: HW
LayerCount: 2
Back
Fore
SplineSet
278 667 m 1
 278 722 l 1
 333 722 l 1
 333 667 l 1
 278 667 l 1
278 611 m 1
 278 667 l 1
 333 667 l 1
 333 611 l 1
 278 611 l 1
167 556 m 1
 167 611 l 1
 500 611 l 1
 500 556 l 1
 167 556 l 1
111 500 m 1
 111 556 l 1
 278 556 l 1
 278 500 l 1
 111 500 l 1
389 500 m 1
 389 556 l 1
 500 556 l 1
 500 500 l 1
 389 500 l 1
111 444 m 1
 111 500 l 1
 222 500 l 1
 222 444 l 1
 111 444 l 1
389 444 m 1
 389 500 l 1
 500 500 l 1
 500 444 l 1
 389 444 l 1
111 389 m 1
 111 444 l 1
 222 444 l 1
 222 389 l 1
 111 389 l 1
111 333 m 1
 111 389 l 1
 278 389 l 1
 278 333 l 1
 111 333 l 1
167 278 m 1
 167 333 l 1
 444 333 l 1
 444 278 l 1
 167 278 l 1
333 222 m 1
 333 278 l 1
 500 278 l 1
 500 222 l 1
 333 222 l 1
389 167 m 1
 389 222 l 1
 500 222 l 1
 500 167 l 1
 389 167 l 1
111 111 m 1
 111 167 l 1
 222 167 l 1
 222 111 l 1
 111 111 l 1
389 111 m 1
 389 167 l 1
 500 167 l 1
 500 111 l 1
 389 111 l 1
111 56 m 1
 111 111 l 1
 222 111 l 1
 222 56 l 1
 111 56 l 1
333 56 m 1
 333 111 l 1
 500 111 l 1
 500 56 l 1
 333 56 l 1
111 0 m 1
 111 56 l 1
 444 56 l 1
 444 0 l 1
 111 0 l 1
278 -56 m 1
 278 0 l 1
 333 0 l 1
 333 -56 l 1
 278 -56 l 1
278 -111 m 1
 278 -56 l 1
 333 -56 l 1
 333 -111 l 1
 278 -111 l 1
278 -167 m 1
 278 -111 l 1
 333 -111 l 1
 333 -167 l 1
 278 -167 l 1
EndSplineSet
EndChar

StartChar: percent
Encoding: 37 37 5
Width: 611
Flags: HW
LayerCount: 2
Back
Fore
SplineSet
111 556 m 1
 111 611 l 1
 278 611 l 1
 278 556 l 1
 111 556 l 1
56 500 m 1
 56 556 l 1
 167 556 l 1
 167 500 l 1
 56 500 l 1
222 500 m 1
 222 556 l 1
 333 556 l 1
 333 500 l 1
 222 500 l 1
56 444 m 1
 56 500 l 1
 111 500 l 1
 111 444 l 1
 56 444 l 1
278 444 m 1
 278 500 l 1
 333 500 l 1
 333 444 l 1
 278 444 l 1
56 389 m 1
 56 444 l 1
 167 444 l 1
 167 389 l 1
 56 389 l 1
222 389 m 1
 222 444 l 1
 333 444 l 1
 333 389 l 1
 222 389 l 1
111 333 m 1
 111 389 l 1
 278 389 l 1
 278 333 l 1
 111 333 l 1
389 333 m 1
 389 389 l 1
 500 389 l 1
 500 333 l 1
 389 333 l 1
222 278 m 1
 222 333 l 1
 389 333 l 1
 389 278 l 1
 222 278 l 1
111 222 m 1
 111 278 l 1
 222 278 l 1
 222 222 l 1
 111 222 l 1
333 222 m 1
 333 278 l 1
 500 278 l 1
 500 222 l 1
 333 222 l 1
278 167 m 1
 278 222 l 1
 389 222 l 1
 389 167 l 1
 278 167 l 1
444 167 m 1
 444 222 l 1
 556 222 l 1
 556 167 l 1
 444 167 l 1
278 111 m 1
 278 167 l 1
 333 167 l 1
 333 111 l 1
 278 111 l 1
500 111 m 1
 500 167 l 1
 556 167 l 1
 556 111 l 1
 500 111 l 1
278 56 m 1
 278 111 l 1
 389 111 l 1
 389 56 l 1
 278 56 l 1
444 56 m 1
 444 111 l 1
 556 111 l 1
 556 56 l 1
 444 56 l 1
333 0 m 1
 333 56 l 1
 500 56 l 1
 500 0 l 1
 333 0 l 1
EndSplineSet
EndChar

StartChar: ampersand
Encoding: 38 38 6
Width: 611
Flags: HW
LayerCount: 2
Back
Fore
SplineSet
222 556 m 1
 222 611 l 1
 333 611 l 1
 333 556 l 1
 222 556 l 1
389 556 m 1
 389 611 l 1
 444 611 l 1
 444 556 l 1
 389 556 l 1
167 500 m 1
 167 556 l 1
 278 556 l 1
 278 500 l 1
 167 500 l 1
333 500 m 1
 333 556 l 1
 444 556 l 1
 444 500 l 1
 333 500 l 1
167 444 m 1
 167 500 l 1
 222 500 l 1
 222 444 l 1
 167 444 l 1
167 389 m 1
 167 444 l 1
 278 444 l 1
 278 389 l 1
 167 389 l 1
222 333 m 1
 222 389 l 1
 278 389 l 1
 278 333 l 1
 222 333 l 1
167 278 m 1
 167 333 l 1
 333 333 l 1
 333 278 l 1
 167 278 l 1
389 278 m 1
 389 333 l 1
 500 333 l 1
 500 278 l 1
 389 278 l 1
111 222 m 1
 111 278 l 1
 222 278 l 1
 222 222 l 1
 111 222 l 1
278 222 m 1
 278 278 l 1
 333 278 l 1
 333 222 l 1
 278 222 l 1
389 222 m 1
 389 278 l 1
 444 278 l 1
 444 222 l 1
 389 222 l 1
111 167 m 1
 111 222 l 1
 222 222 l 1
 222 167 l 1
 111 167 l 1
278 167 m 1
 278 222 l 1
 444 222 l 1
 444 167 l 1
 278 167 l 1
111 111 m 1
 111 167 l 1
 222 167 l 1
 222 111 l 1
 111 111 l 1
333 111 m 1
 333 167 l 1
 444 167 l 1
 444 111 l 1
 333 111 l 1
111 56 m 1
 111 111 l 1
 222 111 l 1
 222 56 l 1
 111 56 l 1
333 56 m 1
 333 111 l 1
 444 111 l 1
 444 56 l 1
 333 56 l 1
167 0 m 1
 167 56 l 1
 333 56 l 1
 333 0 l 1
 167 0 l 1
389 0 m 1
 389 56 l 1
 500 56 l 1
 500 0 l 1
 389 0 l 1
EndSplineSet
EndChar

StartChar: parenleft
Encoding: 40 40 8
Width: 611
Flags: HW
LayerCount: 2
Back
Fore
SplineSet
389 611 m 1
 389 667 l 1
 444 667 l 1
 444 611 l 1
 389 611 l 1
333 556 m 1
 333 611 l 1
 389 611 l 1
 389 556 l 1
 333 556 l 1
278 500 m 1
 278 556 l 1
 389 556 l 1
 389 500 l 1
 278 500 l 1
278 444 m 1
 278 500 l 1
 333 500 l 1
 333 444 l 1
 278 444 l 1
222 389 m 1
 222 444 l 1
 333 444 l 1
 333 389 l 1
 222 389 l 1
222 333 m 1
 222 389 l 1
 333 389 l 1
 333 333 l 1
 222 333 l 1
222 278 m 1
 222 333 l 1
 333 333 l 1
 333 278 l 1
 222 278 l 1
222 222 m 1
 222 278 l 1
 333 278 l 1
 333 222 l 1
 222 222 l 1
222 167 m 1
 222 222 l 1
 333 222 l 1
 333 167 l 1
 222 167 l 1
222 111 m 1
 222 167 l 1
 333 167 l 1
 333 111 l 1
 222 111 l 1
222 56 m 1
 222 111 l 1
 333 111 l 1
 333 56 l 1
 222 56 l 1
278 0 m 1
 278 56 l 1
 333 56 l 1
 333 0 l 1
 278 0 l 1
278 -56 m 1
 278 0 l 1
 389 0 l 1
 389 -56 l 1
 278 -56 l 1
333 -111 m 1
 333 -56 l 1
 389 -56 l 1
 389 -111 l 1
 333 -111 l 1
389 -167 m 1
 389 -111 l 1
 444 -111 l 1
 444 -167 l 1
 389 -167 l 1
EndSplineSet
EndChar

StartChar: parenright
Encoding: 41 41 9
Width: 611
Flags: HW
LayerCount: 2
Back
Fore
SplineSet
222 611 m 1
 222 667 l 1
 278 667 l 1
 278 611 l 1
 222 611 l 1
278 556 m 1
 278 611 l 1
 333 611 l 1
 333 556 l 1
 278 556 l 1
278 500 m 1
 278 556 l 1
 389 556 l 1
 389 500 l 1
 278 500 l 1
333 444 m 1
 333 500 l 1
 389 500 l 1
 389 444 l 1
 333 444 l 1
333 389 m 1
 333 444 l 1
 444 444 l 1
 444 389 l 1
 333 389 l 1
333 333 m 1
 333 389 l 1
 444 389 l 1
 444 333 l 1
 333 333 l 1
333 278 m 1
 333 333 l 1
 444 333 l 1
 444 278 l 1
 333 278 l 1
333 222 m 1
 333 278 l 1
 444 278 l 1
 444 222 l 1
 333 222 l 1
333 167 m 1
 333 222 l 1
 444 222 l 1
 444 167 l 1
 333 167 l 1
333 111 m 1
 333 167 l 1
 444 167 l 1
 444 111 l 1
 333 111 l 1
333 56 m 1
 333 111 l 1
 444 111 l 1
 444 56 l 1
 333 56 l 1
333 0 m 1
 333 56 l 1
 389 56 l 1
 389 0 l 1
 333 0 l 1
278 -56 m 1
 278 0 l 1
 389 0 l 1
 389 -56 l 1
 278 -56 l 1
278 -111 m 1
 278 -56 l 1
 333 -56 l 1
 333 -111 l 1
 278 -111 l 1
222 -167 m 1
 222 -111 l 1
 278 -111 l 1
 278 -167 l 1
 222 -167 l 1
EndSplineSet
EndChar

StartChar: asterisk
Encoding: 42 42 10
Width: 611
Flags: HW
LayerCount: 2
Back
Fore
SplineSet
278 444 m 1
 278 500 l 1
 389 500 l 1
 389 444 l 1
 278 444 l 1
278 389 m 1
 278 444 l 1
 389 444 l 1
 389 389 l 1
 278 389 l 1
111 333 m 1
 111 389 l 1
 222 389 l 1
 222 333 l 1
 111 333 l 1
278 333 m 1
 278 389 l 1
 389 389 l 1
 389 333 l 1
 278 333 l 1
444 333 m 1
 444 389 l 1
 556 389 l 1
 556 333 l 1
 444 333 l 1
167 278 m 1
 167 333 l 1
 500 333 l 1
 500 278 l 1
 167 278 l 1
222 222 m 1
 222 278 l 1
 444 278 l 1
 444 222 l 1
 222 222 l 1
222 167 m 1
 222 222 l 1
 444 222 l 1
 444 167 l 1
 222 167 l 1
167 111 m 1
 167 167 l 1
 278 167 l 1
 278 111 l 1
 167 111 l 1
389 111 m 1
 389 167 l 1
 500 167 l 1
 500 111 l 1
 389 111 l 1
167 56 m 1
 167 111 l 1
 278 111 l 1
 278 56 l 1
 167 56 l 1
389 56 m 1
 389 111 l 1
 500 111 l 1
 500 56 l 1
 389 56 l 1
EndSplineSet
EndChar

StartChar: plus
Encoding: 43 43 11
Width: 611
Flags: HW
LayerCount: 2
Back
Fore
SplineSet
278 500 m 1
 278 556 l 1
 389 556 l 1
 389 500 l 1
 278 500 l 1
278 444 m 1
 278 500 l 1
 389 500 l 1
 389 444 l 1
 278 444 l 1
278 389 m 1
 278 444 l 1
 389 444 l 1
 389 389 l 1
 278 389 l 1
278 333 m 1
 278 389 l 1
 389 389 l 1
 389 333 l 1
 278 333 l 1
111 278 m 1
 111 333 l 1
 556 333 l 1
 556 278 l 1
 111 278 l 1
111 222 m 1
 111 278 l 1
 556 278 l 1
 556 222 l 1
 111 222 l 1
278 167 m 1
 278 222 l 1
 389 222 l 1
 389 167 l 1
 278 167 l 1
278 111 m 1
 278 167 l 1
 389 167 l 1
 389 111 l 1
 278 111 l 1
278 56 m 1
 278 111 l 1
 389 111 l 1
 389 56 l 1
 278 56 l 1
278 0 m 1
 278 56 l 1
 389 56 l 1
 389 0 l 1
 278 0 l 1
EndSplineSet
EndChar

StartChar: comma
Encoding: 44 44 12
Width: 611
Flags: HW
LayerCount: 2
Back
Fore
SplineSet
278 111 m 1
 278 167 l 1
 444 167 l 1
 444 111 l 1
 278 111 l 1
278 56 m 1
 278 111 l 1
 444 111 l 1
 444 56 l 1
 278 56 l 1
278 0 m 1
 278 56 l 1
 389 56 l 1
 389 0 l 1
 278 0 l 1
278 -56 m 1
 278 0 l 1
 389 0 l 1
 389 -56 l 1
 278 -56 l 1
222 -111 m 1
 222 -56 l 1
 333 -56 l 1
 333 -111 l 1
 222 -111 l 1
278 -167 m 1
 278 -111 l 1
 333 -111 l 1
 333 -167 l 1
 278 -167 l 1
EndSplineSet
EndChar

StartChar: period
Encoding: 46 46 14
Width: 611
Flags: HW
LayerCount: 2
Back
Fore
SplineSet
278 111 m 1
 278 167 l 1
 389 167 l 1
 389 111 l 1
 278 111 l 1
222 56 m 1
 222 111 l 1
 444 111 l 1
 444 56 l 1
 222 56 l 1
278 0 m 1
 278 56 l 1
 389 56 l 1
 389 0 l 1
 278 0 l 1
EndSplineSet
EndChar

StartChar: slash
Encoding: 47 47 15
Width: 611
Flags: HW
LayerCount: 2
Back
Fore
SplineSet
444 611 m 1
 444 667 l 1
 556 667 l 1
 556 611 l 1
 444 611 l 1
444 556 m 1
 444 611 l 1
 500 611 l 1
 500 556 l 1
 444 556 l 1
389 500 m 1
 389 556 l 1
 500 556 l 1
 500 500 l 1
 389 500 l 1
389 444 m 1
 389 500 l 1
 444 500 l 1
 444 444 l 1
 389 444 l 1
333 389 m 1
 333 444 l 1
 444 444 l 1
 444 389 l 1
 333 389 l 1
333 333 m 1
 333 389 l 1
 389 389 l 1
 389 333 l 1
 333 333 l 1
278 278 m 1
 278 333 l 1
 389 333 l 1
 389 278 l 1
 278 278 l 1
278 222 m 1
 278 278 l 1
 333 278 l 1
 333 222 l 1
 278 222 l 1
222 167 m 1
 222 222 l 1
 333 222 l 1
 333 167 l 1
 222 167 l 1
222 111 m 1
 222 167 l 1
 278 167 l 1
 278 111 l 1
 222 111 l 1
167 56 m 1
 167 111 l 1
 278 111 l 1
 278 56 l 1
 167 56 l 1
167 0 m 1
 167 56 l 1
 222 56 l 1
 222 0 l 1
 167 0 l 1
111 -56 m 1
 111 0 l 1
 222 0 l 1
 222 -56 l 1
 111 -56 l 1
EndSplineSet
EndChar

StartChar: zero
Encoding: 48 48 16
Width: 611
Flags: HW
LayerCount: 2
Back
Fore
SplineSet
222 556 m 1
 222 611 l 1
 389 611 l 1
 389 556 l 1
 222 556 l 1
167 500 m 1
 167 556 l 1
 278 556 l 1
 278 500 l 1
 167 500 l 1
333 500 m 1
 333 556 l 1
 444 556 l 1
 444 500 l 1
 333 500 l 1
167 444 m 1
 167 500 l 1
 222 500 l 1
 222 444 l 1
 167 444 l 1
389 444 m 1
 389 500 l 1
 444 500 l 1
 444 444 l 1
 389 444 l 1
111 389 m 1
 111 444 l 1
 222 444 l 1
 222 389 l 1
 111 389 l 1
389 389 m 1
 389 444 l 1
 500 444 l 1
 500 389 l 1
 389 389 l 1
111 333 m 1
 111 389 l 1
 222 389 l 1
 222 333 l 1
 111 333 l 1
389 333 m 1
 389 389 l 1
 500 389 l 1
 500 333 l 1
 389 333 l 1
111 278 m 1
 111 333 l 1
 222 333 l 1
 222 278 l 1
 111 278 l 1
389 278 m 1
 389 333 l 1
 500 333 l 1
 500 278 l 1
 389 278 l 1
111 222 m 1
 111 278 l 1
 222 278 l 1
 222 222 l 1
 111 222 l 1
389 222 m 1
 389 278 l 1
 500 278 l 1
 500 222 l 1
 389 222 l 1
111 167 m 1
 111 222 l 1
 222 222 l 1
 222 167 l 1
 111 167 l 1
389 167 m 1
 389 222 l 1
 500 222 l 1
 500 167 l 1
 389 167 l 1
167 111 m 1
 167 167 l 1
 222 167 l 1
 222 111 l 1
 167 111 l 1
389 111 m 1
 389 167 l 1
 444 167 l 1
 444 111 l 1
 389 111 l 1
167 56 m 1
 167 111 l 1
 278 111 l 1
 278 56 l 1
 167 56 l 1
333 56 m 1
 333 111 l 1
 444 111 l 1
 444 56 l 1
 333 56 l 1
222 0 m 1
 222 56 l 1
 389 56 l 1
 389 0 l 1
 222 0 l 1
EndSplineSet
EndChar

StartChar: one
Encoding: 49 49 17
Width: 611
Flags: HW
LayerCount: 2
Back
Fore
SplineSet
278 556 m 1
 278 611 l 1
 389 611 l 1
 389 556 l 1
 278 556 l 1
222 500 m 1
 222 556 l 1
 389 556 l 1
 389 500 l 1
 222 500 l 1
167 444 m 1
 167 500 l 1
 222 500 l 1
 222 444 l 1
 167 444 l 1
278 444 m 1
 278 500 l 1
 389 500 l 1
 389 444 l 1
 278 444 l 1
278 389 m 1
 278 444 l 1
 389 444 l 1
 389 389 l 1
 278 389 l 1
278 333 m 1
 278 389 l 1
 389 389 l 1
 389 333 l 1
 278 333 l 1
278 278 m 1
 278 333 l 1
 389 333 l 1
 389 278 l 1
 278 278 l 1
278 222 m 1
 278 278 l 1
 389 278 l 1
 389 222 l 1
 278 222 l 1
278 167 m 1
 278 222 l 1
 389 222 l 1
 389 167 l 1
 278 167 l 1
278 111 m 1
 278 167 l 1
 389 167 l 1
 389 111 l 1
 278 111 l 1
278 56 m 1
 278 111 l 1
 389 111 l 1
 389 56 l 1
 278 56 l 1
167 0 m 1
 167 56 l 1
 500 56 l 1
 500 0 l 1
 167 0 l 1
EndSplineSet
EndChar

StartChar: two
Encoding: 50 50 18
Width: 611
Flags: HW
LayerCount: 2
Back
Fore
SplineSet
167 556 m 1
 167 611 l 1
 444 611 l 1
 444 556 l 1
 167 556 l 1
111 500 m 1
 111 556 l 1
 222 556 l 1
 222 500 l 1
 111 500 l 1
333 500 m 1
 333 556 l 1
 500 556 l 1
 500 500 l 1
 333 500 l 1
111 444 m 1
 111 500 l 1
 222 500 l 1
 222 444 l 1
 111 444 l 1
389 444 m 1
 389 500 l 1
 500 500 l 1
 500 444 l 1
 389 444 l 1
389 389 m 1
 389 444 l 1
 500 444 l 1
 500 389 l 1
 389 389 l 1
389 333 m 1
 389 389 l 1
 500 389 l 1
 500 333 l 1
 389 333 l 1
333 278 m 1
 333 333 l 1
 444 333 l 1
 444 278 l 1
 333 278 l 1
278 222 m 1
 278 278 l 1
 389 278 l 1
 389 222 l 1
 278 222 l 1
222 167 m 1
 222 222 l 1
 333 222 l 1
 333 167 l 1
 222 167 l 1
167 111 m 1
 167 167 l 1
 278 167 l 1
 278 111 l 1
 167 111 l 1
111 56 m 1
 111 111 l 1
 222 111 l 1
 222 56 l 1
 111 56 l 1
389 56 m 1
 389 111 l 1
 500 111 l 1
 500 56 l 1
 389 56 l 1
111 0 m 1
 111 56 l 1
 500 56 l 1
 500 0 l 1
 111 0 l 1
EndSplineSet
EndChar

StartChar: three
Encoding: 51 51 19
Width: 611
Flags: HW
LayerCount: 2
Back
Fore
SplineSet
167 556 m 1
 167 611 l 1
 444 611 l 1
 444 556 l 1
 167 556 l 1
111 500 m 1
 111 556 l 1
 222 556 l 1
 222 500 l 1
 111 500 l 1
333 500 m 1
 333 556 l 1
 500 556 l 1
 500 500 l 1
 333 500 l 1
389 444 m 1
 389 500 l 1
 500 500 l 1
 500 444 l 1
 389 444 l 1
389 389 m 1
 389 444 l 1
 500 444 l 1
 500 389 l 1
 389 389 l 1
333 333 m 1
 333 389 l 1
 444 389 l 1
 444 333 l 1
 333 333 l 1
222 278 m 1
 222 333 l 1
 389 333 l 1
 389 278 l 1
 222 278 l 1
333 222 m 1
 333 278 l 1
 444 278 l 1
 444 222 l 1
 333 222 l 1
389 167 m 1
 389 222 l 1
 500 222 l 1
 500 167 l 1
 389 167 l 1
389 111 m 1
 389 167 l 1
 500 167 l 1
 500 111 l 1
 389 111 l 1
111 56 m 1
 111 111 l 1
 222 111 l 1
 222 56 l 1
 111 56 l 1
389 56 m 1
 389 111 l 1
 500 111 l 1
 500 56 l 1
 389 56 l 1
167 0 m 1
 167 56 l 1
 444 56 l 1
 444 0 l 1
 167 0 l 1
EndSplineSet
EndChar

StartChar: four
Encoding: 52 52 20
Width: 611
Flags: HW
LayerCount: 2
Back
Fore
SplineSet
333 556 m 1
 333 611 l 1
 444 611 l 1
 444 556 l 1
 333 556 l 1
278 500 m 1
 278 556 l 1
 444 556 l 1
 444 500 l 1
 278 500 l 1
278 444 m 1
 278 500 l 1
 444 500 l 1
 444 444 l 1
 278 444 l 1
222 389 m 1
 222 444 l 1
 278 444 l 1
 278 389 l 1
 222 389 l 1
333 389 m 1
 333 444 l 1
 444 444 l 1
 444 389 l 1
 333 389 l 1
167 333 m 1
 167 389 l 1
 278 389 l 1
 278 333 l 1
 167 333 l 1
333 333 m 1
 333 389 l 1
 444 389 l 1
 444 333 l 1
 333 333 l 1
167 278 m 1
 167 333 l 1
 222 333 l 1
 222 278 l 1
 167 278 l 1
333 278 m 1
 333 333 l 1
 444 333 l 1
 444 278 l 1
 333 278 l 1
111 222 m 1
 111 278 l 1
 222 278 l 1
 222 222 l 1
 111 222 l 1
333 222 m 1
 333 278 l 1
 444 278 l 1
 444 222 l 1
 333 222 l 1
111 167 m 1
 111 222 l 1
 500 222 l 1
 500 167 l 1
 111 167 l 1
333 111 m 1
 333 167 l 1
 444 167 l 1
 444 111 l 1
 333 111 l 1
333 56 m 1
 333 111 l 1
 444 111 l 1
 444 56 l 1
 333 56 l 1
278 0 m 1
 278 56 l 1
 500 56 l 1
 500 0 l 1
 278 0 l 1
EndSplineSet
EndChar

StartChar: five
Encoding: 53 53 21
Width: 611
Flags: HW
LayerCount: 2
Back
Fore
SplineSet
111 556 m 1
 111 611 l 1
 444 611 l 1
 444 556 l 1
 111 556 l 1
111 500 m 1
 111 556 l 1
 222 556 l 1
 222 500 l 1
 111 500 l 1
111 444 m 1
 111 500 l 1
 222 500 l 1
 222 444 l 1
 111 444 l 1
111 389 m 1
 111 444 l 1
 222 444 l 1
 222 389 l 1
 111 389 l 1
111 333 m 1
 111 389 l 1
 389 389 l 1
 389 333 l 1
 111 333 l 1
111 278 m 1
 111 333 l 1
 222 333 l 1
 222 278 l 1
 111 278 l 1
333 278 m 1
 333 333 l 1
 444 333 l 1
 444 278 l 1
 333 278 l 1
389 222 m 1
 389 278 l 1
 500 278 l 1
 500 222 l 1
 389 222 l 1
389 167 m 1
 389 222 l 1
 500 222 l 1
 500 167 l 1
 389 167 l 1
389 111 m 1
 389 167 l 1
 500 167 l 1
 500 111 l 1
 389 111 l 1
111 56 m 1
 111 111 l 1
 222 111 l 1
 222 56 l 1
 111 56 l 1
333 56 m 1
 333 111 l 1
 444 111 l 1
 444 56 l 1
 333 56 l 1
167 0 m 1
 167 56 l 1
 389 56 l 1
 389 0 l 1
 167 0 l 1
EndSplineSet
EndChar

StartChar: six
Encoding: 54 54 22
Width: 611
Flags: HW
LayerCount: 2
Back
Fore
SplineSet
278 556 m 1
 278 611 l 1
 444 611 l 1
 444 556 l 1
 278 556 l 1
222 500 m 1
 222 556 l 1
 278 556 l 1
 278 500 l 1
 222 500 l 1
167 444 m 1
 167 500 l 1
 278 500 l 1
 278 444 l 1
 167 444 l 1
167 389 m 1
 167 444 l 1
 222 444 l 1
 222 389 l 1
 167 389 l 1
111 333 m 1
 111 389 l 1
 222 389 l 1
 222 333 l 1
 111 333 l 1
278 333 m 1
 278 389 l 1
 389 389 l 1
 389 333 l 1
 278 333 l 1
111 278 m 1
 111 333 l 1
 278 333 l 1
 278 278 l 1
 111 278 l 1
333 278 m 1
 333 333 l 1
 444 333 l 1
 444 278 l 1
 333 278 l 1
111 222 m 1
 111 278 l 1
 222 278 l 1
 222 222 l 1
 111 222 l 1
389 222 m 1
 389 278 l 1
 500 278 l 1
 500 222 l 1
 389 222 l 1
111 167 m 1
 111 222 l 1
 222 222 l 1
 222 167 l 1
 111 167 l 1
389 167 m 1
 389 222 l 1
 500 222 l 1
 500 167 l 1
 389 167 l 1
111 111 m 1
 111 167 l 1
 222 167 l 1
 222 111 l 1
 111 111 l 1
389 111 m 1
 389 167 l 1
 500 167 l 1
 500 111 l 1
 389 111 l 1
167 56 m 1
 167 111 l 1
 278 111 l 1
 278 56 l 1
 167 56 l 1
333 56 m 1
 333 111 l 1
 444 111 l 1
 444 56 l 1
 333 56 l 1
222 0 m 1
 222 56 l 1
 389 56 l 1
 389 0 l 1
 222 0 l 1
EndSplineSet
EndChar

StartChar: seven
Encoding: 55 55 23
Width: 611
Flags: HW
LayerCount: 2
Back
Fore
SplineSet
111 556 m 1
 111 611 l 1
 500 611 l 1
 500 556 l 1
 111 556 l 1
111 500 m 1
 111 556 l 1
 222 556 l 1
 222 500 l 1
 111 500 l 1
389 500 m 1
 389 556 l 1
 500 556 l 1
 500 500 l 1
 389 500 l 1
389 444 m 1
 389 500 l 1
 500 500 l 1
 500 444 l 1
 389 444 l 1
333 389 m 1
 333 444 l 1
 444 444 l 1
 444 389 l 1
 333 389 l 1
333 333 m 1
 333 389 l 1
 444 389 l 1
 444 333 l 1
 333 333 l 1
333 278 m 1
 333 333 l 1
 389 333 l 1
 389 278 l 1
 333 278 l 1
278 222 m 1
 278 278 l 1
 389 278 l 1
 389 222 l 1
 278 222 l 1
278 167 m 1
 278 222 l 1
 389 222 l 1
 389 167 l 1
 278 167 l 1
278 111 m 1
 278 167 l 1
 333 167 l 1
 333 111 l 1
 278 111 l 1
222 56 m 1
 222 111 l 1
 333 111 l 1
 333 56 l 1
 222 56 l 1
222 0 m 1
 222 56 l 1
 333 56 l 1
 333 0 l 1
 222 0 l 1
EndSplineSet
EndChar

StartChar: eight
Encoding: 56 56 24
Width: 611
Flags: HW
LayerCount: 2
Back
Fore
SplineSet
222 556 m 1
 222 611 l 1
 389 611 l 1
 389 556 l 1
 222 556 l 1
167 500 m 1
 167 556 l 1
 278 556 l 1
 278 500 l 1
 167 500 l 1
333 500 m 1
 333 556 l 1
 444 556 l 1
 444 500 l 1
 333 500 l 1
111 444 m 1
 111 500 l 1
 222 500 l 1
 222 444 l 1
 111 444 l 1
389 444 m 1
 389 500 l 1
 500 500 l 1
 500 444 l 1
 389 444 l 1
111 389 m 1
 111 444 l 1
 222 444 l 1
 222 389 l 1
 111 389 l 1
389 389 m 1
 389 444 l 1
 500 444 l 1
 500 389 l 1
 389 389 l 1
167 333 m 1
 167 389 l 1
 278 389 l 1
 278 333 l 1
 167 333 l 1
333 333 m 1
 333 389 l 1
 444 389 l 1
 444 333 l 1
 333 333 l 1
222 278 m 1
 222 333 l 1
 389 333 l 1
 389 278 l 1
 222 278 l 1
167 222 m 1
 167 278 l 1
 278 278 l 1
 278 222 l 1
 167 222 l 1
333 222 m 1
 333 278 l 1
 444 278 l 1
 444 222 l 1
 333 222 l 1
111 167 m 1
 111 222 l 1
 222 222 l 1
 222 167 l 1
 111 167 l 1
389 167 m 1
 389 222 l 1
 500 222 l 1
 500 167 l 1
 389 167 l 1
111 111 m 1
 111 167 l 1
 222 167 l 1
 222 111 l 1
 111 111 l 1
389 111 m 1
 389 167 l 1
 500 167 l 1
 500 111 l 1
 389 111 l 1
167 56 m 1
 167 111 l 1
 278 111 l 1
 278 56 l 1
 167 56 l 1
333 56 m 1
 333 111 l 1
 444 111 l 1
 444 56 l 1
 333 56 l 1
222 0 m 1
 222 56 l 1
 389 56 l 1
 389 0 l 1
 222 0 l 1
EndSplineSet
EndChar

StartChar: nine
Encoding: 57 57 25
Width: 611
Flags: HW
LayerCount: 2
Back
Fore
SplineSet
222 556 m 1
 222 611 l 1
 389 611 l 1
 389 556 l 1
 222 556 l 1
167 500 m 1
 167 556 l 1
 278 556 l 1
 278 500 l 1
 167 500 l 1
333 500 m 1
 333 556 l 1
 444 556 l 1
 444 500 l 1
 333 500 l 1
111 444 m 1
 111 500 l 1
 222 500 l 1
 222 444 l 1
 111 444 l 1
389 444 m 1
 389 500 l 1
 500 500 l 1
 500 444 l 1
 389 444 l 1
111 389 m 1
 111 444 l 1
 222 444 l 1
 222 389 l 1
 111 389 l 1
389 389 m 1
 389 444 l 1
 500 444 l 1
 500 389 l 1
 389 389 l 1
111 333 m 1
 111 389 l 1
 222 389 l 1
 222 333 l 1
 111 333 l 1
389 333 m 1
 389 389 l 1
 500 389 l 1
 500 333 l 1
 389 333 l 1
167 278 m 1
 167 333 l 1
 278 333 l 1
 278 278 l 1
 167 278 l 1
333 278 m 1
 333 333 l 1
 500 333 l 1
 500 278 l 1
 333 278 l 1
222 222 m 1
 222 278 l 1
 333 278 l 1
 333 222 l 1
 222 222 l 1
389 222 m 1
 389 278 l 1
 500 278 l 1
 500 222 l 1
 389 222 l 1
389 167 m 1
 389 222 l 1
 444 222 l 1
 444 167 l 1
 389 167 l 1
333 111 m 1
 333 167 l 1
 444 167 l 1
 444 111 l 1
 333 111 l 1
278 56 m 1
 278 111 l 1
 389 111 l 1
 389 56 l 1
 278 56 l 1
167 0 m 1
 167 56 l 1
 333 56 l 1
 333 0 l 1
 167 0 l 1
EndSplineSet
EndChar

StartChar: colon
Encoding: 58 58 26
Width: 611
Flags: HW
LayerCount: 2
Back
Fore
SplineSet
278 444 m 1
 278 500 l 1
 389 500 l 1
 389 444 l 1
 278 444 l 1
222 389 m 1
 222 444 l 1
 444 444 l 1
 444 389 l 1
 222 389 l 1
278 333 m 1
 278 389 l 1
 389 389 l 1
 389 333 l 1
 278 333 l 1
278 111 m 1
 278 167 l 1
 389 167 l 1
 389 111 l 1
 278 111 l 1
222 56 m 1
 222 111 l 1
 444 111 l 1
 444 56 l 1
 222 56 l 1
278 0 m 1
 278 56 l 1
 389 56 l 1
 389 0 l 1
 278 0 l 1
EndSplineSet
EndChar

StartChar: semicolon
Encoding: 59 59 27
Width: 611
Flags: HW
LayerCount: 2
Back
Fore
SplineSet
278 444 m 1
 278 500 l 1
 389 500 l 1
 389 444 l 1
 278 444 l 1
222 389 m 1
 222 444 l 1
 444 444 l 1
 444 389 l 1
 222 389 l 1
278 333 m 1
 278 389 l 1
 389 389 l 1
 389 333 l 1
 278 333 l 1
222 111 m 1
 222 167 l 1
 389 167 l 1
 389 111 l 1
 222 111 l 1
222 56 m 1
 222 111 l 1
 389 111 l 1
 389 56 l 1
 222 56 l 1
222 0 m 1
 222 56 l 1
 333 56 l 1
 333 0 l 1
 222 0 l 1
222 -56 m 1
 222 0 l 1
 333 0 l 1
 333 -56 l 1
 222 -56 l 1
167 -111 m 1
 167 -56 l 1
 278 -56 l 1
 278 -111 l 1
 167 -111 l 1
222 -167 m 1
 222 -111 l 1
 278 -111 l 1
 278 -167 l 1
 222 -167 l 1
EndSplineSet
EndChar

StartChar: less
Encoding: 60 60 28
Width: 611
Flags: HW
LayerCount: 2
Back
Fore
SplineSet
444 500 m 1
 444 556 l 1
 556 556 l 1
 556 500 l 1
 444 500 l 1
333 444 m 1
 333 500 l 1
 556 500 l 1
 556 444 l 1
 333 444 l 1
222 389 m 1
 222 444 l 1
 444 444 l 1
 444 389 l 1
 222 389 l 1
111 333 m 1
 111 389 l 1
 333 389 l 1
 333 333 l 1
 111 333 l 1
56 278 m 1
 56 333 l 1
 222 333 l 1
 222 278 l 1
 56 278 l 1
111 222 m 1
 111 278 l 1
 333 278 l 1
 333 222 l 1
 111 222 l 1
222 167 m 1
 222 222 l 1
 444 222 l 1
 444 167 l 1
 222 167 l 1
333 111 m 1
 333 167 l 1
 556 167 l 1
 556 111 l 1
 333 111 l 1
444 56 m 1
 444 111 l 1
 556 111 l 1
 556 56 l 1
 444 56 l 1
EndSplineSet
EndChar

StartChar: equal
Encoding: 61 61 29
Width: 611
Flags: HW
LayerCount: 2
Back
Fore
SplineSet
111 389 m 1
 111 444 l 1
 556 444 l 1
 556 389 l 1
 111 389 l 1
111 333 m 1
 111 389 l 1
 556 389 l 1
 556 333 l 1
 111 333 l 1
111 167 m 1
 111 222 l 1
 556 222 l 1
 556 167 l 1
 111 167 l 1
111 111 m 1
 111 167 l 1
 556 167 l 1
 556 111 l 1
 111 111 l 1
EndSplineSet
EndChar

StartChar: greater
Encoding: 62 62 30
Width: 611
Flags: HW
LayerCount: 2
Back
Fore
SplineSet
56 500 m 1
 56 556 l 1
 167 556 l 1
 167 500 l 1
 56 500 l 1
56 444 m 1
 56 500 l 1
 278 500 l 1
 278 444 l 1
 56 444 l 1
167 389 m 1
 167 444 l 1
 389 444 l 1
 389 389 l 1
 167 389 l 1
278 333 m 1
 278 389 l 1
 500 389 l 1
 500 333 l 1
 278 333 l 1
389 278 m 1
 389 333 l 1
 556 333 l 1
 556 278 l 1
 389 278 l 1
278 222 m 1
 278 278 l 1
 500 278 l 1
 500 222 l 1
 278 222 l 1
167 167 m 1
 167 222 l 1
 389 222 l 1
 389 167 l 1
 167 167 l 1
56 111 m 1
 56 167 l 1
 278 167 l 1
 278 111 l 1
 56 111 l 1
56 56 m 1
 56 111 l 1
 167 111 l 1
 167 56 l 1
 56 56 l 1
EndSplineSet
EndChar

StartChar: question
Encoding: 63 63 31
Width: 611
Flags: HW
LayerCount: 2
Back
Fore
SplineSet
167 556 m 1
 167 611 l 1
 500 611 l 1
 500 556 l 1
 167 556 l 1
111 500 m 1
 111 556 l 1
 222 556 l 1
 222 500 l 1
 111 500 l 1
444 500 m 1
 444 556 l 1
 556 556 l 1
 556 500 l 1
 444 500 l 1
444 444 m 1
 444 500 l 1
 556 500 l 1
 556 444 l 1
 444 444 l 1
444 389 m 1
 444 444 l 1
 556 444 l 1
 556 389 l 1
 444 389 l 1
333 333 m 1
 333 389 l 1
 500 389 l 1
 500 333 l 1
 333 333 l 1
222 278 m 1
 222 333 l 1
 389 333 l 1
 389 278 l 1
 222 278 l 1
222 222 m 1
 222 278 l 1
 333 278 l 1
 333 222 l 1
 222 222 l 1
222 111 m 1
 222 167 l 1
 333 167 l 1
 333 111 l 1
 222 111 l 1
167 56 m 1
 167 111 l 1
 389 111 l 1
 389 56 l 1
 167 56 l 1
222 0 m 1
 222 56 l 1
 333 56 l 1
 333 0 l 1
 222 0 l 1
EndSplineSet
EndChar

StartChar: at
Encoding: 64 64 32
Width: 611
Flags: HW
LayerCount: 2
Back
Fore
SplineSet
222 611 m 1
 222 667 l 1
 389 667 l 1
 389 611 l 1
 222 611 l 1
111 556 m 1
 111 611 l 1
 222 611 l 1
 222 556 l 1
 111 556 l 1
389 556 m 1
 389 611 l 1
 500 611 l 1
 500 556 l 1
 389 556 l 1
111 500 m 1
 111 556 l 1
 167 556 l 1
 167 500 l 1
 111 500 l 1
444 500 m 1
 444 556 l 1
 500 556 l 1
 500 500 l 1
 444 500 l 1
56 444 m 1
 56 500 l 1
 167 500 l 1
 167 444 l 1
 56 444 l 1
444 444 m 1
 444 500 l 1
 556 500 l 1
 556 444 l 1
 444 444 l 1
56 389 m 1
 56 444 l 1
 167 444 l 1
 167 389 l 1
 56 389 l 1
333 389 m 1
 333 444 l 1
 556 444 l 1
 556 389 l 1
 333 389 l 1
56 333 m 1
 56 389 l 1
 167 389 l 1
 167 333 l 1
 56 333 l 1
278 333 m 1
 278 389 l 1
 333 389 l 1
 333 333 l 1
 278 333 l 1
444 333 m 1
 444 389 l 1
 556 389 l 1
 556 333 l 1
 444 333 l 1
56 278 m 1
 56 333 l 1
 167 333 l 1
 167 278 l 1
 56 278 l 1
222 278 m 1
 222 333 l 1
 333 333 l 1
 333 278 l 1
 222 278 l 1
444 278 m 1
 444 333 l 1
 556 333 l 1
 556 278 l 1
 444 278 l 1
56 222 m 1
 56 278 l 1
 167 278 l 1
 167 222 l 1
 56 222 l 1
222 222 m 1
 222 278 l 1
 333 278 l 1
 333 222 l 1
 222 222 l 1
444 222 m 1
 444 278 l 1
 556 278 l 1
 556 222 l 1
 444 222 l 1
56 167 m 1
 56 222 l 1
 167 222 l 1
 167 167 l 1
 56 167 l 1
222 167 m 1
 222 222 l 1
 333 222 l 1
 333 167 l 1
 222 167 l 1
444 167 m 1
 444 222 l 1
 556 222 l 1
 556 167 l 1
 444 167 l 1
56 111 m 1
 56 167 l 1
 167 167 l 1
 167 111 l 1
 56 111 l 1
278 111 m 1
 278 167 l 1
 611 167 l 1
 611 111 l 1
 278 111 l 1
56 56 m 1
 56 111 l 1
 167 111 l 1
 167 56 l 1
 56 56 l 1
111 0 m 1
 111 56 l 1
 222 56 l 1
 222 0 l 1
 111 0 l 1
111 -56 m 1
 111 0 l 1
 278 0 l 1
 278 -56 l 1
 111 -56 l 1
500 -56 m 1
 500 0 l 1
 556 0 l 1
 556 -56 l 1
 500 -56 l 1
222 -111 m 1
 222 -56 l 1
 500 -56 l 1
 500 -111 l 1
 222 -111 l 1
EndSplineSet
EndChar

StartChar: A
Encoding: 65 65 33
Width: 611
Flags: HW
LayerCount: 2
Back
Fore
SplineSet
222 556 m 1
 222 611 l 1
 389 611 l 1
 389 556 l 1
 222 556 l 1
222 500 m 1
 222 556 l 1
 389 556 l 1
 389 500 l 1
 222 500 l 1
167 444 m 1
 167 500 l 1
 278 500 l 1
 278 444 l 1
 167 444 l 1
333 444 m 1
 333 500 l 1
 444 500 l 1
 444 444 l 1
 333 444 l 1
167 389 m 1
 167 444 l 1
 278 444 l 1
 278 389 l 1
 167 389 l 1
333 389 m 1
 333 444 l 1
 444 444 l 1
 444 389 l 1
 333 389 l 1
167 333 m 1
 167 389 l 1
 278 389 l 1
 278 333 l 1
 167 333 l 1
333 333 m 1
 333 389 l 1
 444 389 l 1
 444 333 l 1
 333 333 l 1
111 278 m 1
 111 333 l 1
 222 333 l 1
 222 278 l 1
 111 278 l 1
389 278 m 1
 389 333 l 1
 500 333 l 1
 500 278 l 1
 389 278 l 1
111 222 m 1
 111 278 l 1
 222 278 l 1
 222 222 l 1
 111 222 l 1
389 222 m 1
 389 278 l 1
 500 278 l 1
 500 222 l 1
 389 222 l 1
111 167 m 1
 111 222 l 1
 500 222 l 1
 500 167 l 1
 111 167 l 1
56 111 m 1
 56 167 l 1
 167 167 l 1
 167 111 l 1
 56 111 l 1
444 111 m 1
 444 167 l 1
 556 167 l 1
 556 111 l 1
 444 111 l 1
56 56 m 1
 56 111 l 1
 167 111 l 1
 167 56 l 1
 56 56 l 1
444 56 m 1
 444 111 l 1
 556 111 l 1
 556 56 l 1
 444 56 l 1
0 0 m 1
 0 56 l 1
 222 56 l 1
 222 0 l 1
 0 0 l 1
389 0 m 1
 389 56 l 1
 611 56 l 1
 611 0 l 1
 389 0 l 1
EndSplineSet
EndChar

StartChar: B
Encoding: 66 66 34
Width: 611
Flags: HW
LayerCount: 2
Back
Fore
SplineSet
56 556 m 1
 56 611 l 1
 444 611 l 1
 444 556 l 1
 56 556 l 1
111 500 m 1
 111 556 l 1
 222 556 l 1
 222 500 l 1
 111 500 l 1
389 500 m 1
 389 556 l 1
 500 556 l 1
 500 500 l 1
 389 500 l 1
111 444 m 1
 111 500 l 1
 222 500 l 1
 222 444 l 1
 111 444 l 1
389 444 m 1
 389 500 l 1
 500 500 l 1
 500 444 l 1
 389 444 l 1
111 389 m 1
 111 444 l 1
 222 444 l 1
 222 389 l 1
 111 389 l 1
389 389 m 1
 389 444 l 1
 500 444 l 1
 500 389 l 1
 389 389 l 1
111 333 m 1
 111 389 l 1
 222 389 l 1
 222 333 l 1
 111 333 l 1
389 333 m 1
 389 389 l 1
 444 389 l 1
 444 333 l 1
 389 333 l 1
111 278 m 1
 111 333 l 1
 500 333 l 1
 500 278 l 1
 111 278 l 1
111 222 m 1
 111 278 l 1
 222 278 l 1
 222 222 l 1
 111 222 l 1
444 222 m 1
 444 278 l 1
 556 278 l 1
 556 222 l 1
 444 222 l 1
111 167 m 1
 111 222 l 1
 222 222 l 1
 222 167 l 1
 111 167 l 1
444 167 m 1
 444 222 l 1
 556 222 l 1
 556 167 l 1
 444 167 l 1
111 111 m 1
 111 167 l 1
 222 167 l 1
 222 111 l 1
 111 111 l 1
444 111 m 1
 444 167 l 1
 556 167 l 1
 556 111 l 1
 444 111 l 1
111 56 m 1
 111 111 l 1
 222 111 l 1
 222 56 l 1
 111 56 l 1
444 56 m 1
 444 111 l 1
 556 111 l 1
 556 56 l 1
 444 56 l 1
56 0 m 1
 56 56 l 1
 500 56 l 1
 500 0 l 1
 56 0 l 1
EndSplineSet
EndChar

StartChar: C
Encoding: 67 67 35
Width: 611
Flags: HW
LayerCount: 2
Back
Fore
SplineSet
167 556 m 1
 167 611 l 1
 444 611 l 1
 444 556 l 1
 167 556 l 1
500 556 m 1
 500 611 l 1
 556 611 l 1
 556 556 l 1
 500 556 l 1
111 500 m 1
 111 556 l 1
 222 556 l 1
 222 500 l 1
 111 500 l 1
389 500 m 1
 389 556 l 1
 556 556 l 1
 556 500 l 1
 389 500 l 1
56 444 m 1
 56 500 l 1
 167 500 l 1
 167 444 l 1
 56 444 l 1
444 444 m 1
 444 500 l 1
 556 500 l 1
 556 444 l 1
 444 444 l 1
56 389 m 1
 56 444 l 1
 167 444 l 1
 167 389 l 1
 56 389 l 1
444 389 m 1
 444 444 l 1
 556 444 l 1
 556 389 l 1
 444 389 l 1
56 333 m 1
 56 389 l 1
 167 389 l 1
 167 333 l 1
 56 333 l 1
56 278 m 1
 56 333 l 1
 167 333 l 1
 167 278 l 1
 56 278 l 1
56 222 m 1
 56 278 l 1
 167 278 l 1
 167 222 l 1
 56 222 l 1
56 167 m 1
 56 222 l 1
 167 222 l 1
 167 167 l 1
 56 167 l 1
56 111 m 1
 56 167 l 1
 167 167 l 1
 167 111 l 1
 56 111 l 1
500 111 m 1
 500 167 l 1
 556 167 l 1
 556 111 l 1
 500 111 l 1
111 56 m 1
 111 111 l 1
 222 111 l 1
 222 56 l 1
 111 56 l 1
444 56 m 1
 444 111 l 1
 556 111 l 1
 556 56 l 1
 444 56 l 1
167 0 m 1
 167 56 l 1
 500 56 l 1
 500 0 l 1
 167 0 l 1
EndSplineSet
EndChar

StartChar: D
Encoding: 68 68 36
Width: 611
Flags: HW
LayerCount: 2
Back
Fore
SplineSet
56 556 m 1
 56 611 l 1
 444 611 l 1
 444 556 l 1
 56 556 l 1
111 500 m 1
 111 556 l 1
 222 556 l 1
 222 500 l 1
 111 500 l 1
389 500 m 1
 389 556 l 1
 500 556 l 1
 500 500 l 1
 389 500 l 1
111 444 m 1
 111 500 l 1
 222 500 l 1
 222 444 l 1
 111 444 l 1
444 444 m 1
 444 500 l 1
 556 500 l 1
 556 444 l 1
 444 444 l 1
111 389 m 1
 111 444 l 1
 222 444 l 1
 222 389 l 1
 111 389 l 1
444 389 m 1
 444 444 l 1
 556 444 l 1
 556 389 l 1
 444 389 l 1
111 333 m 1
 111 389 l 1
 222 389 l 1
 222 333 l 1
 111 333 l 1
444 333 m 1
 444 389 l 1
 556 389 l 1
 556 333 l 1
 444 333 l 1
111 278 m 1
 111 333 l 1
 222 333 l 1
 222 278 l 1
 111 278 l 1
444 278 m 1
 444 333 l 1
 556 333 l 1
 556 278 l 1
 444 278 l 1
111 222 m 1
 111 278 l 1
 222 278 l 1
 222 222 l 1
 111 222 l 1
444 222 m 1
 444 278 l 1
 556 278 l 1
 556 222 l 1
 444 222 l 1
111 167 m 1
 111 222 l 1
 222 222 l 1
 222 167 l 1
 111 167 l 1
444 167 m 1
 444 222 l 1
 556 222 l 1
 556 167 l 1
 444 167 l 1
111 111 m 1
 111 167 l 1
 222 167 l 1
 222 111 l 1
 111 111 l 1
444 111 m 1
 444 167 l 1
 556 167 l 1
 556 111 l 1
 444 111 l 1
111 56 m 1
 111 111 l 1
 222 111 l 1
 222 56 l 1
 111 56 l 1
389 56 m 1
 389 111 l 1
 500 111 l 1
 500 56 l 1
 389 56 l 1
56 0 m 1
 56 56 l 1
 444 56 l 1
 444 0 l 1
 56 0 l 1
EndSplineSet
EndChar

StartChar: E
Encoding: 69 69 37
Width: 611
Flags: HW
LayerCount: 2
Back
Fore
SplineSet
56 556 m 1
 56 611 l 1
 556 611 l 1
 556 556 l 1
 56 556 l 1
167 500 m 1
 167 556 l 1
 278 556 l 1
 278 500 l 1
 167 500 l 1
500 500 m 1
 500 556 l 1
 556 556 l 1
 556 500 l 1
 500 500 l 1
167 444 m 1
 167 500 l 1
 278 500 l 1
 278 444 l 1
 167 444 l 1
500 444 m 1
 500 500 l 1
 556 500 l 1
 556 444 l 1
 500 444 l 1
167 389 m 1
 167 444 l 1
 278 444 l 1
 278 389 l 1
 167 389 l 1
389 389 m 1
 389 444 l 1
 444 444 l 1
 444 389 l 1
 389 389 l 1
167 333 m 1
 167 389 l 1
 278 389 l 1
 278 333 l 1
 167 333 l 1
389 333 m 1
 389 389 l 1
 444 389 l 1
 444 333 l 1
 389 333 l 1
167 278 m 1
 167 333 l 1
 444 333 l 1
 444 278 l 1
 167 278 l 1
167 222 m 1
 167 278 l 1
 278 278 l 1
 278 222 l 1
 167 222 l 1
389 222 m 1
 389 278 l 1
 444 278 l 1
 444 222 l 1
 389 222 l 1
167 167 m 1
 167 222 l 1
 278 222 l 1
 278 167 l 1
 167 167 l 1
500 167 m 1
 500 222 l 1
 556 222 l 1
 556 167 l 1
 500 167 l 1
167 111 m 1
 167 167 l 1
 278 167 l 1
 278 111 l 1
 167 111 l 1
500 111 m 1
 500 167 l 1
 556 167 l 1
 556 111 l 1
 500 111 l 1
167 56 m 1
 167 111 l 1
 278 111 l 1
 278 56 l 1
 167 56 l 1
500 56 m 1
 500 111 l 1
 556 111 l 1
 556 56 l 1
 500 56 l 1
56 0 m 1
 56 56 l 1
 556 56 l 1
 556 0 l 1
 56 0 l 1
EndSplineSet
EndChar

StartChar: F
Encoding: 70 70 38
Width: 611
Flags: HW
LayerCount: 2
Back
Fore
SplineSet
56 556 m 1
 56 611 l 1
 556 611 l 1
 556 556 l 1
 56 556 l 1
167 500 m 1
 167 556 l 1
 278 556 l 1
 278 500 l 1
 167 500 l 1
500 500 m 1
 500 556 l 1
 556 556 l 1
 556 500 l 1
 500 500 l 1
167 444 m 1
 167 500 l 1
 278 500 l 1
 278 444 l 1
 167 444 l 1
500 444 m 1
 500 500 l 1
 556 500 l 1
 556 444 l 1
 500 444 l 1
167 389 m 1
 167 444 l 1
 278 444 l 1
 278 389 l 1
 167 389 l 1
389 389 m 1
 389 444 l 1
 444 444 l 1
 444 389 l 1
 389 389 l 1
167 333 m 1
 167 389 l 1
 278 389 l 1
 278 333 l 1
 167 333 l 1
389 333 m 1
 389 389 l 1
 444 389 l 1
 444 333 l 1
 389 333 l 1
167 278 m 1
 167 333 l 1
 444 333 l 1
 444 278 l 1
 167 278 l 1
167 222 m 1
 167 278 l 1
 278 278 l 1
 278 222 l 1
 167 222 l 1
389 222 m 1
 389 278 l 1
 444 278 l 1
 444 222 l 1
 389 222 l 1
167 167 m 1
 167 222 l 1
 278 222 l 1
 278 167 l 1
 167 167 l 1
389 167 m 1
 389 222 l 1
 444 222 l 1
 444 167 l 1
 389 167 l 1
167 111 m 1
 167 167 l 1
 278 167 l 1
 278 111 l 1
 167 111 l 1
167 56 m 1
 167 111 l 1
 278 111 l 1
 278 56 l 1
 167 56 l 1
56 0 m 1
 56 56 l 1
 389 56 l 1
 389 0 l 1
 56 0 l 1
EndSplineSet
EndChar

StartChar: G
Encoding: 71 71 39
Width: 611
Flags: HW
LayerCount: 2
Back
Fore
SplineSet
167 556 m 1
 167 611 l 1
 444 611 l 1
 444 556 l 1
 167 556 l 1
500 556 m 1
 500 611 l 1
 556 611 l 1
 556 556 l 1
 500 556 l 1
111 500 m 1
 111 556 l 1
 222 556 l 1
 222 500 l 1
 111 500 l 1
389 500 m 1
 389 556 l 1
 556 556 l 1
 556 500 l 1
 389 500 l 1
56 444 m 1
 56 500 l 1
 167 500 l 1
 167 444 l 1
 56 444 l 1
444 444 m 1
 444 500 l 1
 556 500 l 1
 556 444 l 1
 444 444 l 1
56 389 m 1
 56 444 l 1
 167 444 l 1
 167 389 l 1
 56 389 l 1
444 389 m 1
 444 444 l 1
 556 444 l 1
 556 389 l 1
 444 389 l 1
56 333 m 1
 56 389 l 1
 167 389 l 1
 167 333 l 1
 56 333 l 1
56 278 m 1
 56 333 l 1
 167 333 l 1
 167 278 l 1
 56 278 l 1
56 222 m 1
 56 278 l 1
 167 278 l 1
 167 222 l 1
 56 222 l 1
333 222 m 1
 333 278 l 1
 611 278 l 1
 611 222 l 1
 333 222 l 1
56 167 m 1
 56 222 l 1
 167 222 l 1
 167 167 l 1
 56 167 l 1
444 167 m 1
 444 222 l 1
 556 222 l 1
 556 167 l 1
 444 167 l 1
56 111 m 1
 56 167 l 1
 167 167 l 1
 167 111 l 1
 56 111 l 1
444 111 m 1
 444 167 l 1
 556 167 l 1
 556 111 l 1
 444 111 l 1
111 56 m 1
 111 111 l 1
 222 111 l 1
 222 56 l 1
 111 56 l 1
444 56 m 1
 444 111 l 1
 556 111 l 1
 556 56 l 1
 444 56 l 1
167 0 m 1
 167 56 l 1
 500 56 l 1
 500 0 l 1
 167 0 l 1
EndSplineSet
EndChar

StartChar: H
Encoding: 72 72 40
Width: 611
Flags: HW
LayerCount: 2
Back
Fore
SplineSet
56 556 m 1
 56 611 l 1
 278 611 l 1
 278 556 l 1
 56 556 l 1
333 556 m 1
 333 611 l 1
 556 611 l 1
 556 556 l 1
 333 556 l 1
111 500 m 1
 111 556 l 1
 222 556 l 1
 222 500 l 1
 111 500 l 1
389 500 m 1
 389 556 l 1
 500 556 l 1
 500 500 l 1
 389 500 l 1
111 444 m 1
 111 500 l 1
 222 500 l 1
 222 444 l 1
 111 444 l 1
389 444 m 1
 389 500 l 1
 500 500 l 1
 500 444 l 1
 389 444 l 1
111 389 m 1
 111 444 l 1
 222 444 l 1
 222 389 l 1
 111 389 l 1
389 389 m 1
 389 444 l 1
 500 444 l 1
 500 389 l 1
 389 389 l 1
111 333 m 1
 111 389 l 1
 222 389 l 1
 222 333 l 1
 111 333 l 1
389 333 m 1
 389 389 l 1
 500 389 l 1
 500 333 l 1
 389 333 l 1
111 278 m 1
 111 333 l 1
 500 333 l 1
 500 278 l 1
 111 278 l 1
111 222 m 1
 111 278 l 1
 222 278 l 1
 222 222 l 1
 111 222 l 1
389 222 m 1
 389 278 l 1
 500 278 l 1
 500 222 l 1
 389 222 l 1
111 167 m 1
 111 222 l 1
 222 222 l 1
 222 167 l 1
 111 167 l 1
389 167 m 1
 389 222 l 1
 500 222 l 1
 500 167 l 1
 389 167 l 1
111 111 m 1
 111 167 l 1
 222 167 l 1
 222 111 l 1
 111 111 l 1
389 111 m 1
 389 167 l 1
 500 167 l 1
 500 111 l 1
 389 111 l 1
111 56 m 1
 111 111 l 1
 222 111 l 1
 222 56 l 1
 111 56 l 1
389 56 m 1
 389 111 l 1
 500 111 l 1
 500 56 l 1
 389 56 l 1
56 0 m 1
 56 56 l 1
 278 56 l 1
 278 0 l 1
 56 0 l 1
333 0 m 1
 333 56 l 1
 556 56 l 1
 556 0 l 1
 333 0 l 1
EndSplineSet
EndChar

StartChar: I
Encoding: 73 73 41
Width: 611
Flags: HW
LayerCount: 2
Back
Fore
SplineSet
111 556 m 1
 111 611 l 1
 556 611 l 1
 556 556 l 1
 111 556 l 1
278 500 m 1
 278 556 l 1
 389 556 l 1
 389 500 l 1
 278 500 l 1
278 444 m 1
 278 500 l 1
 389 500 l 1
 389 444 l 1
 278 444 l 1
278 389 m 1
 278 444 l 1
 389 444 l 1
 389 389 l 1
 278 389 l 1
278 333 m 1
 278 389 l 1
 389 389 l 1
 389 333 l 1
 278 333 l 1
278 278 m 1
 278 333 l 1
 389 333 l 1
 389 278 l 1
 278 278 l 1
278 222 m 1
 278 278 l 1
 389 278 l 1
 389 222 l 1
 278 222 l 1
278 167 m 1
 278 222 l 1
 389 222 l 1
 389 167 l 1
 278 167 l 1
278 111 m 1
 278 167 l 1
 389 167 l 1
 389 111 l 1
 278 111 l 1
278 56 m 1
 278 111 l 1
 389 111 l 1
 389 56 l 1
 278 56 l 1
111 0 m 1
 111 56 l 1
 556 56 l 1
 556 0 l 1
 111 0 l 1
EndSplineSet
EndChar

StartChar: J
Encoding: 74 74 42
Width: 611
Flags: HW
LayerCount: 2
Back
Fore
SplineSet
167 556 m 1
 167 611 l 1
 556 611 l 1
 556 556 l 1
 167 556 l 1
333 500 m 1
 333 556 l 1
 444 556 l 1
 444 500 l 1
 333 500 l 1
333 444 m 1
 333 500 l 1
 444 500 l 1
 444 444 l 1
 333 444 l 1
333 389 m 1
 333 444 l 1
 444 444 l 1
 444 389 l 1
 333 389 l 1
333 333 m 1
 333 389 l 1
 444 389 l 1
 444 333 l 1
 333 333 l 1
333 278 m 1
 333 333 l 1
 444 333 l 1
 444 278 l 1
 333 278 l 1
56 222 m 1
 56 278 l 1
 111 278 l 1
 111 222 l 1
 56 222 l 1
333 222 m 1
 333 278 l 1
 444 278 l 1
 444 222 l 1
 333 222 l 1
56 167 m 1
 56 222 l 1
 111 222 l 1
 111 167 l 1
 56 167 l 1
333 167 m 1
 333 222 l 1
 444 222 l 1
 444 167 l 1
 333 167 l 1
56 111 m 1
 56 167 l 1
 111 167 l 1
 111 111 l 1
 56 111 l 1
333 111 m 1
 333 167 l 1
 444 167 l 1
 444 111 l 1
 333 111 l 1
56 56 m 1
 56 111 l 1
 167 111 l 1
 167 56 l 1
 56 56 l 1
333 56 m 1
 333 111 l 1
 444 111 l 1
 444 56 l 1
 333 56 l 1
111 0 m 1
 111 56 l 1
 389 56 l 1
 389 0 l 1
 111 0 l 1
EndSplineSet
EndChar

StartChar: K
Encoding: 75 75 43
Width: 611
Flags: HW
LayerCount: 2
Back
Fore
SplineSet
56 556 m 1
 56 611 l 1
 278 611 l 1
 278 556 l 1
 56 556 l 1
333 556 m 1
 333 611 l 1
 556 611 l 1
 556 556 l 1
 333 556 l 1
111 500 m 1
 111 556 l 1
 222 556 l 1
 222 500 l 1
 111 500 l 1
389 500 m 1
 389 556 l 1
 500 556 l 1
 500 500 l 1
 389 500 l 1
111 444 m 1
 111 500 l 1
 222 500 l 1
 222 444 l 1
 111 444 l 1
333 444 m 1
 333 500 l 1
 444 500 l 1
 444 444 l 1
 333 444 l 1
111 389 m 1
 111 444 l 1
 222 444 l 1
 222 389 l 1
 111 389 l 1
278 389 m 1
 278 444 l 1
 389 444 l 1
 389 389 l 1
 278 389 l 1
111 333 m 1
 111 389 l 1
 333 389 l 1
 333 333 l 1
 111 333 l 1
111 278 m 1
 111 333 l 1
 389 333 l 1
 389 278 l 1
 111 278 l 1
111 222 m 1
 111 278 l 1
 222 278 l 1
 222 222 l 1
 111 222 l 1
333 222 m 1
 333 278 l 1
 444 278 l 1
 444 222 l 1
 333 222 l 1
111 167 m 1
 111 222 l 1
 222 222 l 1
 222 167 l 1
 111 167 l 1
333 167 m 1
 333 222 l 1
 444 222 l 1
 444 167 l 1
 333 167 l 1
111 111 m 1
 111 167 l 1
 222 167 l 1
 222 111 l 1
 111 111 l 1
389 111 m 1
 389 167 l 1
 500 167 l 1
 500 111 l 1
 389 111 l 1
111 56 m 1
 111 111 l 1
 222 111 l 1
 222 56 l 1
 111 56 l 1
389 56 m 1
 389 111 l 1
 500 111 l 1
 500 56 l 1
 389 56 l 1
56 0 m 1
 56 56 l 1
 278 56 l 1
 278 0 l 1
 56 0 l 1
389 0 m 1
 389 56 l 1
 556 56 l 1
 556 0 l 1
 389 0 l 1
EndSplineSet
EndChar

StartChar: L
Encoding: 76 76 44
Width: 611
Flags: HW
LayerCount: 2
Back
Fore
SplineSet
56 556 m 1
 56 611 l 1
 389 611 l 1
 389 556 l 1
 56 556 l 1
167 500 m 1
 167 556 l 1
 278 556 l 1
 278 500 l 1
 167 500 l 1
167 444 m 1
 167 500 l 1
 278 500 l 1
 278 444 l 1
 167 444 l 1
167 389 m 1
 167 444 l 1
 278 444 l 1
 278 389 l 1
 167 389 l 1
167 333 m 1
 167 389 l 1
 278 389 l 1
 278 333 l 1
 167 333 l 1
167 278 m 1
 167 333 l 1
 278 333 l 1
 278 278 l 1
 167 278 l 1
167 222 m 1
 167 278 l 1
 278 278 l 1
 278 222 l 1
 167 222 l 1
167 167 m 1
 167 222 l 1
 278 222 l 1
 278 167 l 1
 167 167 l 1
500 167 m 1
 500 222 l 1
 556 222 l 1
 556 167 l 1
 500 167 l 1
167 111 m 1
 167 167 l 1
 278 167 l 1
 278 111 l 1
 167 111 l 1
500 111 m 1
 500 167 l 1
 556 167 l 1
 556 111 l 1
 500 111 l 1
167 56 m 1
 167 111 l 1
 278 111 l 1
 278 56 l 1
 167 56 l 1
500 56 m 1
 500 111 l 1
 556 111 l 1
 556 56 l 1
 500 56 l 1
56 0 m 1
 56 56 l 1
 556 56 l 1
 556 0 l 1
 56 0 l 1
EndSplineSet
EndChar

StartChar: M
Encoding: 77 77 45
Width: 611
Flags: HW
LayerCount: 2
Back
Fore
SplineSet
0 556 m 1
 0 611 l 1
 222 611 l 1
 222 556 l 1
 0 556 l 1
389 556 m 1
 389 611 l 1
 611 611 l 1
 611 556 l 1
 389 556 l 1
56 500 m 1
 56 556 l 1
 222 556 l 1
 222 500 l 1
 56 500 l 1
389 500 m 1
 389 556 l 1
 556 556 l 1
 556 500 l 1
 389 500 l 1
56 444 m 1
 56 500 l 1
 167 500 l 1
 167 444 l 1
 56 444 l 1
222 444 m 1
 222 500 l 1
 278 500 l 1
 278 444 l 1
 222 444 l 1
333 444 m 1
 333 500 l 1
 389 500 l 1
 389 444 l 1
 333 444 l 1
444 444 m 1
 444 500 l 1
 556 500 l 1
 556 444 l 1
 444 444 l 1
56 389 m 1
 56 444 l 1
 167 444 l 1
 167 389 l 1
 56 389 l 1
222 389 m 1
 222 444 l 1
 278 444 l 1
 278 389 l 1
 222 389 l 1
333 389 m 1
 333 444 l 1
 389 444 l 1
 389 389 l 1
 333 389 l 1
444 389 m 1
 444 444 l 1
 556 444 l 1
 556 389 l 1
 444 389 l 1
56 333 m 1
 56 389 l 1
 167 389 l 1
 167 333 l 1
 56 333 l 1
222 333 m 1
 222 389 l 1
 278 389 l 1
 278 333 l 1
 222 333 l 1
333 333 m 1
 333 389 l 1
 389 389 l 1
 389 333 l 1
 333 333 l 1
444 333 m 1
 444 389 l 1
 556 389 l 1
 556 333 l 1
 444 333 l 1
56 278 m 1
 56 333 l 1
 167 333 l 1
 167 278 l 1
 56 278 l 1
222 278 m 1
 222 333 l 1
 278 333 l 1
 278 278 l 1
 222 278 l 1
333 278 m 1
 333 333 l 1
 389 333 l 1
 389 278 l 1
 333 278 l 1
444 278 m 1
 444 333 l 1
 556 333 l 1
 556 278 l 1
 444 278 l 1
56 222 m 1
 56 278 l 1
 167 278 l 1
 167 222 l 1
 56 222 l 1
278 222 m 1
 278 278 l 1
 333 278 l 1
 333 222 l 1
 278 222 l 1
444 222 m 1
 444 278 l 1
 556 278 l 1
 556 222 l 1
 444 222 l 1
56 167 m 1
 56 222 l 1
 167 222 l 1
 167 167 l 1
 56 167 l 1
278 167 m 1
 278 222 l 1
 333 222 l 1
 333 167 l 1
 278 167 l 1
444 167 m 1
 444 222 l 1
 556 222 l 1
 556 167 l 1
 444 167 l 1
56 111 m 1
 56 167 l 1
 167 167 l 1
 167 111 l 1
 56 111 l 1
444 111 m 1
 444 167 l 1
 556 167 l 1
 556 111 l 1
 444 111 l 1
56 56 m 1
 56 111 l 1
 167 111 l 1
 167 56 l 1
 56 56 l 1
444 56 m 1
 444 111 l 1
 556 111 l 1
 556 56 l 1
 444 56 l 1
0 0 m 1
 0 56 l 1
 222 56 l 1
 222 0 l 1
 0 0 l 1
389 0 m 1
 389 56 l 1
 611 56 l 1
 611 0 l 1
 389 0 l 1
EndSplineSet
EndChar

StartChar: N
Encoding: 78 78 46
Width: 611
Flags: HW
LayerCount: 2
Back
Fore
SplineSet
56 556 m 1
 56 611 l 1
 222 611 l 1
 222 556 l 1
 56 556 l 1
389 556 m 1
 389 611 l 1
 611 611 l 1
 611 556 l 1
 389 556 l 1
111 500 m 1
 111 556 l 1
 278 556 l 1
 278 500 l 1
 111 500 l 1
444 500 m 1
 444 556 l 1
 556 556 l 1
 556 500 l 1
 444 500 l 1
111 444 m 1
 111 500 l 1
 278 500 l 1
 278 444 l 1
 111 444 l 1
444 444 m 1
 444 500 l 1
 556 500 l 1
 556 444 l 1
 444 444 l 1
111 389 m 1
 111 444 l 1
 222 444 l 1
 222 389 l 1
 111 389 l 1
278 389 m 1
 278 444 l 1
 333 444 l 1
 333 389 l 1
 278 389 l 1
444 389 m 1
 444 444 l 1
 556 444 l 1
 556 389 l 1
 444 389 l 1
111 333 m 1
 111 389 l 1
 222 389 l 1
 222 333 l 1
 111 333 l 1
278 333 m 1
 278 389 l 1
 333 389 l 1
 333 333 l 1
 278 333 l 1
444 333 m 1
 444 389 l 1
 556 389 l 1
 556 333 l 1
 444 333 l 1
111 278 m 1
 111 333 l 1
 222 333 l 1
 222 278 l 1
 111 278 l 1
333 278 m 1
 333 333 l 1
 389 333 l 1
 389 278 l 1
 333 278 l 1
444 278 m 1
 444 333 l 1
 556 333 l 1
 556 278 l 1
 444 278 l 1
111 222 m 1
 111 278 l 1
 222 278 l 1
 222 222 l 1
 111 222 l 1
333 222 m 1
 333 278 l 1
 389 278 l 1
 389 222 l 1
 333 222 l 1
444 222 m 1
 444 278 l 1
 556 278 l 1
 556 222 l 1
 444 222 l 1
111 167 m 1
 111 222 l 1
 222 222 l 1
 222 167 l 1
 111 167 l 1
389 167 m 1
 389 222 l 1
 556 222 l 1
 556 167 l 1
 389 167 l 1
111 111 m 1
 111 167 l 1
 222 167 l 1
 222 111 l 1
 111 111 l 1
389 111 m 1
 389 167 l 1
 556 167 l 1
 556 111 l 1
 389 111 l 1
111 56 m 1
 111 111 l 1
 222 111 l 1
 222 56 l 1
 111 56 l 1
444 56 m 1
 444 111 l 1
 556 111 l 1
 556 56 l 1
 444 56 l 1
56 0 m 1
 56 56 l 1
 333 56 l 1
 333 0 l 1
 56 0 l 1
444 0 m 1
 444 56 l 1
 556 56 l 1
 556 0 l 1
 444 0 l 1
EndSplineSet
EndChar

StartChar: O
Encoding: 79 79 47
Width: 611
Flags: HW
LayerCount: 2
Back
Fore
SplineSet
167 556 m 1
 167 611 l 1
 444 611 l 1
 444 556 l 1
 167 556 l 1
111 500 m 1
 111 556 l 1
 222 556 l 1
 222 500 l 1
 111 500 l 1
389 500 m 1
 389 556 l 1
 500 556 l 1
 500 500 l 1
 389 500 l 1
56 444 m 1
 56 500 l 1
 167 500 l 1
 167 444 l 1
 56 444 l 1
444 444 m 1
 444 500 l 1
 556 500 l 1
 556 444 l 1
 444 444 l 1
56 389 m 1
 56 444 l 1
 167 444 l 1
 167 389 l 1
 56 389 l 1
444 389 m 1
 444 444 l 1
 556 444 l 1
 556 389 l 1
 444 389 l 1
56 333 m 1
 56 389 l 1
 167 389 l 1
 167 333 l 1
 56 333 l 1
444 333 m 1
 444 389 l 1
 556 389 l 1
 556 333 l 1
 444 333 l 1
56 278 m 1
 56 333 l 1
 167 333 l 1
 167 278 l 1
 56 278 l 1
444 278 m 1
 444 333 l 1
 556 333 l 1
 556 278 l 1
 444 278 l 1
56 222 m 1
 56 278 l 1
 167 278 l 1
 167 222 l 1
 56 222 l 1
444 222 m 1
 444 278 l 1
 556 278 l 1
 556 222 l 1
 444 222 l 1
56 167 m 1
 56 222 l 1
 167 222 l 1
 167 167 l 1
 56 167 l 1
444 167 m 1
 444 222 l 1
 556 222 l 1
 556 167 l 1
 444 167 l 1
56 111 m 1
 56 167 l 1
 167 167 l 1
 167 111 l 1
 56 111 l 1
444 111 m 1
 444 167 l 1
 556 167 l 1
 556 111 l 1
 444 111 l 1
111 56 m 1
 111 111 l 1
 222 111 l 1
 222 56 l 1
 111 56 l 1
389 56 m 1
 389 111 l 1
 500 111 l 1
 500 56 l 1
 389 56 l 1
167 0 m 1
 167 56 l 1
 444 56 l 1
 444 0 l 1
 167 0 l 1
EndSplineSet
EndChar

StartChar: P
Encoding: 80 80 48
Width: 611
Flags: HW
LayerCount: 2
Back
Fore
SplineSet
56 556 m 1
 56 611 l 1
 500 611 l 1
 500 556 l 1
 56 556 l 1
167 500 m 1
 167 556 l 1
 278 556 l 1
 278 500 l 1
 167 500 l 1
444 500 m 1
 444 556 l 1
 556 556 l 1
 556 500 l 1
 444 500 l 1
167 444 m 1
 167 500 l 1
 278 500 l 1
 278 444 l 1
 167 444 l 1
444 444 m 1
 444 500 l 1
 556 500 l 1
 556 444 l 1
 444 444 l 1
167 389 m 1
 167 444 l 1
 278 444 l 1
 278 389 l 1
 167 389 l 1
444 389 m 1
 444 444 l 1
 556 444 l 1
 556 389 l 1
 444 389 l 1
167 333 m 1
 167 389 l 1
 278 389 l 1
 278 333 l 1
 167 333 l 1
444 333 m 1
 444 389 l 1
 556 389 l 1
 556 333 l 1
 444 333 l 1
167 278 m 1
 167 333 l 1
 278 333 l 1
 278 278 l 1
 167 278 l 1
444 278 m 1
 444 333 l 1
 556 333 l 1
 556 278 l 1
 444 278 l 1
167 222 m 1
 167 278 l 1
 500 278 l 1
 500 222 l 1
 167 222 l 1
167 167 m 1
 167 222 l 1
 278 222 l 1
 278 167 l 1
 167 167 l 1
167 111 m 1
 167 167 l 1
 278 167 l 1
 278 111 l 1
 167 111 l 1
167 56 m 1
 167 111 l 1
 278 111 l 1
 278 56 l 1
 167 56 l 1
56 0 m 1
 56 56 l 1
 389 56 l 1
 389 0 l 1
 56 0 l 1
EndSplineSet
EndChar

StartChar: Q
Encoding: 81 81 49
Width: 611
Flags: HW
LayerCount: 2
Back
Fore
SplineSet
167 556 m 1
 167 611 l 1
 444 611 l 1
 444 556 l 1
 167 556 l 1
111 500 m 1
 111 556 l 1
 222 556 l 1
 222 500 l 1
 111 500 l 1
389 500 m 1
 389 556 l 1
 500 556 l 1
 500 500 l 1
 389 500 l 1
56 444 m 1
 56 500 l 1
 167 500 l 1
 167 444 l 1
 56 444 l 1
444 444 m 1
 444 500 l 1
 556 500 l 1
 556 444 l 1
 444 444 l 1
56 389 m 1
 56 444 l 1
 167 444 l 1
 167 389 l 1
 56 389 l 1
444 389 m 1
 444 444 l 1
 556 444 l 1
 556 389 l 1
 444 389 l 1
56 333 m 1
 56 389 l 1
 167 389 l 1
 167 333 l 1
 56 333 l 1
444 333 m 1
 444 389 l 1
 556 389 l 1
 556 333 l 1
 444 333 l 1
56 278 m 1
 56 333 l 1
 167 333 l 1
 167 278 l 1
 56 278 l 1
444 278 m 1
 444 333 l 1
 556 333 l 1
 556 278 l 1
 444 278 l 1
56 222 m 1
 56 278 l 1
 167 278 l 1
 167 222 l 1
 56 222 l 1
444 222 m 1
 444 278 l 1
 556 278 l 1
 556 222 l 1
 444 222 l 1
56 167 m 1
 56 222 l 1
 167 222 l 1
 167 167 l 1
 56 167 l 1
444 167 m 1
 444 222 l 1
 556 222 l 1
 556 167 l 1
 444 167 l 1
56 111 m 1
 56 167 l 1
 167 167 l 1
 167 111 l 1
 56 111 l 1
444 111 m 1
 444 167 l 1
 556 167 l 1
 556 111 l 1
 444 111 l 1
111 56 m 1
 111 111 l 1
 222 111 l 1
 222 56 l 1
 111 56 l 1
389 56 m 1
 389 111 l 1
 500 111 l 1
 500 56 l 1
 389 56 l 1
167 0 m 1
 167 56 l 1
 444 56 l 1
 444 0 l 1
 167 0 l 1
222 -56 m 1
 222 0 l 1
 278 0 l 1
 278 -56 l 1
 222 -56 l 1
167 -111 m 1
 167 -56 l 1
 222 -56 l 1
 222 -111 l 1
 167 -111 l 1
278 -111 m 1
 278 -56 l 1
 444 -56 l 1
 444 -111 l 1
 278 -111 l 1
500 -111 m 1
 500 -56 l 1
 611 -56 l 1
 611 -111 l 1
 500 -111 l 1
167 -167 m 1
 167 -111 l 1
 278 -111 l 1
 278 -167 l 1
 167 -167 l 1
389 -167 m 1
 389 -111 l 1
 556 -111 l 1
 556 -167 l 1
 389 -167 l 1
EndSplineSet
EndChar

StartChar: R
Encoding: 82 82 50
Width: 611
Flags: HW
LayerCount: 2
Back
Fore
SplineSet
56 556 m 1
 56 611 l 1
 500 611 l 1
 500 556 l 1
 56 556 l 1
111 500 m 1
 111 556 l 1
 222 556 l 1
 222 500 l 1
 111 500 l 1
389 500 m 1
 389 556 l 1
 556 556 l 1
 556 500 l 1
 389 500 l 1
111 444 m 1
 111 500 l 1
 222 500 l 1
 222 444 l 1
 111 444 l 1
444 444 m 1
 444 500 l 1
 556 500 l 1
 556 444 l 1
 444 444 l 1
111 389 m 1
 111 444 l 1
 222 444 l 1
 222 389 l 1
 111 389 l 1
444 389 m 1
 444 444 l 1
 556 444 l 1
 556 389 l 1
 444 389 l 1
111 333 m 1
 111 389 l 1
 222 389 l 1
 222 333 l 1
 111 333 l 1
389 333 m 1
 389 389 l 1
 500 389 l 1
 500 333 l 1
 389 333 l 1
111 278 m 1
 111 333 l 1
 444 333 l 1
 444 278 l 1
 111 278 l 1
111 222 m 1
 111 278 l 1
 222 278 l 1
 222 222 l 1
 111 222 l 1
389 222 m 1
 389 278 l 1
 500 278 l 1
 500 222 l 1
 389 222 l 1
111 167 m 1
 111 222 l 1
 222 222 l 1
 222 167 l 1
 111 167 l 1
389 167 m 1
 389 222 l 1
 500 222 l 1
 500 167 l 1
 389 167 l 1
111 111 m 1
 111 167 l 1
 222 167 l 1
 222 111 l 1
 111 111 l 1
444 111 m 1
 444 167 l 1
 556 167 l 1
 556 111 l 1
 444 111 l 1
111 56 m 1
 111 111 l 1
 222 111 l 1
 222 56 l 1
 111 56 l 1
444 56 m 1
 444 111 l 1
 556 111 l 1
 556 56 l 1
 444 56 l 1
56 0 m 1
 56 56 l 1
 278 56 l 1
 278 0 l 1
 56 0 l 1
444 0 m 1
 444 56 l 1
 611 56 l 1
 611 0 l 1
 444 0 l 1
EndSplineSet
EndChar

StartChar: S
Encoding: 83 83 51
Width: 611
Flags: HW
LayerCount: 2
Back
Fore
SplineSet
222 556 m 1
 222 611 l 1
 389 611 l 1
 389 556 l 1
 222 556 l 1
444 556 m 1
 444 611 l 1
 556 611 l 1
 556 556 l 1
 444 556 l 1
111 500 m 1
 111 556 l 1
 278 556 l 1
 278 500 l 1
 111 500 l 1
389 500 m 1
 389 556 l 1
 556 556 l 1
 556 500 l 1
 389 500 l 1
111 444 m 1
 111 500 l 1
 222 500 l 1
 222 444 l 1
 111 444 l 1
444 444 m 1
 444 500 l 1
 556 500 l 1
 556 444 l 1
 444 444 l 1
111 389 m 1
 111 444 l 1
 222 444 l 1
 222 389 l 1
 111 389 l 1
111 333 m 1
 111 389 l 1
 278 389 l 1
 278 333 l 1
 111 333 l 1
167 278 m 1
 167 333 l 1
 500 333 l 1
 500 278 l 1
 167 278 l 1
389 222 m 1
 389 278 l 1
 556 278 l 1
 556 222 l 1
 389 222 l 1
444 167 m 1
 444 222 l 1
 556 222 l 1
 556 167 l 1
 444 167 l 1
111 111 m 1
 111 167 l 1
 222 167 l 1
 222 111 l 1
 111 111 l 1
444 111 m 1
 444 167 l 1
 556 167 l 1
 556 111 l 1
 444 111 l 1
111 56 m 1
 111 111 l 1
 278 111 l 1
 278 56 l 1
 111 56 l 1
389 56 m 1
 389 111 l 1
 556 111 l 1
 556 56 l 1
 389 56 l 1
111 0 m 1
 111 56 l 1
 222 56 l 1
 222 0 l 1
 111 0 l 1
278 0 m 1
 278 56 l 1
 444 56 l 1
 444 0 l 1
 278 0 l 1
EndSplineSet
EndChar

StartChar: T
Encoding: 84 84 52
Width: 611
Flags: HW
LayerCount: 2
Back
Fore
SplineSet
56 556 m 1
 56 611 l 1
 611 611 l 1
 611 556 l 1
 56 556 l 1
56 500 m 1
 56 556 l 1
 111 556 l 1
 111 500 l 1
 56 500 l 1
278 500 m 1
 278 556 l 1
 389 556 l 1
 389 500 l 1
 278 500 l 1
556 500 m 1
 556 556 l 1
 611 556 l 1
 611 500 l 1
 556 500 l 1
56 444 m 1
 56 500 l 1
 111 500 l 1
 111 444 l 1
 56 444 l 1
278 444 m 1
 278 500 l 1
 389 500 l 1
 389 444 l 1
 278 444 l 1
556 444 m 1
 556 500 l 1
 611 500 l 1
 611 444 l 1
 556 444 l 1
56 389 m 1
 56 444 l 1
 111 444 l 1
 111 389 l 1
 56 389 l 1
278 389 m 1
 278 444 l 1
 389 444 l 1
 389 389 l 1
 278 389 l 1
556 389 m 1
 556 444 l 1
 611 444 l 1
 611 389 l 1
 556 389 l 1
278 333 m 1
 278 389 l 1
 389 389 l 1
 389 333 l 1
 278 333 l 1
278 278 m 1
 278 333 l 1
 389 333 l 1
 389 278 l 1
 278 278 l 1
278 222 m 1
 278 278 l 1
 389 278 l 1
 389 222 l 1
 278 222 l 1
278 167 m 1
 278 222 l 1
 389 222 l 1
 389 167 l 1
 278 167 l 1
278 111 m 1
 278 167 l 1
 389 167 l 1
 389 111 l 1
 278 111 l 1
278 56 m 1
 278 111 l 1
 389 111 l 1
 389 56 l 1
 278 56 l 1
167 0 m 1
 167 56 l 1
 500 56 l 1
 500 0 l 1
 167 0 l 1
EndSplineSet
EndChar

StartChar: U
Encoding: 85 85 53
Width: 611
Flags: HW
LayerCount: 2
Back
Fore
SplineSet
56 556 m 1
 56 611 l 1
 278 611 l 1
 278 556 l 1
 56 556 l 1
389 556 m 1
 389 611 l 1
 611 611 l 1
 611 556 l 1
 389 556 l 1
111 500 m 1
 111 556 l 1
 222 556 l 1
 222 500 l 1
 111 500 l 1
444 500 m 1
 444 556 l 1
 556 556 l 1
 556 500 l 1
 444 500 l 1
111 444 m 1
 111 500 l 1
 222 500 l 1
 222 444 l 1
 111 444 l 1
444 444 m 1
 444 500 l 1
 556 500 l 1
 556 444 l 1
 444 444 l 1
111 389 m 1
 111 444 l 1
 222 444 l 1
 222 389 l 1
 111 389 l 1
444 389 m 1
 444 444 l 1
 556 444 l 1
 556 389 l 1
 444 389 l 1
111 333 m 1
 111 389 l 1
 222 389 l 1
 222 333 l 1
 111 333 l 1
444 333 m 1
 444 389 l 1
 556 389 l 1
 556 333 l 1
 444 333 l 1
111 278 m 1
 111 333 l 1
 222 333 l 1
 222 278 l 1
 111 278 l 1
444 278 m 1
 444 333 l 1
 556 333 l 1
 556 278 l 1
 444 278 l 1
111 222 m 1
 111 278 l 1
 222 278 l 1
 222 222 l 1
 111 222 l 1
444 222 m 1
 444 278 l 1
 556 278 l 1
 556 222 l 1
 444 222 l 1
111 167 m 1
 111 222 l 1
 222 222 l 1
 222 167 l 1
 111 167 l 1
444 167 m 1
 444 222 l 1
 556 222 l 1
 556 167 l 1
 444 167 l 1
111 111 m 1
 111 167 l 1
 222 167 l 1
 222 111 l 1
 111 111 l 1
444 111 m 1
 444 167 l 1
 556 167 l 1
 556 111 l 1
 444 111 l 1
167 56 m 1
 167 111 l 1
 278 111 l 1
 278 56 l 1
 167 56 l 1
389 56 m 1
 389 111 l 1
 500 111 l 1
 500 56 l 1
 389 56 l 1
222 0 m 1
 222 56 l 1
 444 56 l 1
 444 0 l 1
 222 0 l 1
EndSplineSet
EndChar

StartChar: V
Encoding: 86 86 54
Width: 611
Flags: HW
LayerCount: 2
Back
Fore
SplineSet
0 556 m 1
 0 611 l 1
 222 611 l 1
 222 556 l 1
 0 556 l 1
389 556 m 1
 389 611 l 1
 611 611 l 1
 611 556 l 1
 389 556 l 1
56 500 m 1
 56 556 l 1
 167 556 l 1
 167 500 l 1
 56 500 l 1
444 500 m 1
 444 556 l 1
 556 556 l 1
 556 500 l 1
 444 500 l 1
56 444 m 1
 56 500 l 1
 167 500 l 1
 167 444 l 1
 56 444 l 1
444 444 m 1
 444 500 l 1
 556 500 l 1
 556 444 l 1
 444 444 l 1
111 389 m 1
 111 444 l 1
 222 444 l 1
 222 389 l 1
 111 389 l 1
389 389 m 1
 389 444 l 1
 500 444 l 1
 500 389 l 1
 389 389 l 1
111 333 m 1
 111 389 l 1
 222 389 l 1
 222 333 l 1
 111 333 l 1
389 333 m 1
 389 389 l 1
 500 389 l 1
 500 333 l 1
 389 333 l 1
111 278 m 1
 111 333 l 1
 222 333 l 1
 222 278 l 1
 111 278 l 1
389 278 m 1
 389 333 l 1
 500 333 l 1
 500 278 l 1
 389 278 l 1
167 222 m 1
 167 278 l 1
 278 278 l 1
 278 222 l 1
 167 222 l 1
333 222 m 1
 333 278 l 1
 444 278 l 1
 444 222 l 1
 333 222 l 1
167 167 m 1
 167 222 l 1
 278 222 l 1
 278 167 l 1
 167 167 l 1
333 167 m 1
 333 222 l 1
 444 222 l 1
 444 167 l 1
 333 167 l 1
222 111 m 1
 222 167 l 1
 278 167 l 1
 278 111 l 1
 222 111 l 1
333 111 m 1
 333 167 l 1
 389 167 l 1
 389 111 l 1
 333 111 l 1
222 56 m 1
 222 111 l 1
 389 111 l 1
 389 56 l 1
 222 56 l 1
278 0 m 1
 278 56 l 1
 333 56 l 1
 333 0 l 1
 278 0 l 1
EndSplineSet
EndChar

StartChar: W
Encoding: 87 87 55
Width: 611
Flags: HW
LayerCount: 2
Back
Fore
SplineSet
0 556 m 1
 0 611 l 1
 222 611 l 1
 222 556 l 1
 0 556 l 1
389 556 m 1
 389 611 l 1
 611 611 l 1
 611 556 l 1
 389 556 l 1
56 500 m 1
 56 556 l 1
 167 556 l 1
 167 500 l 1
 56 500 l 1
444 500 m 1
 444 556 l 1
 556 556 l 1
 556 500 l 1
 444 500 l 1
56 444 m 1
 56 500 l 1
 167 500 l 1
 167 444 l 1
 56 444 l 1
444 444 m 1
 444 500 l 1
 556 500 l 1
 556 444 l 1
 444 444 l 1
56 389 m 1
 56 444 l 1
 167 444 l 1
 167 389 l 1
 56 389 l 1
278 389 m 1
 278 444 l 1
 333 444 l 1
 333 389 l 1
 278 389 l 1
444 389 m 1
 444 444 l 1
 556 444 l 1
 556 389 l 1
 444 389 l 1
56 333 m 1
 56 389 l 1
 167 389 l 1
 167 333 l 1
 56 333 l 1
278 333 m 1
 278 389 l 1
 333 389 l 1
 333 333 l 1
 278 333 l 1
444 333 m 1
 444 389 l 1
 556 389 l 1
 556 333 l 1
 444 333 l 1
56 278 m 1
 56 333 l 1
 167 333 l 1
 167 278 l 1
 56 278 l 1
222 278 m 1
 222 333 l 1
 389 333 l 1
 389 278 l 1
 222 278 l 1
444 278 m 1
 444 333 l 1
 556 333 l 1
 556 278 l 1
 444 278 l 1
56 222 m 1
 56 278 l 1
 167 278 l 1
 167 222 l 1
 56 222 l 1
222 222 m 1
 222 278 l 1
 278 278 l 1
 278 222 l 1
 222 222 l 1
333 222 m 1
 333 278 l 1
 389 278 l 1
 389 222 l 1
 333 222 l 1
444 222 m 1
 444 278 l 1
 556 278 l 1
 556 222 l 1
 444 222 l 1
111 167 m 1
 111 222 l 1
 167 222 l 1
 167 167 l 1
 111 167 l 1
222 167 m 1
 222 222 l 1
 278 222 l 1
 278 167 l 1
 222 167 l 1
333 167 m 1
 333 222 l 1
 389 222 l 1
 389 167 l 1
 333 167 l 1
444 167 m 1
 444 222 l 1
 500 222 l 1
 500 167 l 1
 444 167 l 1
111 111 m 1
 111 167 l 1
 278 167 l 1
 278 111 l 1
 111 111 l 1
333 111 m 1
 333 167 l 1
 500 167 l 1
 500 111 l 1
 333 111 l 1
111 56 m 1
 111 111 l 1
 222 111 l 1
 222 56 l 1
 111 56 l 1
389 56 m 1
 389 111 l 1
 500 111 l 1
 500 56 l 1
 389 56 l 1
111 0 m 1
 111 56 l 1
 222 56 l 1
 222 0 l 1
 111 0 l 1
389 0 m 1
 389 56 l 1
 500 56 l 1
 500 0 l 1
 389 0 l 1
EndSplineSet
EndChar

StartChar: X
Encoding: 88 88 56
Width: 611
Flags: HW
LayerCount: 2
Back
Fore
SplineSet
56 556 m 1
 56 611 l 1
 278 611 l 1
 278 556 l 1
 56 556 l 1
333 556 m 1
 333 611 l 1
 556 611 l 1
 556 556 l 1
 333 556 l 1
111 500 m 1
 111 556 l 1
 222 556 l 1
 222 500 l 1
 111 500 l 1
389 500 m 1
 389 556 l 1
 500 556 l 1
 500 500 l 1
 389 500 l 1
111 444 m 1
 111 500 l 1
 222 500 l 1
 222 444 l 1
 111 444 l 1
389 444 m 1
 389 500 l 1
 500 500 l 1
 500 444 l 1
 389 444 l 1
167 389 m 1
 167 444 l 1
 278 444 l 1
 278 389 l 1
 167 389 l 1
333 389 m 1
 333 444 l 1
 444 444 l 1
 444 389 l 1
 333 389 l 1
222 333 m 1
 222 389 l 1
 389 389 l 1
 389 333 l 1
 222 333 l 1
222 278 m 1
 222 333 l 1
 389 333 l 1
 389 278 l 1
 222 278 l 1
222 222 m 1
 222 278 l 1
 389 278 l 1
 389 222 l 1
 222 222 l 1
167 167 m 1
 167 222 l 1
 278 222 l 1
 278 167 l 1
 167 167 l 1
333 167 m 1
 333 222 l 1
 444 222 l 1
 444 167 l 1
 333 167 l 1
111 111 m 1
 111 167 l 1
 222 167 l 1
 222 111 l 1
 111 111 l 1
389 111 m 1
 389 167 l 1
 500 167 l 1
 500 111 l 1
 389 111 l 1
111 56 m 1
 111 111 l 1
 222 111 l 1
 222 56 l 1
 111 56 l 1
389 56 m 1
 389 111 l 1
 500 111 l 1
 500 56 l 1
 389 56 l 1
56 0 m 1
 56 56 l 1
 278 56 l 1
 278 0 l 1
 56 0 l 1
333 0 m 1
 333 56 l 1
 556 56 l 1
 556 0 l 1
 333 0 l 1
EndSplineSet
EndChar

StartChar: Y
Encoding: 89 89 57
Width: 611
Flags: HW
LayerCount: 2
Back
Fore
SplineSet
56 556 m 1
 56 611 l 1
 278 611 l 1
 278 556 l 1
 56 556 l 1
389 556 m 1
 389 611 l 1
 611 611 l 1
 611 556 l 1
 389 556 l 1
111 500 m 1
 111 556 l 1
 222 556 l 1
 222 500 l 1
 111 500 l 1
444 500 m 1
 444 556 l 1
 556 556 l 1
 556 500 l 1
 444 500 l 1
167 444 m 1
 167 500 l 1
 222 500 l 1
 222 444 l 1
 167 444 l 1
444 444 m 1
 444 500 l 1
 500 500 l 1
 500 444 l 1
 444 444 l 1
167 389 m 1
 167 444 l 1
 278 444 l 1
 278 389 l 1
 167 389 l 1
389 389 m 1
 389 444 l 1
 500 444 l 1
 500 389 l 1
 389 389 l 1
222 333 m 1
 222 389 l 1
 278 389 l 1
 278 333 l 1
 222 333 l 1
389 333 m 1
 389 389 l 1
 444 389 l 1
 444 333 l 1
 389 333 l 1
222 278 m 1
 222 333 l 1
 444 333 l 1
 444 278 l 1
 222 278 l 1
278 222 m 1
 278 278 l 1
 389 278 l 1
 389 222 l 1
 278 222 l 1
278 167 m 1
 278 222 l 1
 389 222 l 1
 389 167 l 1
 278 167 l 1
278 111 m 1
 278 167 l 1
 389 167 l 1
 389 111 l 1
 278 111 l 1
278 56 m 1
 278 111 l 1
 389 111 l 1
 389 56 l 1
 278 56 l 1
222 0 m 1
 222 56 l 1
 444 56 l 1
 444 0 l 1
 222 0 l 1
EndSplineSet
EndChar

StartChar: Z
Encoding: 90 90 58
Width: 611
Flags: HW
LayerCount: 2
Back
Fore
SplineSet
111 556 m 1
 111 611 l 1
 556 611 l 1
 556 556 l 1
 111 556 l 1
111 500 m 1
 111 556 l 1
 167 556 l 1
 167 500 l 1
 111 500 l 1
444 500 m 1
 444 556 l 1
 556 556 l 1
 556 500 l 1
 444 500 l 1
111 444 m 1
 111 500 l 1
 167 500 l 1
 167 444 l 1
 111 444 l 1
389 444 m 1
 389 500 l 1
 500 500 l 1
 500 444 l 1
 389 444 l 1
389 389 m 1
 389 444 l 1
 500 444 l 1
 500 389 l 1
 389 389 l 1
333 333 m 1
 333 389 l 1
 444 389 l 1
 444 333 l 1
 333 333 l 1
333 278 m 1
 333 333 l 1
 444 333 l 1
 444 278 l 1
 333 278 l 1
278 222 m 1
 278 278 l 1
 389 278 l 1
 389 222 l 1
 278 222 l 1
222 167 m 1
 222 222 l 1
 333 222 l 1
 333 167 l 1
 222 167 l 1
222 111 m 1
 222 167 l 1
 333 167 l 1
 333 111 l 1
 222 111 l 1
500 111 m 1
 500 167 l 1
 556 167 l 1
 556 111 l 1
 500 111 l 1
167 56 m 1
 167 111 l 1
 278 111 l 1
 278 56 l 1
 167 56 l 1
500 56 m 1
 500 111 l 1
 556 111 l 1
 556 56 l 1
 500 56 l 1
111 0 m 1
 111 56 l 1
 556 56 l 1
 556 0 l 1
 111 0 l 1
EndSplineSet
EndChar

StartChar: bracketleft
Encoding: 91 91 59
Width: 611
Flags: HW
LayerCount: 2
Back
Fore
SplineSet
222 611 m 1
 222 667 l 1
 444 667 l 1
 444 611 l 1
 222 611 l 1
222 556 m 1
 222 611 l 1
 333 611 l 1
 333 556 l 1
 222 556 l 1
222 500 m 1
 222 556 l 1
 333 556 l 1
 333 500 l 1
 222 500 l 1
222 444 m 1
 222 500 l 1
 333 500 l 1
 333 444 l 1
 222 444 l 1
222 389 m 1
 222 444 l 1
 333 444 l 1
 333 389 l 1
 222 389 l 1
222 333 m 1
 222 389 l 1
 333 389 l 1
 333 333 l 1
 222 333 l 1
222 278 m 1
 222 333 l 1
 333 333 l 1
 333 278 l 1
 222 278 l 1
222 222 m 1
 222 278 l 1
 333 278 l 1
 333 222 l 1
 222 222 l 1
222 167 m 1
 222 222 l 1
 333 222 l 1
 333 167 l 1
 222 167 l 1
222 111 m 1
 222 167 l 1
 333 167 l 1
 333 111 l 1
 222 111 l 1
222 56 m 1
 222 111 l 1
 333 111 l 1
 333 56 l 1
 222 56 l 1
222 0 m 1
 222 56 l 1
 333 56 l 1
 333 0 l 1
 222 0 l 1
222 -56 m 1
 222 0 l 1
 333 0 l 1
 333 -56 l 1
 222 -56 l 1
222 -111 m 1
 222 -56 l 1
 444 -56 l 1
 444 -111 l 1
 222 -111 l 1
EndSplineSet
EndChar

StartChar: backslash
Encoding: 92 92 60
Width: 611
Flags: HW
LayerCount: 2
Back
Fore
SplineSet
111 611 m 1
 111 667 l 1
 222 667 l 1
 222 611 l 1
 111 611 l 1
167 556 m 1
 167 611 l 1
 222 611 l 1
 222 556 l 1
 167 556 l 1
167 500 m 1
 167 556 l 1
 278 556 l 1
 278 500 l 1
 167 500 l 1
222 444 m 1
 222 500 l 1
 278 500 l 1
 278 444 l 1
 222 444 l 1
222 389 m 1
 222 444 l 1
 333 444 l 1
 333 389 l 1
 222 389 l 1
278 333 m 1
 278 389 l 1
 333 389 l 1
 333 333 l 1
 278 333 l 1
278 278 m 1
 278 333 l 1
 389 333 l 1
 389 278 l 1
 278 278 l 1
333 222 m 1
 333 278 l 1
 389 278 l 1
 389 222 l 1
 333 222 l 1
333 167 m 1
 333 222 l 1
 444 222 l 1
 444 167 l 1
 333 167 l 1
389 111 m 1
 389 167 l 1
 444 167 l 1
 444 111 l 1
 389 111 l 1
389 56 m 1
 389 111 l 1
 500 111 l 1
 500 56 l 1
 389 56 l 1
444 0 m 1
 444 56 l 1
 500 56 l 1
 500 0 l 1
 444 0 l 1
444 -56 m 1
 444 0 l 1
 556 0 l 1
 556 -56 l 1
 444 -56 l 1
EndSplineSet
EndChar

StartChar: bracketright
Encoding: 93 93 61
Width: 611
Flags: HW
LayerCount: 2
Back
Fore
SplineSet
167 611 m 1
 167 667 l 1
 389 667 l 1
 389 611 l 1
 167 611 l 1
278 556 m 1
 278 611 l 1
 389 611 l 1
 389 556 l 1
 278 556 l 1
278 500 m 1
 278 556 l 1
 389 556 l 1
 389 500 l 1
 278 500 l 1
278 444 m 1
 278 500 l 1
 389 500 l 1
 389 444 l 1
 278 444 l 1
278 389 m 1
 278 444 l 1
 389 444 l 1
 389 389 l 1
 278 389 l 1
278 333 m 1
 278 389 l 1
 389 389 l 1
 389 333 l 1
 278 333 l 1
278 278 m 1
 278 333 l 1
 389 333 l 1
 389 278 l 1
 278 278 l 1
278 222 m 1
 278 278 l 1
 389 278 l 1
 389 222 l 1
 278 222 l 1
278 167 m 1
 278 222 l 1
 389 222 l 1
 389 167 l 1
 278 167 l 1
278 111 m 1
 278 167 l 1
 389 167 l 1
 389 111 l 1
 278 111 l 1
278 56 m 1
 278 111 l 1
 389 111 l 1
 389 56 l 1
 278 56 l 1
278 0 m 1
 278 56 l 1
 389 56 l 1
 389 0 l 1
 278 0 l 1
278 -56 m 1
 278 0 l 1
 389 0 l 1
 389 -56 l 1
 278 -56 l 1
167 -111 m 1
 167 -56 l 1
 389 -56 l 1
 389 -111 l 1
 167 -111 l 1
EndSplineSet
EndChar

StartChar: asciicircum
Encoding: 94 94 62
Width: 611
Flags: HW
LayerCount: 2
Back
Fore
SplineSet
278 444 m 1
 278 500 l 1
 333 500 l 1
 333 444 l 1
 278 444 l 1
222 389 m 1
 222 444 l 1
 389 444 l 1
 389 389 l 1
 222 389 l 1
167 333 m 1
 167 389 l 1
 278 389 l 1
 278 333 l 1
 167 333 l 1
333 333 m 1
 333 389 l 1
 444 389 l 1
 444 333 l 1
 333 333 l 1
111 278 m 1
 111 333 l 1
 222 333 l 1
 222 278 l 1
 111 278 l 1
389 278 m 1
 389 333 l 1
 500 333 l 1
 500 278 l 1
 389 278 l 1
EndSplineSet
EndChar

StartChar: underscore
Encoding: 95 95 63
Width: 611
Flags: HW
LayerCount: 2
Back
Fore
SplineSet
56 56 m 1
 56 111 l 1
 611 111 l 1
 611 56 l 1
 56 56 l 1
56 0 m 1
 56 56 l 1
 611 56 l 1
 611 0 l 1
 56 0 l 1
EndSplineSet
EndChar

StartChar: a
Encoding: 97 97 65
Width: 611
Flags: HW
LayerCount: 2
Back
Fore
SplineSet
167 444 m 1
 167 500 l 1
 444 500 l 1
 444 444 l 1
 167 444 l 1
111 389 m 1
 111 444 l 1
 222 444 l 1
 222 389 l 1
 111 389 l 1
389 389 m 1
 389 444 l 1
 500 444 l 1
 500 389 l 1
 389 389 l 1
389 333 m 1
 389 389 l 1
 500 389 l 1
 500 333 l 1
 389 333 l 1
167 278 m 1
 167 333 l 1
 500 333 l 1
 500 278 l 1
 167 278 l 1
111 222 m 1
 111 278 l 1
 222 278 l 1
 222 222 l 1
 111 222 l 1
389 222 m 1
 389 278 l 1
 500 278 l 1
 500 222 l 1
 389 222 l 1
56 167 m 1
 56 222 l 1
 167 222 l 1
 167 167 l 1
 56 167 l 1
389 167 m 1
 389 222 l 1
 500 222 l 1
 500 167 l 1
 389 167 l 1
56 111 m 1
 56 167 l 1
 167 167 l 1
 167 111 l 1
 56 111 l 1
389 111 m 1
 389 167 l 1
 500 167 l 1
 500 111 l 1
 389 111 l 1
56 56 m 1
 56 111 l 1
 222 111 l 1
 222 56 l 1
 56 56 l 1
333 56 m 1
 333 111 l 1
 500 111 l 1
 500 56 l 1
 333 56 l 1
111 0 m 1
 111 56 l 1
 333 56 l 1
 333 0 l 1
 111 0 l 1
389 0 m 1
 389 56 l 1
 556 56 l 1
 556 0 l 1
 389 0 l 1
EndSplineSet
EndChar

StartChar: b
Encoding: 98 98 66
Width: 611
Flags: HW
LayerCount: 2
Back
Fore
SplineSet
56 611 m 1
 56 667 l 1
 222 667 l 1
 222 611 l 1
 56 611 l 1
111 556 m 1
 111 611 l 1
 222 611 l 1
 222 556 l 1
 111 556 l 1
111 500 m 1
 111 556 l 1
 222 556 l 1
 222 500 l 1
 111 500 l 1
111 444 m 1
 111 500 l 1
 222 500 l 1
 222 444 l 1
 111 444 l 1
278 444 m 1
 278 500 l 1
 444 500 l 1
 444 444 l 1
 278 444 l 1
111 389 m 1
 111 444 l 1
 278 444 l 1
 278 389 l 1
 111 389 l 1
389 389 m 1
 389 444 l 1
 500 444 l 1
 500 389 l 1
 389 389 l 1
111 333 m 1
 111 389 l 1
 222 389 l 1
 222 333 l 1
 111 333 l 1
444 333 m 1
 444 389 l 1
 556 389 l 1
 556 333 l 1
 444 333 l 1
111 278 m 1
 111 333 l 1
 222 333 l 1
 222 278 l 1
 111 278 l 1
444 278 m 1
 444 333 l 1
 556 333 l 1
 556 278 l 1
 444 278 l 1
111 222 m 1
 111 278 l 1
 222 278 l 1
 222 222 l 1
 111 222 l 1
444 222 m 1
 444 278 l 1
 556 278 l 1
 556 222 l 1
 444 222 l 1
111 167 m 1
 111 222 l 1
 222 222 l 1
 222 167 l 1
 111 167 l 1
444 167 m 1
 444 222 l 1
 556 222 l 1
 556 167 l 1
 444 167 l 1
111 111 m 1
 111 167 l 1
 222 167 l 1
 222 111 l 1
 111 111 l 1
444 111 m 1
 444 167 l 1
 556 167 l 1
 556 111 l 1
 444 111 l 1
111 56 m 1
 111 111 l 1
 278 111 l 1
 278 56 l 1
 111 56 l 1
389 56 m 1
 389 111 l 1
 500 111 l 1
 500 56 l 1
 389 56 l 1
56 0 m 1
 56 56 l 1
 222 56 l 1
 222 0 l 1
 56 0 l 1
278 0 m 1
 278 56 l 1
 444 56 l 1
 444 0 l 1
 278 0 l 1
EndSplineSet
EndChar

StartChar: c
Encoding: 99 99 67
Width: 611
Flags: HW
LayerCount: 2
Back
Fore
SplineSet
222 444 m 1
 222 500 l 1
 444 500 l 1
 444 444 l 1
 222 444 l 1
500 444 m 1
 500 500 l 1
 556 500 l 1
 556 444 l 1
 500 444 l 1
167 389 m 1
 167 444 l 1
 278 444 l 1
 278 389 l 1
 167 389 l 1
389 389 m 1
 389 444 l 1
 556 444 l 1
 556 389 l 1
 389 389 l 1
111 333 m 1
 111 389 l 1
 222 389 l 1
 222 333 l 1
 111 333 l 1
444 333 m 1
 444 389 l 1
 556 389 l 1
 556 333 l 1
 444 333 l 1
111 278 m 1
 111 333 l 1
 222 333 l 1
 222 278 l 1
 111 278 l 1
500 278 m 1
 500 333 l 1
 556 333 l 1
 556 278 l 1
 500 278 l 1
111 222 m 1
 111 278 l 1
 222 278 l 1
 222 222 l 1
 111 222 l 1
111 167 m 1
 111 222 l 1
 222 222 l 1
 222 167 l 1
 111 167 l 1
111 111 m 1
 111 167 l 1
 222 167 l 1
 222 111 l 1
 111 111 l 1
500 111 m 1
 500 167 l 1
 556 167 l 1
 556 111 l 1
 500 111 l 1
167 56 m 1
 167 111 l 1
 278 111 l 1
 278 56 l 1
 167 56 l 1
444 56 m 1
 444 111 l 1
 556 111 l 1
 556 56 l 1
 444 56 l 1
222 0 m 1
 222 56 l 1
 500 56 l 1
 500 0 l 1
 222 0 l 1
EndSplineSet
EndChar

StartChar: d
Encoding: 100 100 68
Width: 611
Flags: HW
LayerCount: 2
Back
Fore
SplineSet
278 611 m 1
 278 667 l 1
 500 667 l 1
 500 611 l 1
 278 611 l 1
389 556 m 1
 389 611 l 1
 500 611 l 1
 500 556 l 1
 389 556 l 1
389 500 m 1
 389 556 l 1
 500 556 l 1
 500 500 l 1
 389 500 l 1
167 444 m 1
 167 500 l 1
 333 500 l 1
 333 444 l 1
 167 444 l 1
389 444 m 1
 389 500 l 1
 500 500 l 1
 500 444 l 1
 389 444 l 1
111 389 m 1
 111 444 l 1
 222 444 l 1
 222 389 l 1
 111 389 l 1
333 389 m 1
 333 444 l 1
 500 444 l 1
 500 389 l 1
 333 389 l 1
56 333 m 1
 56 389 l 1
 167 389 l 1
 167 333 l 1
 56 333 l 1
389 333 m 1
 389 389 l 1
 500 389 l 1
 500 333 l 1
 389 333 l 1
56 278 m 1
 56 333 l 1
 167 333 l 1
 167 278 l 1
 56 278 l 1
389 278 m 1
 389 333 l 1
 500 333 l 1
 500 278 l 1
 389 278 l 1
56 222 m 1
 56 278 l 1
 167 278 l 1
 167 222 l 1
 56 222 l 1
389 222 m 1
 389 278 l 1
 500 278 l 1
 500 222 l 1
 389 222 l 1
56 167 m 1
 56 222 l 1
 167 222 l 1
 167 167 l 1
 56 167 l 1
389 167 m 1
 389 222 l 1
 500 222 l 1
 500 167 l 1
 389 167 l 1
56 111 m 1
 56 167 l 1
 167 167 l 1
 167 111 l 1
 56 111 l 1
389 111 m 1
 389 167 l 1
 500 167 l 1
 500 111 l 1
 389 111 l 1
111 56 m 1
 111 111 l 1
 222 111 l 1
 222 56 l 1
 111 56 l 1
333 56 m 1
 333 111 l 1
 500 111 l 1
 500 56 l 1
 333 56 l 1
167 0 m 1
 167 56 l 1
 333 56 l 1
 333 0 l 1
 167 0 l 1
389 0 m 1
 389 56 l 1
 556 56 l 1
 556 0 l 1
 389 0 l 1
EndSplineSet
EndChar

StartChar: e
Encoding: 101 101 69
Width: 611
Flags: HW
LayerCount: 2
Back
Fore
SplineSet
167 444 m 1
 167 500 l 1
 444 500 l 1
 444 444 l 1
 167 444 l 1
111 389 m 1
 111 444 l 1
 222 444 l 1
 222 389 l 1
 111 389 l 1
389 389 m 1
 389 444 l 1
 500 444 l 1
 500 389 l 1
 389 389 l 1
56 333 m 1
 56 389 l 1
 167 389 l 1
 167 333 l 1
 56 333 l 1
444 333 m 1
 444 389 l 1
 556 389 l 1
 556 333 l 1
 444 333 l 1
56 278 m 1
 56 333 l 1
 167 333 l 1
 167 278 l 1
 56 278 l 1
444 278 m 1
 444 333 l 1
 556 333 l 1
 556 278 l 1
 444 278 l 1
56 222 m 1
 56 278 l 1
 556 278 l 1
 556 222 l 1
 56 222 l 1
56 167 m 1
 56 222 l 1
 167 222 l 1
 167 167 l 1
 56 167 l 1
56 111 m 1
 56 167 l 1
 167 167 l 1
 167 111 l 1
 56 111 l 1
111 56 m 1
 111 111 l 1
 222 111 l 1
 222 56 l 1
 111 56 l 1
444 56 m 1
 444 111 l 1
 556 111 l 1
 556 56 l 1
 444 56 l 1
167 0 m 1
 167 56 l 1
 444 56 l 1
 444 0 l 1
 167 0 l 1
EndSplineSet
EndChar

StartChar: f
Encoding: 102 102 70
Width: 611
Flags: HW
LayerCount: 2
Back
Fore
SplineSet
222 611 m 1
 222 667 l 1
 556 667 l 1
 556 611 l 1
 222 611 l 1
167 556 m 1
 167 611 l 1
 278 611 l 1
 278 556 l 1
 167 556 l 1
167 500 m 1
 167 556 l 1
 278 556 l 1
 278 500 l 1
 167 500 l 1
56 444 m 1
 56 500 l 1
 500 500 l 1
 500 444 l 1
 56 444 l 1
167 389 m 1
 167 444 l 1
 278 444 l 1
 278 389 l 1
 167 389 l 1
167 333 m 1
 167 389 l 1
 278 389 l 1
 278 333 l 1
 167 333 l 1
167 278 m 1
 167 333 l 1
 278 333 l 1
 278 278 l 1
 167 278 l 1
167 222 m 1
 167 278 l 1
 278 278 l 1
 278 222 l 1
 167 222 l 1
167 167 m 1
 167 222 l 1
 278 222 l 1
 278 167 l 1
 167 167 l 1
167 111 m 1
 167 167 l 1
 278 167 l 1
 278 111 l 1
 167 111 l 1
167 56 m 1
 167 111 l 1
 278 111 l 1
 278 56 l 1
 167 56 l 1
56 0 m 1
 56 56 l 1
 444 56 l 1
 444 0 l 1
 56 0 l 1
EndSplineSet
EndChar

StartChar: g
Encoding: 103 103 71
Width: 611
Flags: HW
LayerCount: 2
Back
Fore
SplineSet
167 444 m 1
 167 500 l 1
 333 500 l 1
 333 444 l 1
 167 444 l 1
389 444 m 1
 389 500 l 1
 556 500 l 1
 556 444 l 1
 389 444 l 1
111 389 m 1
 111 444 l 1
 222 444 l 1
 222 389 l 1
 111 389 l 1
333 389 m 1
 333 444 l 1
 500 444 l 1
 500 389 l 1
 333 389 l 1
56 333 m 1
 56 389 l 1
 167 389 l 1
 167 333 l 1
 56 333 l 1
389 333 m 1
 389 389 l 1
 500 389 l 1
 500 333 l 1
 389 333 l 1
56 278 m 1
 56 333 l 1
 167 333 l 1
 167 278 l 1
 56 278 l 1
389 278 m 1
 389 333 l 1
 500 333 l 1
 500 278 l 1
 389 278 l 1
56 222 m 1
 56 278 l 1
 167 278 l 1
 167 222 l 1
 56 222 l 1
389 222 m 1
 389 278 l 1
 500 278 l 1
 500 222 l 1
 389 222 l 1
56 167 m 1
 56 222 l 1
 167 222 l 1
 167 167 l 1
 56 167 l 1
389 167 m 1
 389 222 l 1
 500 222 l 1
 500 167 l 1
 389 167 l 1
56 111 m 1
 56 167 l 1
 167 167 l 1
 167 111 l 1
 56 111 l 1
389 111 m 1
 389 167 l 1
 500 167 l 1
 500 111 l 1
 389 111 l 1
111 56 m 1
 111 111 l 1
 222 111 l 1
 222 56 l 1
 111 56 l 1
333 56 m 1
 333 111 l 1
 500 111 l 1
 500 56 l 1
 333 56 l 1
167 0 m 1
 167 56 l 1
 333 56 l 1
 333 0 l 1
 167 0 l 1
389 0 m 1
 389 56 l 1
 500 56 l 1
 500 0 l 1
 389 0 l 1
389 -56 m 1
 389 0 l 1
 500 0 l 1
 500 -56 l 1
 389 -56 l 1
389 -111 m 1
 389 -56 l 1
 500 -56 l 1
 500 -111 l 1
 389 -111 l 1
111 -167 m 1
 111 -111 l 1
 444 -111 l 1
 444 -167 l 1
 111 -167 l 1
EndSplineSet
EndChar

StartChar: h
Encoding: 104 104 72
Width: 611
Flags: HW
LayerCount: 2
Back
Fore
SplineSet
56 611 m 1
 56 667 l 1
 222 667 l 1
 222 611 l 1
 56 611 l 1
111 556 m 1
 111 611 l 1
 222 611 l 1
 222 556 l 1
 111 556 l 1
111 500 m 1
 111 556 l 1
 222 556 l 1
 222 500 l 1
 111 500 l 1
111 444 m 1
 111 500 l 1
 222 500 l 1
 222 444 l 1
 111 444 l 1
278 444 m 1
 278 500 l 1
 444 500 l 1
 444 444 l 1
 278 444 l 1
111 389 m 1
 111 444 l 1
 278 444 l 1
 278 389 l 1
 111 389 l 1
389 389 m 1
 389 444 l 1
 500 444 l 1
 500 389 l 1
 389 389 l 1
111 333 m 1
 111 389 l 1
 222 389 l 1
 222 333 l 1
 111 333 l 1
389 333 m 1
 389 389 l 1
 500 389 l 1
 500 333 l 1
 389 333 l 1
111 278 m 1
 111 333 l 1
 222 333 l 1
 222 278 l 1
 111 278 l 1
389 278 m 1
 389 333 l 1
 500 333 l 1
 500 278 l 1
 389 278 l 1
111 222 m 1
 111 278 l 1
 222 278 l 1
 222 222 l 1
 111 222 l 1
389 222 m 1
 389 278 l 1
 500 278 l 1
 500 222 l 1
 389 222 l 1
111 167 m 1
 111 222 l 1
 222 222 l 1
 222 167 l 1
 111 167 l 1
389 167 m 1
 389 222 l 1
 500 222 l 1
 500 167 l 1
 389 167 l 1
111 111 m 1
 111 167 l 1
 222 167 l 1
 222 111 l 1
 111 111 l 1
389 111 m 1
 389 167 l 1
 500 167 l 1
 500 111 l 1
 389 111 l 1
111 56 m 1
 111 111 l 1
 222 111 l 1
 222 56 l 1
 111 56 l 1
389 56 m 1
 389 111 l 1
 500 111 l 1
 500 56 l 1
 389 56 l 1
56 0 m 1
 56 56 l 1
 278 56 l 1
 278 0 l 1
 56 0 l 1
333 0 m 1
 333 56 l 1
 556 56 l 1
 556 0 l 1
 333 0 l 1
EndSplineSet
EndChar

StartChar: i
Encoding: 105 105 73
Width: 611
Flags: HW
LayerCount: 2
Back
Fore
SplineSet
278 667 m 1
 278 722 l 1
 389 722 l 1
 389 667 l 1
 278 667 l 1
278 611 m 1
 278 667 l 1
 389 667 l 1
 389 611 l 1
 278 611 l 1
167 444 m 1
 167 500 l 1
 389 500 l 1
 389 444 l 1
 167 444 l 1
278 389 m 1
 278 444 l 1
 389 444 l 1
 389 389 l 1
 278 389 l 1
278 333 m 1
 278 389 l 1
 389 389 l 1
 389 333 l 1
 278 333 l 1
278 278 m 1
 278 333 l 1
 389 333 l 1
 389 278 l 1
 278 278 l 1
278 222 m 1
 278 278 l 1
 389 278 l 1
 389 222 l 1
 278 222 l 1
278 167 m 1
 278 222 l 1
 389 222 l 1
 389 167 l 1
 278 167 l 1
278 111 m 1
 278 167 l 1
 389 167 l 1
 389 111 l 1
 278 111 l 1
278 56 m 1
 278 111 l 1
 389 111 l 1
 389 56 l 1
 278 56 l 1
111 0 m 1
 111 56 l 1
 556 56 l 1
 556 0 l 1
 111 0 l 1
EndSplineSet
EndChar

StartChar: j
Encoding: 106 106 74
Width: 611
Flags: HW
LayerCount: 2
Back
Fore
SplineSet
389 667 m 1
 389 722 l 1
 500 722 l 1
 500 667 l 1
 389 667 l 1
389 611 m 1
 389 667 l 1
 500 667 l 1
 500 611 l 1
 389 611 l 1
167 444 m 1
 167 500 l 1
 500 500 l 1
 500 444 l 1
 167 444 l 1
389 389 m 1
 389 444 l 1
 500 444 l 1
 500 389 l 1
 389 389 l 1
389 333 m 1
 389 389 l 1
 500 389 l 1
 500 333 l 1
 389 333 l 1
389 278 m 1
 389 333 l 1
 500 333 l 1
 500 278 l 1
 389 278 l 1
389 222 m 1
 389 278 l 1
 500 278 l 1
 500 222 l 1
 389 222 l 1
389 167 m 1
 389 222 l 1
 500 222 l 1
 500 167 l 1
 389 167 l 1
389 111 m 1
 389 167 l 1
 500 167 l 1
 500 111 l 1
 389 111 l 1
389 56 m 1
 389 111 l 1
 500 111 l 1
 500 56 l 1
 389 56 l 1
389 0 m 1
 389 56 l 1
 500 56 l 1
 500 0 l 1
 389 0 l 1
389 -56 m 1
 389 0 l 1
 500 0 l 1
 500 -56 l 1
 389 -56 l 1
389 -111 m 1
 389 -56 l 1
 500 -56 l 1
 500 -111 l 1
 389 -111 l 1
167 -167 m 1
 167 -111 l 1
 444 -111 l 1
 444 -167 l 1
 167 -167 l 1
EndSplineSet
EndChar

StartChar: k
Encoding: 107 107 75
Width: 611
Flags: HW
LayerCount: 2
Back
Fore
SplineSet
56 611 m 1
 56 667 l 1
 222 667 l 1
 222 611 l 1
 56 611 l 1
111 556 m 1
 111 611 l 1
 222 611 l 1
 222 556 l 1
 111 556 l 1
111 500 m 1
 111 556 l 1
 222 556 l 1
 222 500 l 1
 111 500 l 1
111 444 m 1
 111 500 l 1
 222 500 l 1
 222 444 l 1
 111 444 l 1
333 444 m 1
 333 500 l 1
 556 500 l 1
 556 444 l 1
 333 444 l 1
111 389 m 1
 111 444 l 1
 222 444 l 1
 222 389 l 1
 111 389 l 1
333 389 m 1
 333 444 l 1
 444 444 l 1
 444 389 l 1
 333 389 l 1
111 333 m 1
 111 389 l 1
 222 389 l 1
 222 333 l 1
 111 333 l 1
278 333 m 1
 278 389 l 1
 389 389 l 1
 389 333 l 1
 278 333 l 1
111 278 m 1
 111 333 l 1
 333 333 l 1
 333 278 l 1
 111 278 l 1
111 222 m 1
 111 278 l 1
 333 278 l 1
 333 222 l 1
 111 222 l 1
111 167 m 1
 111 222 l 1
 222 222 l 1
 222 167 l 1
 111 167 l 1
278 167 m 1
 278 222 l 1
 389 222 l 1
 389 167 l 1
 278 167 l 1
111 111 m 1
 111 167 l 1
 222 167 l 1
 222 111 l 1
 111 111 l 1
333 111 m 1
 333 167 l 1
 444 167 l 1
 444 111 l 1
 333 111 l 1
111 56 m 1
 111 111 l 1
 222 111 l 1
 222 56 l 1
 111 56 l 1
389 56 m 1
 389 111 l 1
 500 111 l 1
 500 56 l 1
 389 56 l 1
56 0 m 1
 56 56 l 1
 222 56 l 1
 222 0 l 1
 56 0 l 1
333 0 m 1
 333 56 l 1
 556 56 l 1
 556 0 l 1
 333 0 l 1
EndSplineSet
EndChar

StartChar: l
Encoding: 108 108 76
Width: 611
Flags: HW
LayerCount: 2
Back
Fore
SplineSet
56 611 m 1
 56 667 l 1
 333 667 l 1
 333 611 l 1
 56 611 l 1
222 556 m 1
 222 611 l 1
 333 611 l 1
 333 556 l 1
 222 556 l 1
222 500 m 1
 222 556 l 1
 333 556 l 1
 333 500 l 1
 222 500 l 1
222 444 m 1
 222 500 l 1
 333 500 l 1
 333 444 l 1
 222 444 l 1
222 389 m 1
 222 444 l 1
 333 444 l 1
 333 389 l 1
 222 389 l 1
222 333 m 1
 222 389 l 1
 333 389 l 1
 333 333 l 1
 222 333 l 1
222 278 m 1
 222 333 l 1
 333 333 l 1
 333 278 l 1
 222 278 l 1
222 222 m 1
 222 278 l 1
 333 278 l 1
 333 222 l 1
 222 222 l 1
222 167 m 1
 222 222 l 1
 333 222 l 1
 333 167 l 1
 222 167 l 1
222 111 m 1
 222 167 l 1
 333 167 l 1
 333 111 l 1
 222 111 l 1
222 56 m 1
 222 111 l 1
 333 111 l 1
 333 56 l 1
 222 56 l 1
56 0 m 1
 56 56 l 1
 500 56 l 1
 500 0 l 1
 56 0 l 1
EndSplineSet
EndChar

StartChar: m
Encoding: 109 109 77
Width: 611
Flags: HW
LayerCount: 2
Back
Fore
SplineSet
56 444 m 1
 56 500 l 1
 111 500 l 1
 111 444 l 1
 56 444 l 1
167 444 m 1
 167 500 l 1
 333 500 l 1
 333 444 l 1
 167 444 l 1
389 444 m 1
 389 500 l 1
 556 500 l 1
 556 444 l 1
 389 444 l 1
56 389 m 1
 56 444 l 1
 167 444 l 1
 167 389 l 1
 56 389 l 1
278 389 m 1
 278 444 l 1
 389 444 l 1
 389 389 l 1
 278 389 l 1
500 389 m 1
 500 444 l 1
 611 444 l 1
 611 389 l 1
 500 389 l 1
56 333 m 1
 56 389 l 1
 167 389 l 1
 167 333 l 1
 56 333 l 1
278 333 m 1
 278 389 l 1
 389 389 l 1
 389 333 l 1
 278 333 l 1
500 333 m 1
 500 389 l 1
 611 389 l 1
 611 333 l 1
 500 333 l 1
56 278 m 1
 56 333 l 1
 167 333 l 1
 167 278 l 1
 56 278 l 1
278 278 m 1
 278 333 l 1
 389 333 l 1
 389 278 l 1
 278 278 l 1
500 278 m 1
 500 333 l 1
 611 333 l 1
 611 278 l 1
 500 278 l 1
56 222 m 1
 56 278 l 1
 167 278 l 1
 167 222 l 1
 56 222 l 1
278 222 m 1
 278 278 l 1
 389 278 l 1
 389 222 l 1
 278 222 l 1
500 222 m 1
 500 278 l 1
 611 278 l 1
 611 222 l 1
 500 222 l 1
56 167 m 1
 56 222 l 1
 167 222 l 1
 167 167 l 1
 56 167 l 1
278 167 m 1
 278 222 l 1
 389 222 l 1
 389 167 l 1
 278 167 l 1
500 167 m 1
 500 222 l 1
 611 222 l 1
 611 167 l 1
 500 167 l 1
56 111 m 1
 56 167 l 1
 167 167 l 1
 167 111 l 1
 56 111 l 1
278 111 m 1
 278 167 l 1
 389 167 l 1
 389 111 l 1
 278 111 l 1
500 111 m 1
 500 167 l 1
 611 167 l 1
 611 111 l 1
 500 111 l 1
56 56 m 1
 56 111 l 1
 167 111 l 1
 167 56 l 1
 56 56 l 1
278 56 m 1
 278 111 l 1
 389 111 l 1
 389 56 l 1
 278 56 l 1
500 56 m 1
 500 111 l 1
 611 111 l 1
 611 56 l 1
 500 56 l 1
56 0 m 1
 56 56 l 1
 167 56 l 1
 167 0 l 1
 56 0 l 1
278 0 m 1
 278 56 l 1
 389 56 l 1
 389 0 l 1
 278 0 l 1
500 0 m 1
 500 56 l 1
 611 56 l 1
 611 0 l 1
 500 0 l 1
EndSplineSet
EndChar

StartChar: n
Encoding: 110 110 78
Width: 611
Flags: HW
LayerCount: 2
Back
Fore
SplineSet
56 444 m 1
 56 500 l 1
 222 500 l 1
 222 444 l 1
 56 444 l 1
278 444 m 1
 278 500 l 1
 444 500 l 1
 444 444 l 1
 278 444 l 1
111 389 m 1
 111 444 l 1
 278 444 l 1
 278 389 l 1
 111 389 l 1
389 389 m 1
 389 444 l 1
 500 444 l 1
 500 389 l 1
 389 389 l 1
111 333 m 1
 111 389 l 1
 222 389 l 1
 222 333 l 1
 111 333 l 1
389 333 m 1
 389 389 l 1
 500 389 l 1
 500 333 l 1
 389 333 l 1
111 278 m 1
 111 333 l 1
 222 333 l 1
 222 278 l 1
 111 278 l 1
389 278 m 1
 389 333 l 1
 500 333 l 1
 500 278 l 1
 389 278 l 1
111 222 m 1
 111 278 l 1
 222 278 l 1
 222 222 l 1
 111 222 l 1
389 222 m 1
 389 278 l 1
 500 278 l 1
 500 222 l 1
 389 222 l 1
111 167 m 1
 111 222 l 1
 222 222 l 1
 222 167 l 1
 111 167 l 1
389 167 m 1
 389 222 l 1
 500 222 l 1
 500 167 l 1
 389 167 l 1
111 111 m 1
 111 167 l 1
 222 167 l 1
 222 111 l 1
 111 111 l 1
389 111 m 1
 389 167 l 1
 500 167 l 1
 500 111 l 1
 389 111 l 1
111 56 m 1
 111 111 l 1
 222 111 l 1
 222 56 l 1
 111 56 l 1
389 56 m 1
 389 111 l 1
 500 111 l 1
 500 56 l 1
 389 56 l 1
56 0 m 1
 56 56 l 1
 278 56 l 1
 278 0 l 1
 56 0 l 1
333 0 m 1
 333 56 l 1
 556 56 l 1
 556 0 l 1
 333 0 l 1
EndSplineSet
EndChar

StartChar: o
Encoding: 111 111 79
Width: 611
Flags: HW
LayerCount: 2
Back
Fore
SplineSet
167 444 m 1
 167 500 l 1
 444 500 l 1
 444 444 l 1
 167 444 l 1
111 389 m 1
 111 444 l 1
 222 444 l 1
 222 389 l 1
 111 389 l 1
389 389 m 1
 389 444 l 1
 500 444 l 1
 500 389 l 1
 389 389 l 1
56 333 m 1
 56 389 l 1
 167 389 l 1
 167 333 l 1
 56 333 l 1
444 333 m 1
 444 389 l 1
 556 389 l 1
 556 333 l 1
 444 333 l 1
56 278 m 1
 56 333 l 1
 167 333 l 1
 167 278 l 1
 56 278 l 1
444 278 m 1
 444 333 l 1
 556 333 l 1
 556 278 l 1
 444 278 l 1
56 222 m 1
 56 278 l 1
 167 278 l 1
 167 222 l 1
 56 222 l 1
444 222 m 1
 444 278 l 1
 556 278 l 1
 556 222 l 1
 444 222 l 1
56 167 m 1
 56 222 l 1
 167 222 l 1
 167 167 l 1
 56 167 l 1
444 167 m 1
 444 222 l 1
 556 222 l 1
 556 167 l 1
 444 167 l 1
56 111 m 1
 56 167 l 1
 167 167 l 1
 167 111 l 1
 56 111 l 1
444 111 m 1
 444 167 l 1
 556 167 l 1
 556 111 l 1
 444 111 l 1
111 56 m 1
 111 111 l 1
 222 111 l 1
 222 56 l 1
 111 56 l 1
389 56 m 1
 389 111 l 1
 500 111 l 1
 500 56 l 1
 389 56 l 1
167 0 m 1
 167 56 l 1
 444 56 l 1
 444 0 l 1
 167 0 l 1
EndSplineSet
EndChar

StartChar: p
Encoding: 112 112 80
Width: 611
Flags: HW
LayerCount: 2
Back
Fore
SplineSet
56 444 m 1
 56 500 l 1
 222 500 l 1
 222 444 l 1
 56 444 l 1
278 444 m 1
 278 500 l 1
 444 500 l 1
 444 444 l 1
 278 444 l 1
111 389 m 1
 111 444 l 1
 278 444 l 1
 278 389 l 1
 111 389 l 1
389 389 m 1
 389 444 l 1
 500 444 l 1
 500 389 l 1
 389 389 l 1
111 333 m 1
 111 389 l 1
 222 389 l 1
 222 333 l 1
 111 333 l 1
444 333 m 1
 444 389 l 1
 556 389 l 1
 556 333 l 1
 444 333 l 1
111 278 m 1
 111 333 l 1
 222 333 l 1
 222 278 l 1
 111 278 l 1
444 278 m 1
 444 333 l 1
 556 333 l 1
 556 278 l 1
 444 278 l 1
111 222 m 1
 111 278 l 1
 222 278 l 1
 222 222 l 1
 111 222 l 1
444 222 m 1
 444 278 l 1
 556 278 l 1
 556 222 l 1
 444 222 l 1
111 167 m 1
 111 222 l 1
 222 222 l 1
 222 167 l 1
 111 167 l 1
444 167 m 1
 444 222 l 1
 556 222 l 1
 556 167 l 1
 444 167 l 1
111 111 m 1
 111 167 l 1
 222 167 l 1
 222 111 l 1
 111 111 l 1
444 111 m 1
 444 167 l 1
 556 167 l 1
 556 111 l 1
 444 111 l 1
111 56 m 1
 111 111 l 1
 278 111 l 1
 278 56 l 1
 111 56 l 1
389 56 m 1
 389 111 l 1
 500 111 l 1
 500 56 l 1
 389 56 l 1
111 0 m 1
 111 56 l 1
 222 56 l 1
 222 0 l 1
 111 0 l 1
278 0 m 1
 278 56 l 1
 444 56 l 1
 444 0 l 1
 278 0 l 1
111 -56 m 1
 111 0 l 1
 222 0 l 1
 222 -56 l 1
 111 -56 l 1
111 -111 m 1
 111 -56 l 1
 222 -56 l 1
 222 -111 l 1
 111 -111 l 1
56 -167 m 1
 56 -111 l 1
 333 -111 l 1
 333 -167 l 1
 56 -167 l 1
EndSplineSet
EndChar

StartChar: q
Encoding: 113 113 81
Width: 611
Flags: HW
LayerCount: 2
Back
Fore
SplineSet
167 444 m 1
 167 500 l 1
 333 500 l 1
 333 444 l 1
 167 444 l 1
389 444 m 1
 389 500 l 1
 556 500 l 1
 556 444 l 1
 389 444 l 1
111 389 m 1
 111 444 l 1
 222 444 l 1
 222 389 l 1
 111 389 l 1
333 389 m 1
 333 444 l 1
 500 444 l 1
 500 389 l 1
 333 389 l 1
56 333 m 1
 56 389 l 1
 167 389 l 1
 167 333 l 1
 56 333 l 1
389 333 m 1
 389 389 l 1
 500 389 l 1
 500 333 l 1
 389 333 l 1
56 278 m 1
 56 333 l 1
 167 333 l 1
 167 278 l 1
 56 278 l 1
389 278 m 1
 389 333 l 1
 500 333 l 1
 500 278 l 1
 389 278 l 1
56 222 m 1
 56 278 l 1
 167 278 l 1
 167 222 l 1
 56 222 l 1
389 222 m 1
 389 278 l 1
 500 278 l 1
 500 222 l 1
 389 222 l 1
56 167 m 1
 56 222 l 1
 167 222 l 1
 167 167 l 1
 56 167 l 1
389 167 m 1
 389 222 l 1
 500 222 l 1
 500 167 l 1
 389 167 l 1
56 111 m 1
 56 167 l 1
 167 167 l 1
 167 111 l 1
 56 111 l 1
389 111 m 1
 389 167 l 1
 500 167 l 1
 500 111 l 1
 389 111 l 1
111 56 m 1
 111 111 l 1
 222 111 l 1
 222 56 l 1
 111 56 l 1
333 56 m 1
 333 111 l 1
 500 111 l 1
 500 56 l 1
 333 56 l 1
167 0 m 1
 167 56 l 1
 333 56 l 1
 333 0 l 1
 167 0 l 1
389 0 m 1
 389 56 l 1
 500 56 l 1
 500 0 l 1
 389 0 l 1
389 -56 m 1
 389 0 l 1
 500 0 l 1
 500 -56 l 1
 389 -56 l 1
389 -111 m 1
 389 -56 l 1
 500 -56 l 1
 500 -111 l 1
 389 -111 l 1
278 -167 m 1
 278 -111 l 1
 556 -111 l 1
 556 -167 l 1
 278 -167 l 1
EndSplineSet
EndChar

StartChar: r
Encoding: 114 114 82
Width: 611
Flags: HW
LayerCount: 2
Back
Fore
SplineSet
56 444 m 1
 56 500 l 1
 278 500 l 1
 278 444 l 1
 56 444 l 1
389 444 m 1
 389 500 l 1
 556 500 l 1
 556 444 l 1
 389 444 l 1
167 389 m 1
 167 444 l 1
 389 444 l 1
 389 389 l 1
 167 389 l 1
444 389 m 1
 444 444 l 1
 556 444 l 1
 556 389 l 1
 444 389 l 1
167 333 m 1
 167 389 l 1
 278 389 l 1
 278 333 l 1
 167 333 l 1
167 278 m 1
 167 333 l 1
 278 333 l 1
 278 278 l 1
 167 278 l 1
167 222 m 1
 167 278 l 1
 278 278 l 1
 278 222 l 1
 167 222 l 1
167 167 m 1
 167 222 l 1
 278 222 l 1
 278 167 l 1
 167 167 l 1
167 111 m 1
 167 167 l 1
 278 167 l 1
 278 111 l 1
 167 111 l 1
167 56 m 1
 167 111 l 1
 278 111 l 1
 278 56 l 1
 167 56 l 1
56 0 m 1
 56 56 l 1
 444 56 l 1
 444 0 l 1
 56 0 l 1
EndSplineSet
EndChar

StartChar: s
Encoding: 115 115 83
Width: 611
Flags: HW
LayerCount: 2
Back
Fore
SplineSet
167 444 m 1
 167 500 l 1
 389 500 l 1
 389 444 l 1
 167 444 l 1
444 444 m 1
 444 500 l 1
 556 500 l 1
 556 444 l 1
 444 444 l 1
111 389 m 1
 111 444 l 1
 222 444 l 1
 222 389 l 1
 111 389 l 1
389 389 m 1
 389 444 l 1
 556 444 l 1
 556 389 l 1
 389 389 l 1
111 333 m 1
 111 389 l 1
 222 389 l 1
 222 333 l 1
 111 333 l 1
444 333 m 1
 444 389 l 1
 556 389 l 1
 556 333 l 1
 444 333 l 1
111 278 m 1
 111 333 l 1
 222 333 l 1
 222 278 l 1
 111 278 l 1
167 222 m 1
 167 278 l 1
 500 278 l 1
 500 222 l 1
 167 222 l 1
444 167 m 1
 444 222 l 1
 556 222 l 1
 556 167 l 1
 444 167 l 1
111 111 m 1
 111 167 l 1
 222 167 l 1
 222 111 l 1
 111 111 l 1
444 111 m 1
 444 167 l 1
 556 167 l 1
 556 111 l 1
 444 111 l 1
111 56 m 1
 111 111 l 1
 278 111 l 1
 278 56 l 1
 111 56 l 1
444 56 m 1
 444 111 l 1
 556 111 l 1
 556 56 l 1
 444 56 l 1
111 0 m 1
 111 56 l 1
 222 56 l 1
 222 0 l 1
 111 0 l 1
278 0 m 1
 278 56 l 1
 500 56 l 1
 500 0 l 1
 278 0 l 1
EndSplineSet
EndChar

StartChar: t
Encoding: 116 116 84
Width: 611
Flags: HW
LayerCount: 2
Back
Fore
SplineSet
167 611 m 1
 167 667 l 1
 278 667 l 1
 278 611 l 1
 167 611 l 1
167 556 m 1
 167 611 l 1
 278 611 l 1
 278 556 l 1
 167 556 l 1
167 500 m 1
 167 556 l 1
 278 556 l 1
 278 500 l 1
 167 500 l 1
56 444 m 1
 56 500 l 1
 500 500 l 1
 500 444 l 1
 56 444 l 1
167 389 m 1
 167 444 l 1
 278 444 l 1
 278 389 l 1
 167 389 l 1
167 333 m 1
 167 389 l 1
 278 389 l 1
 278 333 l 1
 167 333 l 1
167 278 m 1
 167 333 l 1
 278 333 l 1
 278 278 l 1
 167 278 l 1
167 222 m 1
 167 278 l 1
 278 278 l 1
 278 222 l 1
 167 222 l 1
167 167 m 1
 167 222 l 1
 278 222 l 1
 278 167 l 1
 167 167 l 1
167 111 m 1
 167 167 l 1
 278 167 l 1
 278 111 l 1
 167 111 l 1
167 56 m 1
 167 111 l 1
 278 111 l 1
 278 56 l 1
 167 56 l 1
444 56 m 1
 444 111 l 1
 556 111 l 1
 556 56 l 1
 444 56 l 1
222 0 m 1
 222 56 l 1
 444 56 l 1
 444 0 l 1
 222 0 l 1
EndSplineSet
EndChar

StartChar: u
Encoding: 117 117 85
Width: 611
Flags: HW
LayerCount: 2
Back
Fore
SplineSet
56 444 m 1
 56 500 l 1
 222 500 l 1
 222 444 l 1
 56 444 l 1
333 444 m 1
 333 500 l 1
 500 500 l 1
 500 444 l 1
 333 444 l 1
111 389 m 1
 111 444 l 1
 222 444 l 1
 222 389 l 1
 111 389 l 1
389 389 m 1
 389 444 l 1
 500 444 l 1
 500 389 l 1
 389 389 l 1
111 333 m 1
 111 389 l 1
 222 389 l 1
 222 333 l 1
 111 333 l 1
389 333 m 1
 389 389 l 1
 500 389 l 1
 500 333 l 1
 389 333 l 1
111 278 m 1
 111 333 l 1
 222 333 l 1
 222 278 l 1
 111 278 l 1
389 278 m 1
 389 333 l 1
 500 333 l 1
 500 278 l 1
 389 278 l 1
111 222 m 1
 111 278 l 1
 222 278 l 1
 222 222 l 1
 111 222 l 1
389 222 m 1
 389 278 l 1
 500 278 l 1
 500 222 l 1
 389 222 l 1
111 167 m 1
 111 222 l 1
 222 222 l 1
 222 167 l 1
 111 167 l 1
389 167 m 1
 389 222 l 1
 500 222 l 1
 500 167 l 1
 389 167 l 1
111 111 m 1
 111 167 l 1
 222 167 l 1
 222 111 l 1
 111 111 l 1
389 111 m 1
 389 167 l 1
 500 167 l 1
 500 111 l 1
 389 111 l 1
111 56 m 1
 111 111 l 1
 222 111 l 1
 222 56 l 1
 111 56 l 1
333 56 m 1
 333 111 l 1
 500 111 l 1
 500 56 l 1
 333 56 l 1
167 0 m 1
 167 56 l 1
 333 56 l 1
 333 0 l 1
 167 0 l 1
389 0 m 1
 389 56 l 1
 556 56 l 1
 556 0 l 1
 389 0 l 1
EndSplineSet
EndChar

StartChar: v
Encoding: 118 118 86
Width: 611
Flags: HW
LayerCount: 2
Back
Fore
SplineSet
56 444 m 1
 56 500 l 1
 278 500 l 1
 278 444 l 1
 56 444 l 1
389 444 m 1
 389 500 l 1
 611 500 l 1
 611 444 l 1
 389 444 l 1
111 389 m 1
 111 444 l 1
 222 444 l 1
 222 389 l 1
 111 389 l 1
444 389 m 1
 444 444 l 1
 556 444 l 1
 556 389 l 1
 444 389 l 1
167 333 m 1
 167 389 l 1
 222 389 l 1
 222 333 l 1
 167 333 l 1
444 333 m 1
 444 389 l 1
 500 389 l 1
 500 333 l 1
 444 333 l 1
167 278 m 1
 167 333 l 1
 278 333 l 1
 278 278 l 1
 167 278 l 1
389 278 m 1
 389 333 l 1
 500 333 l 1
 500 278 l 1
 389 278 l 1
167 222 m 1
 167 278 l 1
 278 278 l 1
 278 222 l 1
 167 222 l 1
389 222 m 1
 389 278 l 1
 500 278 l 1
 500 222 l 1
 389 222 l 1
222 167 m 1
 222 222 l 1
 278 222 l 1
 278 167 l 1
 222 167 l 1
389 167 m 1
 389 222 l 1
 444 222 l 1
 444 167 l 1
 389 167 l 1
222 111 m 1
 222 167 l 1
 444 167 l 1
 444 111 l 1
 222 111 l 1
278 56 m 1
 278 111 l 1
 389 111 l 1
 389 56 l 1
 278 56 l 1
278 0 m 1
 278 56 l 1
 389 56 l 1
 389 0 l 1
 278 0 l 1
EndSplineSet
EndChar

StartChar: w
Encoding: 119 119 87
Width: 611
Flags: HW
LayerCount: 2
Back
Fore
SplineSet
0 444 m 1
 0 500 l 1
 167 500 l 1
 167 444 l 1
 0 444 l 1
444 444 m 1
 444 500 l 1
 611 500 l 1
 611 444 l 1
 444 444 l 1
0 389 m 1
 0 444 l 1
 111 444 l 1
 111 389 l 1
 0 389 l 1
500 389 m 1
 500 444 l 1
 611 444 l 1
 611 389 l 1
 500 389 l 1
56 333 m 1
 56 389 l 1
 111 389 l 1
 111 333 l 1
 56 333 l 1
278 333 m 1
 278 389 l 1
 333 389 l 1
 333 333 l 1
 278 333 l 1
500 333 m 1
 500 389 l 1
 556 389 l 1
 556 333 l 1
 500 333 l 1
56 278 m 1
 56 333 l 1
 167 333 l 1
 167 278 l 1
 56 278 l 1
278 278 m 1
 278 333 l 1
 333 333 l 1
 333 278 l 1
 278 278 l 1
444 278 m 1
 444 333 l 1
 556 333 l 1
 556 278 l 1
 444 278 l 1
56 222 m 1
 56 278 l 1
 167 278 l 1
 167 222 l 1
 56 222 l 1
222 222 m 1
 222 278 l 1
 389 278 l 1
 389 222 l 1
 222 222 l 1
444 222 m 1
 444 278 l 1
 556 278 l 1
 556 222 l 1
 444 222 l 1
56 167 m 1
 56 222 l 1
 167 222 l 1
 167 167 l 1
 56 167 l 1
222 167 m 1
 222 222 l 1
 278 222 l 1
 278 167 l 1
 222 167 l 1
333 167 m 1
 333 222 l 1
 389 222 l 1
 389 167 l 1
 333 167 l 1
444 167 m 1
 444 222 l 1
 556 222 l 1
 556 167 l 1
 444 167 l 1
111 111 m 1
 111 167 l 1
 278 167 l 1
 278 111 l 1
 111 111 l 1
333 111 m 1
 333 167 l 1
 500 167 l 1
 500 111 l 1
 333 111 l 1
111 56 m 1
 111 111 l 1
 222 111 l 1
 222 56 l 1
 111 56 l 1
389 56 m 1
 389 111 l 1
 500 111 l 1
 500 56 l 1
 389 56 l 1
111 0 m 1
 111 56 l 1
 222 56 l 1
 222 0 l 1
 111 0 l 1
389 0 m 1
 389 56 l 1
 500 56 l 1
 500 0 l 1
 389 0 l 1
EndSplineSet
EndChar

StartChar: x
Encoding: 120 120 88
Width: 611
Flags: HW
LayerCount: 2
Back
Fore
SplineSet
56 444 m 1
 56 500 l 1
 278 500 l 1
 278 444 l 1
 56 444 l 1
333 444 m 1
 333 500 l 1
 556 500 l 1
 556 444 l 1
 333 444 l 1
111 389 m 1
 111 444 l 1
 222 444 l 1
 222 389 l 1
 111 389 l 1
389 389 m 1
 389 444 l 1
 500 444 l 1
 500 389 l 1
 389 389 l 1
167 333 m 1
 167 389 l 1
 278 389 l 1
 278 333 l 1
 167 333 l 1
333 333 m 1
 333 389 l 1
 444 389 l 1
 444 333 l 1
 333 333 l 1
222 278 m 1
 222 333 l 1
 278 333 l 1
 278 278 l 1
 222 278 l 1
333 278 m 1
 333 333 l 1
 389 333 l 1
 389 278 l 1
 333 278 l 1
222 222 m 1
 222 278 l 1
 389 278 l 1
 389 222 l 1
 222 222 l 1
167 167 m 1
 167 222 l 1
 278 222 l 1
 278 167 l 1
 167 167 l 1
333 167 m 1
 333 222 l 1
 444 222 l 1
 444 167 l 1
 333 167 l 1
167 111 m 1
 167 167 l 1
 222 167 l 1
 222 111 l 1
 167 111 l 1
389 111 m 1
 389 167 l 1
 444 167 l 1
 444 111 l 1
 389 111 l 1
111 56 m 1
 111 111 l 1
 222 111 l 1
 222 56 l 1
 111 56 l 1
389 56 m 1
 389 111 l 1
 500 111 l 1
 500 56 l 1
 389 56 l 1
56 0 m 1
 56 56 l 1
 278 56 l 1
 278 0 l 1
 56 0 l 1
333 0 m 1
 333 56 l 1
 556 56 l 1
 556 0 l 1
 333 0 l 1
EndSplineSet
EndChar

StartChar: y
Encoding: 121 121 89
Width: 611
Flags: HW
LayerCount: 2
Back
Fore
SplineSet
56 444 m 1
 56 500 l 1
 278 500 l 1
 278 444 l 1
 56 444 l 1
389 444 m 1
 389 500 l 1
 611 500 l 1
 611 444 l 1
 389 444 l 1
111 389 m 1
 111 444 l 1
 222 444 l 1
 222 389 l 1
 111 389 l 1
444 389 m 1
 444 444 l 1
 556 444 l 1
 556 389 l 1
 444 389 l 1
167 333 m 1
 167 389 l 1
 222 389 l 1
 222 333 l 1
 167 333 l 1
444 333 m 1
 444 389 l 1
 500 389 l 1
 500 333 l 1
 444 333 l 1
167 278 m 1
 167 333 l 1
 278 333 l 1
 278 278 l 1
 167 278 l 1
389 278 m 1
 389 333 l 1
 500 333 l 1
 500 278 l 1
 389 278 l 1
167 222 m 1
 167 278 l 1
 278 278 l 1
 278 222 l 1
 167 222 l 1
389 222 m 1
 389 278 l 1
 500 278 l 1
 500 222 l 1
 389 222 l 1
222 167 m 1
 222 222 l 1
 278 222 l 1
 278 167 l 1
 222 167 l 1
389 167 m 1
 389 222 l 1
 444 222 l 1
 444 167 l 1
 389 167 l 1
222 111 m 1
 222 167 l 1
 444 167 l 1
 444 111 l 1
 222 111 l 1
278 56 m 1
 278 111 l 1
 389 111 l 1
 389 56 l 1
 278 56 l 1
278 0 m 1
 278 56 l 1
 389 56 l 1
 389 0 l 1
 278 0 l 1
278 -56 m 1
 278 0 l 1
 333 0 l 1
 333 -56 l 1
 278 -56 l 1
222 -111 m 1
 222 -56 l 1
 333 -56 l 1
 333 -111 l 1
 222 -111 l 1
111 -167 m 1
 111 -111 l 1
 389 -111 l 1
 389 -167 l 1
 111 -167 l 1
EndSplineSet
EndChar

StartChar: z
Encoding: 122 122 90
Width: 611
Flags: HW
LayerCount: 2
Back
Fore
SplineSet
111 444 m 1
 111 500 l 1
 500 500 l 1
 500 444 l 1
 111 444 l 1
111 389 m 1
 111 444 l 1
 167 444 l 1
 167 389 l 1
 111 389 l 1
389 389 m 1
 389 444 l 1
 500 444 l 1
 500 389 l 1
 389 389 l 1
111 333 m 1
 111 389 l 1
 167 389 l 1
 167 333 l 1
 111 333 l 1
333 333 m 1
 333 389 l 1
 444 389 l 1
 444 333 l 1
 333 333 l 1
278 278 m 1
 278 333 l 1
 389 333 l 1
 389 278 l 1
 278 278 l 1
278 222 m 1
 278 278 l 1
 333 278 l 1
 333 222 l 1
 278 222 l 1
222 167 m 1
 222 222 l 1
 333 222 l 1
 333 167 l 1
 222 167 l 1
167 111 m 1
 167 167 l 1
 278 167 l 1
 278 111 l 1
 167 111 l 1
444 111 m 1
 444 167 l 1
 500 167 l 1
 500 111 l 1
 444 111 l 1
111 56 m 1
 111 111 l 1
 222 111 l 1
 222 56 l 1
 111 56 l 1
444 56 m 1
 444 111 l 1
 500 111 l 1
 500 56 l 1
 444 56 l 1
111 0 m 1
 111 56 l 1
 500 56 l 1
 500 0 l 1
 111 0 l 1
EndSplineSet
EndChar

StartChar: braceleft
Encoding: 123 123 91
Width: 611
Flags: HW
LayerCount: 2
Back
Fore
SplineSet
333 667 m 1
 333 722 l 1
 500 722 l 1
 500 667 l 1
 333 667 l 1
278 611 m 1
 278 667 l 1
 389 667 l 1
 389 611 l 1
 278 611 l 1
278 556 m 1
 278 611 l 1
 389 611 l 1
 389 556 l 1
 278 556 l 1
278 500 m 1
 278 556 l 1
 389 556 l 1
 389 500 l 1
 278 500 l 1
278 444 m 1
 278 500 l 1
 389 500 l 1
 389 444 l 1
 278 444 l 1
278 389 m 1
 278 444 l 1
 389 444 l 1
 389 389 l 1
 278 389 l 1
222 333 m 1
 222 389 l 1
 333 389 l 1
 333 333 l 1
 222 333 l 1
167 278 m 1
 167 333 l 1
 278 333 l 1
 278 278 l 1
 167 278 l 1
222 222 m 1
 222 278 l 1
 333 278 l 1
 333 222 l 1
 222 222 l 1
278 167 m 1
 278 222 l 1
 389 222 l 1
 389 167 l 1
 278 167 l 1
278 111 m 1
 278 167 l 1
 389 167 l 1
 389 111 l 1
 278 111 l 1
278 56 m 1
 278 111 l 1
 389 111 l 1
 389 56 l 1
 278 56 l 1
278 0 m 1
 278 56 l 1
 389 56 l 1
 389 0 l 1
 278 0 l 1
278 -56 m 1
 278 0 l 1
 389 0 l 1
 389 -56 l 1
 278 -56 l 1
333 -111 m 1
 333 -56 l 1
 500 -56 l 1
 500 -111 l 1
 333 -111 l 1
EndSplineSet
EndChar

StartChar: bar
Encoding: 124 124 92
Width: 611
Flags: HW
LayerCount: 2
Back
Fore
SplineSet
278 722 m 1
 278 778 l 1
 389 778 l 1
 389 722 l 1
 278 722 l 1
278 667 m 1
 278 722 l 1
 389 722 l 1
 389 667 l 1
 278 667 l 1
278 611 m 1
 278 667 l 1
 389 667 l 1
 389 611 l 1
 278 611 l 1
278 556 m 1
 278 611 l 1
 389 611 l 1
 389 556 l 1
 278 556 l 1
278 500 m 1
 278 556 l 1
 389 556 l 1
 389 500 l 1
 278 500 l 1
278 444 m 1
 278 500 l 1
 389 500 l 1
 389 444 l 1
 278 444 l 1
278 389 m 1
 278 444 l 1
 389 444 l 1
 389 389 l 1
 278 389 l 1
278 333 m 1
 278 389 l 1
 389 389 l 1
 389 333 l 1
 278 333 l 1
278 278 m 1
 278 333 l 1
 389 333 l 1
 389 278 l 1
 278 278 l 1
278 222 m 1
 278 278 l 1
 389 278 l 1
 389 222 l 1
 278 222 l 1
278 167 m 1
 278 222 l 1
 389 222 l 1
 389 167 l 1
 278 167 l 1
278 111 m 1
 278 167 l 1
 389 167 l 1
 389 111 l 1
 278 111 l 1
278 56 m 1
 278 111 l 1
 389 111 l 1
 389 56 l 1
 278 56 l 1
278 0 m 1
 278 56 l 1
 389 56 l 1
 389 0 l 1
 278 0 l 1
278 -56 m 1
 278 0 l 1
 389 0 l 1
 389 -56 l 1
 278 -56 l 1
278 -111 m 1
 278 -56 l 1
 389 -56 l 1
 389 -111 l 1
 278 -111 l 1
278 -167 m 1
 278 -111 l 1
 389 -111 l 1
 389 -167 l 1
 278 -167 l 1
278 -222 m 1
 278 -167 l 1
 389 -167 l 1
 389 -222 l 1
 278 -222 l 1
EndSplineSet
EndChar

StartChar: braceright
Encoding: 125 125 93
Width: 611
Flags: HW
LayerCount: 2
Back
Fore
SplineSet
167 667 m 1
 167 722 l 1
 333 722 l 1
 333 667 l 1
 167 667 l 1
278 611 m 1
 278 667 l 1
 389 667 l 1
 389 611 l 1
 278 611 l 1
278 556 m 1
 278 611 l 1
 389 611 l 1
 389 556 l 1
 278 556 l 1
278 500 m 1
 278 556 l 1
 389 556 l 1
 389 500 l 1
 278 500 l 1
278 444 m 1
 278 500 l 1
 389 500 l 1
 389 444 l 1
 278 444 l 1
278 389 m 1
 278 444 l 1
 389 444 l 1
 389 389 l 1
 278 389 l 1
333 333 m 1
 333 389 l 1
 444 389 l 1
 444 333 l 1
 333 333 l 1
389 278 m 1
 389 333 l 1
 500 333 l 1
 500 278 l 1
 389 278 l 1
333 222 m 1
 333 278 l 1
 444 278 l 1
 444 222 l 1
 333 222 l 1
278 167 m 1
 278 222 l 1
 389 222 l 1
 389 167 l 1
 278 167 l 1
278 111 m 1
 278 167 l 1
 389 167 l 1
 389 111 l 1
 278 111 l 1
278 56 m 1
 278 111 l 1
 389 111 l 1
 389 56 l 1
 278 56 l 1
278 0 m 1
 278 56 l 1
 389 56 l 1
 389 0 l 1
 278 0 l 1
278 -56 m 1
 278 0 l 1
 389 0 l 1
 389 -56 l 1
 278 -56 l 1
167 -111 m 1
 167 -56 l 1
 333 -56 l 1
 333 -111 l 1
 167 -111 l 1
EndSplineSet
EndChar

StartChar: asciitilde
Encoding: 126 126 94
Width: 611
Flags: HW
LayerCount: 2
Back
Fore
SplineSet
167 444 m 1
 167 500 l 1
 278 500 l 1
 278 444 l 1
 167 444 l 1
444 444 m 1
 444 500 l 1
 500 500 l 1
 500 444 l 1
 444 444 l 1
111 389 m 1
 111 444 l 1
 167 444 l 1
 167 389 l 1
 111 389 l 1
222 389 m 1
 222 444 l 1
 389 444 l 1
 389 389 l 1
 222 389 l 1
444 389 m 1
 444 444 l 1
 500 444 l 1
 500 389 l 1
 444 389 l 1
111 333 m 1
 111 389 l 1
 167 389 l 1
 167 333 l 1
 111 333 l 1
333 333 m 1
 333 389 l 1
 444 389 l 1
 444 333 l 1
 333 333 l 1
EndSplineSet
EndChar

StartChar: Error
Encoding: 159 159 98
Width: 611
Flags: HW
LayerCount: 2
Back
Fore
SplineSet
222 778 m 1
 222 833 l 1
 500 833 l 1
 500 778 l 1
 222 778 l 1
111 722 m 1
 111 778 l 1
 556 778 l 1
 556 722 l 1
 111 722 l 1
111 667 m 1
 111 722 l 1
 278 722 l 1
 278 667 l 1
 111 667 l 1
389 667 m 1
 389 722 l 1
 556 722 l 1
 556 667 l 1
 389 667 l 1
56 611 m 1
 56 667 l 1
 222 667 l 1
 222 611 l 1
 56 611 l 1
444 611 m 1
 444 667 l 1
 611 667 l 1
 611 611 l 1
 444 611 l 1
56 556 m 1
 56 611 l 1
 222 611 l 1
 222 556 l 1
 56 556 l 1
444 556 m 1
 444 611 l 1
 611 611 l 1
 611 556 l 1
 444 556 l 1
56 500 m 1
 56 556 l 1
 222 556 l 1
 222 500 l 1
 56 500 l 1
444 500 m 1
 444 556 l 1
 611 556 l 1
 611 500 l 1
 444 500 l 1
111 444 m 1
 111 500 l 1
 278 500 l 1
 278 444 l 1
 111 444 l 1
111 389 m 1
 111 444 l 1
 333 444 l 1
 333 389 l 1
 111 389 l 1
167 333 m 1
 167 389 l 1
 389 389 l 1
 389 333 l 1
 167 333 l 1
222 278 m 1
 222 333 l 1
 389 333 l 1
 389 278 l 1
 222 278 l 1
278 222 m 1
 278 278 l 1
 444 278 l 1
 444 222 l 1
 278 222 l 1
278 167 m 1
 278 222 l 1
 444 222 l 1
 444 167 l 1
 278 167 l 1
278 111 m 1
 278 167 l 1
 444 167 l 1
 444 111 l 1
 278 111 l 1
278 -56 m 1
 278 0 l 1
 444 0 l 1
 444 -56 l 1
 278 -56 l 1
278 -111 m 1
 278 -56 l 1
 444 -56 l 1
 444 -111 l 1
 278 -111 l 1
278 -167 m 1
 278 -111 l 1
 444 -111 l 1
 444 -167 l 1
 278 -167 l 1
EndSplineSet
EndChar

StartChar: exclamdown
Encoding: 161 161 100
Width: 611
Flags: HW
LayerCount: 2
Back
Fore
SplineSet
278 556 m 1
 278 611 l 1
 389 611 l 1
 389 556 l 1
 278 556 l 1
222 500 m 1
 222 556 l 1
 444 556 l 1
 444 500 l 1
 222 500 l 1
278 444 m 1
 278 500 l 1
 389 500 l 1
 389 444 l 1
 278 444 l 1
278 333 m 1
 278 389 l 1
 389 389 l 1
 389 333 l 1
 278 333 l 1
278 278 m 1
 278 333 l 1
 389 333 l 1
 389 278 l 1
 278 278 l 1
278 222 m 1
 278 278 l 1
 389 278 l 1
 389 222 l 1
 278 222 l 1
278 167 m 1
 278 222 l 1
 389 222 l 1
 389 167 l 1
 278 167 l 1
278 111 m 1
 278 167 l 1
 389 167 l 1
 389 111 l 1
 278 111 l 1
278 56 m 1
 278 111 l 1
 389 111 l 1
 389 56 l 1
 278 56 l 1
278 0 m 1
 278 56 l 1
 389 56 l 1
 389 0 l 1
 278 0 l 1
278 -56 m 1
 278 0 l 1
 389 0 l 1
 389 -56 l 1
 278 -56 l 1
EndSplineSet
EndChar

StartChar: cent
Encoding: 162 162 101
Width: 611
Flags: HW
LayerCount: 2
Back
Fore
SplineSet
333 611 m 1
 333 667 l 1
 389 667 l 1
 389 611 l 1
 333 611 l 1
333 556 m 1
 333 611 l 1
 389 611 l 1
 389 556 l 1
 333 556 l 1
333 500 m 1
 333 556 l 1
 389 556 l 1
 389 500 l 1
 333 500 l 1
222 444 m 1
 222 500 l 1
 556 500 l 1
 556 444 l 1
 222 444 l 1
167 389 m 1
 167 444 l 1
 278 444 l 1
 278 389 l 1
 167 389 l 1
444 389 m 1
 444 444 l 1
 556 444 l 1
 556 389 l 1
 444 389 l 1
111 333 m 1
 111 389 l 1
 222 389 l 1
 222 333 l 1
 111 333 l 1
500 333 m 1
 500 389 l 1
 556 389 l 1
 556 333 l 1
 500 333 l 1
111 278 m 1
 111 333 l 1
 222 333 l 1
 222 278 l 1
 111 278 l 1
111 222 m 1
 111 278 l 1
 222 278 l 1
 222 222 l 1
 111 222 l 1
111 167 m 1
 111 222 l 1
 222 222 l 1
 222 167 l 1
 111 167 l 1
167 111 m 1
 167 167 l 1
 278 167 l 1
 278 111 l 1
 167 111 l 1
444 111 m 1
 444 167 l 1
 556 167 l 1
 556 111 l 1
 444 111 l 1
222 56 m 1
 222 111 l 1
 500 111 l 1
 500 56 l 1
 222 56 l 1
278 0 m 1
 278 56 l 1
 333 56 l 1
 333 0 l 1
 278 0 l 1
278 -56 m 1
 278 0 l 1
 333 0 l 1
 333 -56 l 1
 278 -56 l 1
EndSplineSet
EndChar

StartChar: sterling
Encoding: 163 163 102
Width: 611
Flags: HW
LayerCount: 2
Back
Fore
SplineSet
222 556 m 1
 222 611 l 1
 556 611 l 1
 556 556 l 1
 222 556 l 1
167 500 m 1
 167 556 l 1
 278 556 l 1
 278 500 l 1
 167 500 l 1
444 500 m 1
 444 556 l 1
 556 556 l 1
 556 500 l 1
 444 500 l 1
167 444 m 1
 167 500 l 1
 278 500 l 1
 278 444 l 1
 167 444 l 1
500 444 m 1
 500 500 l 1
 556 500 l 1
 556 444 l 1
 500 444 l 1
167 389 m 1
 167 444 l 1
 278 444 l 1
 278 389 l 1
 167 389 l 1
222 333 m 1
 222 389 l 1
 333 389 l 1
 333 333 l 1
 222 333 l 1
111 278 m 1
 111 333 l 1
 500 333 l 1
 500 278 l 1
 111 278 l 1
222 222 m 1
 222 278 l 1
 333 278 l 1
 333 222 l 1
 222 222 l 1
222 167 m 1
 222 222 l 1
 333 222 l 1
 333 167 l 1
 222 167 l 1
167 111 m 1
 167 167 l 1
 278 167 l 1
 278 111 l 1
 167 111 l 1
111 56 m 1
 111 111 l 1
 389 111 l 1
 389 56 l 1
 111 56 l 1
500 56 m 1
 500 111 l 1
 556 111 l 1
 556 56 l 1
 500 56 l 1
111 0 m 1
 111 56 l 1
 167 56 l 1
 167 0 l 1
 111 0 l 1
333 0 m 1
 333 56 l 1
 556 56 l 1
 556 0 l 1
 333 0 l 1
EndSplineSet
EndChar

StartChar: currency
Encoding: 164 164 103
Width: 611
Flags: HW
LayerCount: 2
Back
Fore
SplineSet
56 444 m 1
 56 500 l 1
 167 500 l 1
 167 444 l 1
 56 444 l 1
500 444 m 1
 500 500 l 1
 611 500 l 1
 611 444 l 1
 500 444 l 1
111 389 m 1
 111 444 l 1
 556 444 l 1
 556 389 l 1
 111 389 l 1
167 333 m 1
 167 389 l 1
 278 389 l 1
 278 333 l 1
 167 333 l 1
389 333 m 1
 389 389 l 1
 500 389 l 1
 500 333 l 1
 389 333 l 1
167 278 m 1
 167 333 l 1
 222 333 l 1
 222 278 l 1
 167 278 l 1
444 278 m 1
 444 333 l 1
 500 333 l 1
 500 278 l 1
 444 278 l 1
167 222 m 1
 167 278 l 1
 222 278 l 1
 222 222 l 1
 167 222 l 1
444 222 m 1
 444 278 l 1
 500 278 l 1
 500 222 l 1
 444 222 l 1
167 167 m 1
 167 222 l 1
 278 222 l 1
 278 167 l 1
 167 167 l 1
389 167 m 1
 389 222 l 1
 500 222 l 1
 500 167 l 1
 389 167 l 1
111 111 m 1
 111 167 l 1
 556 167 l 1
 556 111 l 1
 111 111 l 1
56 56 m 1
 56 111 l 1
 167 111 l 1
 167 56 l 1
 56 56 l 1
500 56 m 1
 500 111 l 1
 611 111 l 1
 611 56 l 1
 500 56 l 1
EndSplineSet
EndChar

StartChar: yen
Encoding: 165 165 104
Width: 611
Flags: HW
LayerCount: 2
Back
Fore
SplineSet
56 556 m 1
 56 611 l 1
 278 611 l 1
 278 556 l 1
 56 556 l 1
389 556 m 1
 389 611 l 1
 611 611 l 1
 611 556 l 1
 389 556 l 1
111 500 m 1
 111 556 l 1
 222 556 l 1
 222 500 l 1
 111 500 l 1
444 500 m 1
 444 556 l 1
 556 556 l 1
 556 500 l 1
 444 500 l 1
167 444 m 1
 167 500 l 1
 222 500 l 1
 222 444 l 1
 167 444 l 1
444 444 m 1
 444 500 l 1
 500 500 l 1
 500 444 l 1
 444 444 l 1
56 389 m 1
 56 444 l 1
 278 444 l 1
 278 389 l 1
 56 389 l 1
389 389 m 1
 389 444 l 1
 611 444 l 1
 611 389 l 1
 389 389 l 1
222 333 m 1
 222 389 l 1
 278 389 l 1
 278 333 l 1
 222 333 l 1
389 333 m 1
 389 389 l 1
 444 389 l 1
 444 333 l 1
 389 333 l 1
222 278 m 1
 222 333 l 1
 444 333 l 1
 444 278 l 1
 222 278 l 1
56 222 m 1
 56 278 l 1
 611 278 l 1
 611 222 l 1
 56 222 l 1
278 167 m 1
 278 222 l 1
 389 222 l 1
 389 167 l 1
 278 167 l 1
278 111 m 1
 278 167 l 1
 389 167 l 1
 389 111 l 1
 278 111 l 1
278 56 m 1
 278 111 l 1
 389 111 l 1
 389 56 l 1
 278 56 l 1
167 0 m 1
 167 56 l 1
 500 56 l 1
 500 0 l 1
 167 0 l 1
EndSplineSet
EndChar

StartChar: brokenbar
Encoding: 166 166 105
Width: 611
Flags: HW
LayerCount: 2
Back
Fore
SplineSet
278 667 m 1
 278 722 l 1
 389 722 l 1
 389 667 l 1
 278 667 l 1
278 611 m 1
 278 667 l 1
 389 667 l 1
 389 611 l 1
 278 611 l 1
278 556 m 1
 278 611 l 1
 389 611 l 1
 389 556 l 1
 278 556 l 1
278 500 m 1
 278 556 l 1
 389 556 l 1
 389 500 l 1
 278 500 l 1
278 444 m 1
 278 500 l 1
 389 500 l 1
 389 444 l 1
 278 444 l 1
278 389 m 1
 278 444 l 1
 389 444 l 1
 389 389 l 1
 278 389 l 1
278 333 m 1
 278 389 l 1
 389 389 l 1
 389 333 l 1
 278 333 l 1
278 111 m 1
 278 167 l 1
 389 167 l 1
 389 111 l 1
 278 111 l 1
278 56 m 1
 278 111 l 1
 389 111 l 1
 389 56 l 1
 278 56 l 1
278 0 m 1
 278 56 l 1
 389 56 l 1
 389 0 l 1
 278 0 l 1
278 -56 m 1
 278 0 l 1
 389 0 l 1
 389 -56 l 1
 278 -56 l 1
278 -111 m 1
 278 -56 l 1
 389 -56 l 1
 389 -111 l 1
 278 -111 l 1
278 -167 m 1
 278 -111 l 1
 389 -111 l 1
 389 -167 l 1
 278 -167 l 1
278 -222 m 1
 278 -167 l 1
 389 -167 l 1
 389 -222 l 1
 278 -222 l 1
EndSplineSet
EndChar

StartChar: section
Encoding: 167 167 106
Width: 611
Flags: HW
LayerCount: 2
Back
Fore
SplineSet
167 556 m 1
 167 611 l 1
 500 611 l 1
 500 556 l 1
 167 556 l 1
111 500 m 1
 111 556 l 1
 222 556 l 1
 222 500 l 1
 111 500 l 1
389 500 m 1
 389 556 l 1
 500 556 l 1
 500 500 l 1
 389 500 l 1
111 444 m 1
 111 500 l 1
 222 500 l 1
 222 444 l 1
 111 444 l 1
389 444 m 1
 389 500 l 1
 500 500 l 1
 500 444 l 1
 389 444 l 1
56 389 m 1
 56 444 l 1
 278 444 l 1
 278 389 l 1
 56 389 l 1
56 333 m 1
 56 389 l 1
 111 389 l 1
 111 333 l 1
 56 333 l 1
222 333 m 1
 222 389 l 1
 333 389 l 1
 333 333 l 1
 222 333 l 1
56 278 m 1
 56 333 l 1
 167 333 l 1
 167 278 l 1
 56 278 l 1
278 278 m 1
 278 333 l 1
 444 333 l 1
 444 278 l 1
 278 278 l 1
111 222 m 1
 111 278 l 1
 222 278 l 1
 222 222 l 1
 111 222 l 1
389 222 m 1
 389 278 l 1
 500 278 l 1
 500 222 l 1
 389 222 l 1
167 167 m 1
 167 222 l 1
 278 222 l 1
 278 167 l 1
 167 167 l 1
444 167 m 1
 444 222 l 1
 556 222 l 1
 556 167 l 1
 444 167 l 1
222 111 m 1
 222 167 l 1
 389 167 l 1
 389 111 l 1
 222 111 l 1
500 111 m 1
 500 167 l 1
 556 167 l 1
 556 111 l 1
 500 111 l 1
333 56 m 1
 333 111 l 1
 556 111 l 1
 556 56 l 1
 333 56 l 1
111 0 m 1
 111 56 l 1
 222 56 l 1
 222 0 l 1
 111 0 l 1
389 0 m 1
 389 56 l 1
 500 56 l 1
 500 0 l 1
 389 0 l 1
111 -56 m 1
 111 0 l 1
 222 0 l 1
 222 -56 l 1
 111 -56 l 1
389 -56 m 1
 389 0 l 1
 500 0 l 1
 500 -56 l 1
 389 -56 l 1
111 -111 m 1
 111 -56 l 1
 444 -56 l 1
 444 -111 l 1
 111 -111 l 1
EndSplineSet
EndChar

StartChar: dieresis
Encoding: 168 168 107
Width: 611
Flags: HW
LayerCount: 2
Back
Fore
SplineSet
111 667 m 1
 111 722 l 1
 222 722 l 1
 222 667 l 1
 111 667 l 1
389 667 m 1
 389 722 l 1
 500 722 l 1
 500 667 l 1
 389 667 l 1
111 611 m 1
 111 667 l 1
 222 667 l 1
 222 611 l 1
 111 611 l 1
389 611 m 1
 389 667 l 1
 500 667 l 1
 500 611 l 1
 389 611 l 1
EndSplineSet
EndChar

StartChar: copyright
Encoding: 169 169 108
Width: 611
Flags: HW
LayerCount: 2
Back
Fore
SplineSet
167 556 m 1
 167 611 l 1
 444 611 l 1
 444 556 l 1
 167 556 l 1
56 500 m 1
 56 556 l 1
 167 556 l 1
 167 500 l 1
 56 500 l 1
444 500 m 1
 444 556 l 1
 556 556 l 1
 556 500 l 1
 444 500 l 1
56 444 m 1
 56 500 l 1
 111 500 l 1
 111 444 l 1
 56 444 l 1
222 444 m 1
 222 500 l 1
 389 500 l 1
 389 444 l 1
 222 444 l 1
500 444 m 1
 500 500 l 1
 556 500 l 1
 556 444 l 1
 500 444 l 1
0 389 m 1
 0 444 l 1
 111 444 l 1
 111 389 l 1
 0 389 l 1
167 389 m 1
 167 444 l 1
 222 444 l 1
 222 389 l 1
 167 389 l 1
389 389 m 1
 389 444 l 1
 444 444 l 1
 444 389 l 1
 389 389 l 1
500 389 m 1
 500 444 l 1
 611 444 l 1
 611 389 l 1
 500 389 l 1
0 333 m 1
 0 389 l 1
 111 389 l 1
 111 333 l 1
 0 333 l 1
167 333 m 1
 167 389 l 1
 222 389 l 1
 222 333 l 1
 167 333 l 1
500 333 m 1
 500 389 l 1
 611 389 l 1
 611 333 l 1
 500 333 l 1
0 278 m 1
 0 333 l 1
 111 333 l 1
 111 278 l 1
 0 278 l 1
167 278 m 1
 167 333 l 1
 222 333 l 1
 222 278 l 1
 167 278 l 1
500 278 m 1
 500 333 l 1
 611 333 l 1
 611 278 l 1
 500 278 l 1
0 222 m 1
 0 278 l 1
 111 278 l 1
 111 222 l 1
 0 222 l 1
167 222 m 1
 167 278 l 1
 222 278 l 1
 222 222 l 1
 167 222 l 1
500 222 m 1
 500 278 l 1
 611 278 l 1
 611 222 l 1
 500 222 l 1
0 167 m 1
 0 222 l 1
 111 222 l 1
 111 167 l 1
 0 167 l 1
167 167 m 1
 167 222 l 1
 222 222 l 1
 222 167 l 1
 167 167 l 1
389 167 m 1
 389 222 l 1
 444 222 l 1
 444 167 l 1
 389 167 l 1
500 167 m 1
 500 222 l 1
 611 222 l 1
 611 167 l 1
 500 167 l 1
56 111 m 1
 56 167 l 1
 111 167 l 1
 111 111 l 1
 56 111 l 1
222 111 m 1
 222 167 l 1
 389 167 l 1
 389 111 l 1
 222 111 l 1
500 111 m 1
 500 167 l 1
 556 167 l 1
 556 111 l 1
 500 111 l 1
56 56 m 1
 56 111 l 1
 167 111 l 1
 167 56 l 1
 56 56 l 1
444 56 m 1
 444 111 l 1
 556 111 l 1
 556 56 l 1
 444 56 l 1
167 0 m 1
 167 56 l 1
 444 56 l 1
 444 0 l 1
 167 0 l 1
EndSplineSet
EndChar

StartChar: ordfeminine
Encoding: 170 170 109
Width: 611
Flags: HW
LayerCount: 2
Back
Fore
SplineSet
222 667 m 1
 222 722 l 1
 444 722 l 1
 444 667 l 1
 222 667 l 1
167 611 m 1
 167 667 l 1
 222 667 l 1
 222 611 l 1
 167 611 l 1
389 611 m 1
 389 667 l 1
 500 667 l 1
 500 611 l 1
 389 611 l 1
389 556 m 1
 389 611 l 1
 500 611 l 1
 500 556 l 1
 389 556 l 1
167 500 m 1
 167 556 l 1
 500 556 l 1
 500 500 l 1
 167 500 l 1
111 444 m 1
 111 500 l 1
 222 500 l 1
 222 444 l 1
 111 444 l 1
389 444 m 1
 389 500 l 1
 500 500 l 1
 500 444 l 1
 389 444 l 1
111 389 m 1
 111 444 l 1
 222 444 l 1
 222 389 l 1
 111 389 l 1
389 389 m 1
 389 444 l 1
 500 444 l 1
 500 389 l 1
 389 389 l 1
167 333 m 1
 167 389 l 1
 389 389 l 1
 389 333 l 1
 167 333 l 1
444 333 m 1
 444 389 l 1
 556 389 l 1
 556 333 l 1
 444 333 l 1
111 222 m 1
 111 278 l 1
 500 278 l 1
 500 222 l 1
 111 222 l 1
EndSplineSet
EndChar

StartChar: guillemotleft
Encoding: 171 171 110
Width: 611
Flags: HW
LayerCount: 2
Back
Fore
SplineSet
222 333 m 1
 222 389 l 1
 278 389 l 1
 278 333 l 1
 222 333 l 1
444 333 m 1
 444 389 l 1
 500 389 l 1
 500 333 l 1
 444 333 l 1
167 278 m 1
 167 333 l 1
 278 333 l 1
 278 278 l 1
 167 278 l 1
389 278 m 1
 389 333 l 1
 500 333 l 1
 500 278 l 1
 389 278 l 1
111 222 m 1
 111 278 l 1
 222 278 l 1
 222 222 l 1
 111 222 l 1
333 222 m 1
 333 278 l 1
 444 278 l 1
 444 222 l 1
 333 222 l 1
111 167 m 1
 111 222 l 1
 222 222 l 1
 222 167 l 1
 111 167 l 1
333 167 m 1
 333 222 l 1
 444 222 l 1
 444 167 l 1
 333 167 l 1
111 111 m 1
 111 167 l 1
 222 167 l 1
 222 111 l 1
 111 111 l 1
333 111 m 1
 333 167 l 1
 444 167 l 1
 444 111 l 1
 333 111 l 1
167 56 m 1
 167 111 l 1
 278 111 l 1
 278 56 l 1
 167 56 l 1
389 56 m 1
 389 111 l 1
 500 111 l 1
 500 56 l 1
 389 56 l 1
222 0 m 1
 222 56 l 1
 278 56 l 1
 278 0 l 1
 222 0 l 1
444 0 m 1
 444 56 l 1
 500 56 l 1
 500 0 l 1
 444 0 l 1
EndSplineSet
EndChar

StartChar: logicalnot
Encoding: 172 172 111
Width: 611
Flags: HW
LayerCount: 2
Back
Fore
SplineSet
111 333 m 1
 111 389 l 1
 556 389 l 1
 556 333 l 1
 111 333 l 1
111 278 m 1
 111 333 l 1
 556 333 l 1
 556 278 l 1
 111 278 l 1
444 222 m 1
 444 278 l 1
 556 278 l 1
 556 222 l 1
 444 222 l 1
444 167 m 1
 444 222 l 1
 556 222 l 1
 556 167 l 1
 444 167 l 1
444 111 m 1
 444 167 l 1
 556 167 l 1
 556 111 l 1
 444 111 l 1
EndSplineSet
EndChar

StartChar: minus
Encoding: 45 45 112
Width: 611
Flags: HW
LayerCount: 2
Back
Fore
SplineSet
56 278 m 1
 56 333 l 1
 556 333 l 1
 556 278 l 1
 56 278 l 1
56 222 m 1
 56 278 l 1
 556 278 l 1
 556 222 l 1
 56 222 l 1
EndSplineSet
EndChar

StartChar: registered
Encoding: 174 174 113
Width: 611
Flags: HW
LayerCount: 2
Back
Fore
SplineSet
167 556 m 1
 167 611 l 1
 444 611 l 1
 444 556 l 1
 167 556 l 1
56 500 m 1
 56 556 l 1
 167 556 l 1
 167 500 l 1
 56 500 l 1
444 500 m 1
 444 556 l 1
 556 556 l 1
 556 500 l 1
 444 500 l 1
56 444 m 1
 56 500 l 1
 111 500 l 1
 111 444 l 1
 56 444 l 1
167 444 m 1
 167 500 l 1
 389 500 l 1
 389 444 l 1
 167 444 l 1
500 444 m 1
 500 500 l 1
 556 500 l 1
 556 444 l 1
 500 444 l 1
0 389 m 1
 0 444 l 1
 111 444 l 1
 111 389 l 1
 0 389 l 1
167 389 m 1
 167 444 l 1
 222 444 l 1
 222 389 l 1
 167 389 l 1
389 389 m 1
 389 444 l 1
 444 444 l 1
 444 389 l 1
 389 389 l 1
500 389 m 1
 500 444 l 1
 611 444 l 1
 611 389 l 1
 500 389 l 1
0 333 m 1
 0 389 l 1
 111 389 l 1
 111 333 l 1
 0 333 l 1
167 333 m 1
 167 389 l 1
 222 389 l 1
 222 333 l 1
 167 333 l 1
389 333 m 1
 389 389 l 1
 444 389 l 1
 444 333 l 1
 389 333 l 1
500 333 m 1
 500 389 l 1
 611 389 l 1
 611 333 l 1
 500 333 l 1
0 278 m 1
 0 333 l 1
 111 333 l 1
 111 278 l 1
 0 278 l 1
167 278 m 1
 167 333 l 1
 389 333 l 1
 389 278 l 1
 167 278 l 1
500 278 m 1
 500 333 l 1
 611 333 l 1
 611 278 l 1
 500 278 l 1
0 222 m 1
 0 278 l 1
 111 278 l 1
 111 222 l 1
 0 222 l 1
167 222 m 1
 167 278 l 1
 222 278 l 1
 222 222 l 1
 167 222 l 1
389 222 m 1
 389 278 l 1
 444 278 l 1
 444 222 l 1
 389 222 l 1
500 222 m 1
 500 278 l 1
 611 278 l 1
 611 222 l 1
 500 222 l 1
0 167 m 1
 0 222 l 1
 111 222 l 1
 111 167 l 1
 0 167 l 1
167 167 m 1
 167 222 l 1
 222 222 l 1
 222 167 l 1
 167 167 l 1
389 167 m 1
 389 222 l 1
 444 222 l 1
 444 167 l 1
 389 167 l 1
500 167 m 1
 500 222 l 1
 611 222 l 1
 611 167 l 1
 500 167 l 1
56 111 m 1
 56 167 l 1
 111 167 l 1
 111 111 l 1
 56 111 l 1
167 111 m 1
 167 167 l 1
 222 167 l 1
 222 111 l 1
 167 111 l 1
389 111 m 1
 389 167 l 1
 444 167 l 1
 444 111 l 1
 389 111 l 1
500 111 m 1
 500 167 l 1
 556 167 l 1
 556 111 l 1
 500 111 l 1
56 56 m 1
 56 111 l 1
 167 111 l 1
 167 56 l 1
 56 56 l 1
444 56 m 1
 444 111 l 1
 556 111 l 1
 556 56 l 1
 444 56 l 1
167 0 m 1
 167 56 l 1
 444 56 l 1
 444 0 l 1
 167 0 l 1
EndSplineSet
EndChar

StartChar: macron
Encoding: 175 175 114
Width: 611
Flags: HW
LayerCount: 2
Back
Fore
SplineSet
111 611 m 1
 111 667 l 1
 500 667 l 1
 500 611 l 1
 111 611 l 1
EndSplineSet
EndChar

StartChar: degree
Encoding: 176 176 115
Width: 611
Flags: HW
LayerCount: 2
Back
Fore
SplineSet
222 667 m 1
 222 722 l 1
 444 722 l 1
 444 667 l 1
 222 667 l 1
167 611 m 1
 167 667 l 1
 278 667 l 1
 278 611 l 1
 167 611 l 1
389 611 m 1
 389 667 l 1
 500 667 l 1
 500 611 l 1
 389 611 l 1
167 556 m 1
 167 611 l 1
 222 611 l 1
 222 556 l 1
 167 556 l 1
444 556 m 1
 444 611 l 1
 500 611 l 1
 500 556 l 1
 444 556 l 1
167 500 m 1
 167 556 l 1
 222 556 l 1
 222 500 l 1
 167 500 l 1
444 500 m 1
 444 556 l 1
 500 556 l 1
 500 500 l 1
 444 500 l 1
167 444 m 1
 167 500 l 1
 278 500 l 1
 278 444 l 1
 167 444 l 1
389 444 m 1
 389 500 l 1
 500 500 l 1
 500 444 l 1
 389 444 l 1
222 389 m 1
 222 444 l 1
 444 444 l 1
 444 389 l 1
 222 389 l 1
EndSplineSet
EndChar

StartChar: plusminus
Encoding: 177 177 116
Width: 611
Flags: HW
LayerCount: 2
Back
Fore
SplineSet
278 556 m 1
 278 611 l 1
 389 611 l 1
 389 556 l 1
 278 556 l 1
278 500 m 1
 278 556 l 1
 389 556 l 1
 389 500 l 1
 278 500 l 1
278 444 m 1
 278 500 l 1
 389 500 l 1
 389 444 l 1
 278 444 l 1
111 389 m 1
 111 444 l 1
 556 444 l 1
 556 389 l 1
 111 389 l 1
111 333 m 1
 111 389 l 1
 556 389 l 1
 556 333 l 1
 111 333 l 1
278 278 m 1
 278 333 l 1
 389 333 l 1
 389 278 l 1
 278 278 l 1
278 222 m 1
 278 278 l 1
 389 278 l 1
 389 222 l 1
 278 222 l 1
278 167 m 1
 278 222 l 1
 389 222 l 1
 389 167 l 1
 278 167 l 1
111 56 m 1
 111 111 l 1
 556 111 l 1
 556 56 l 1
 111 56 l 1
111 0 m 1
 111 56 l 1
 556 56 l 1
 556 0 l 1
 111 0 l 1
EndSplineSet
EndChar

StartChar: twosuperior
Encoding: 178 178 117
Width: 611
Flags: HW
LayerCount: 2
Back
Fore
SplineSet
222 667 m 1
 222 722 l 1
 389 722 l 1
 389 667 l 1
 222 667 l 1
167 611 m 1
 167 667 l 1
 222 667 l 1
 222 611 l 1
 167 611 l 1
333 611 m 1
 333 667 l 1
 444 667 l 1
 444 611 l 1
 333 611 l 1
333 556 m 1
 333 611 l 1
 444 611 l 1
 444 556 l 1
 333 556 l 1
278 500 m 1
 278 556 l 1
 389 556 l 1
 389 500 l 1
 278 500 l 1
222 444 m 1
 222 500 l 1
 333 500 l 1
 333 444 l 1
 222 444 l 1
167 389 m 1
 167 444 l 1
 278 444 l 1
 278 389 l 1
 167 389 l 1
389 389 m 1
 389 444 l 1
 444 444 l 1
 444 389 l 1
 389 389 l 1
167 333 m 1
 167 389 l 1
 444 389 l 1
 444 333 l 1
 167 333 l 1
EndSplineSet
EndChar

StartChar: threesuperior
Encoding: 179 179 118
Width: 611
Flags: HW
LayerCount: 2
Back
Fore
SplineSet
222 667 m 1
 222 722 l 1
 389 722 l 1
 389 667 l 1
 222 667 l 1
167 611 m 1
 167 667 l 1
 222 667 l 1
 222 611 l 1
 167 611 l 1
333 611 m 1
 333 667 l 1
 444 667 l 1
 444 611 l 1
 333 611 l 1
333 556 m 1
 333 611 l 1
 444 611 l 1
 444 556 l 1
 333 556 l 1
278 500 m 1
 278 556 l 1
 389 556 l 1
 389 500 l 1
 278 500 l 1
333 444 m 1
 333 500 l 1
 444 500 l 1
 444 444 l 1
 333 444 l 1
167 389 m 1
 167 444 l 1
 222 444 l 1
 222 389 l 1
 167 389 l 1
333 389 m 1
 333 444 l 1
 444 444 l 1
 444 389 l 1
 333 389 l 1
222 333 m 1
 222 389 l 1
 389 389 l 1
 389 333 l 1
 222 333 l 1
EndSplineSet
EndChar

StartChar: acute
Encoding: 180 180 119
Width: 611
Flags: HW
LayerCount: 2
Back
Fore
SplineSet
278 667 m 1
 278 722 l 1
 444 722 l 1
 444 667 l 1
 278 667 l 1
222 611 m 1
 222 667 l 1
 333 667 l 1
 333 611 l 1
 222 611 l 1
167 556 m 1
 167 611 l 1
 222 611 l 1
 222 556 l 1
 167 556 l 1
EndSplineSet
EndChar

StartChar: mu
Encoding: 181 181 120
Width: 611
Flags: HW
LayerCount: 2
Back
Fore
SplineSet
111 444 m 1
 111 500 l 1
 278 500 l 1
 278 444 l 1
 111 444 l 1
500 444 m 1
 500 500 l 1
 611 500 l 1
 611 444 l 1
 500 444 l 1
167 389 m 1
 167 444 l 1
 278 444 l 1
 278 389 l 1
 167 389 l 1
500 389 m 1
 500 444 l 1
 611 444 l 1
 611 389 l 1
 500 389 l 1
167 333 m 1
 167 389 l 1
 278 389 l 1
 278 333 l 1
 167 333 l 1
500 333 m 1
 500 389 l 1
 611 389 l 1
 611 333 l 1
 500 333 l 1
167 278 m 1
 167 333 l 1
 278 333 l 1
 278 278 l 1
 167 278 l 1
500 278 m 1
 500 333 l 1
 556 333 l 1
 556 278 l 1
 500 278 l 1
167 222 m 1
 167 278 l 1
 222 278 l 1
 222 222 l 1
 167 222 l 1
444 222 m 1
 444 278 l 1
 556 278 l 1
 556 222 l 1
 444 222 l 1
111 167 m 1
 111 222 l 1
 222 222 l 1
 222 167 l 1
 111 167 l 1
444 167 m 1
 444 222 l 1
 556 222 l 1
 556 167 l 1
 444 167 l 1
111 111 m 1
 111 167 l 1
 222 167 l 1
 222 111 l 1
 111 111 l 1
444 111 m 1
 444 167 l 1
 556 167 l 1
 556 111 l 1
 444 111 l 1
111 56 m 1
 111 111 l 1
 222 111 l 1
 222 56 l 1
 111 56 l 1
389 56 m 1
 389 111 l 1
 556 111 l 1
 556 56 l 1
 389 56 l 1
111 0 m 1
 111 56 l 1
 389 56 l 1
 389 0 l 1
 111 0 l 1
444 0 m 1
 444 56 l 1
 611 56 l 1
 611 0 l 1
 444 0 l 1
111 -56 m 1
 111 0 l 1
 167 0 l 1
 167 -56 l 1
 111 -56 l 1
56 -111 m 1
 56 -56 l 1
 167 -56 l 1
 167 -111 l 1
 56 -111 l 1
56 -167 m 1
 56 -111 l 1
 167 -111 l 1
 167 -167 l 1
 56 -167 l 1
56 -222 m 1
 56 -167 l 1
 167 -167 l 1
 167 -222 l 1
 56 -222 l 1
EndSplineSet
EndChar

StartChar: paragraph
Encoding: 182 182 121
Width: 611
Flags: HW
LayerCount: 2
Back
Fore
SplineSet
167 556 m 1
 167 611 l 1
 556 611 l 1
 556 556 l 1
 167 556 l 1
111 500 m 1
 111 556 l 1
 333 556 l 1
 333 500 l 1
 111 500 l 1
389 500 m 1
 389 556 l 1
 444 556 l 1
 444 500 l 1
 389 500 l 1
56 444 m 1
 56 500 l 1
 333 500 l 1
 333 444 l 1
 56 444 l 1
389 444 m 1
 389 500 l 1
 444 500 l 1
 444 444 l 1
 389 444 l 1
56 389 m 1
 56 444 l 1
 333 444 l 1
 333 389 l 1
 56 389 l 1
389 389 m 1
 389 444 l 1
 444 444 l 1
 444 389 l 1
 389 389 l 1
56 333 m 1
 56 389 l 1
 333 389 l 1
 333 333 l 1
 56 333 l 1
389 333 m 1
 389 389 l 1
 444 389 l 1
 444 333 l 1
 389 333 l 1
111 278 m 1
 111 333 l 1
 333 333 l 1
 333 278 l 1
 111 278 l 1
389 278 m 1
 389 333 l 1
 444 333 l 1
 444 278 l 1
 389 278 l 1
167 222 m 1
 167 278 l 1
 333 278 l 1
 333 222 l 1
 167 222 l 1
389 222 m 1
 389 278 l 1
 444 278 l 1
 444 222 l 1
 389 222 l 1
278 167 m 1
 278 222 l 1
 333 222 l 1
 333 167 l 1
 278 167 l 1
389 167 m 1
 389 222 l 1
 444 222 l 1
 444 167 l 1
 389 167 l 1
278 111 m 1
 278 167 l 1
 333 167 l 1
 333 111 l 1
 278 111 l 1
389 111 m 1
 389 167 l 1
 444 167 l 1
 444 111 l 1
 389 111 l 1
278 56 m 1
 278 111 l 1
 333 111 l 1
 333 56 l 1
 278 56 l 1
389 56 m 1
 389 111 l 1
 444 111 l 1
 444 56 l 1
 389 56 l 1
278 0 m 1
 278 56 l 1
 333 56 l 1
 333 0 l 1
 278 0 l 1
389 0 m 1
 389 56 l 1
 444 56 l 1
 444 0 l 1
 389 0 l 1
278 -56 m 1
 278 0 l 1
 333 0 l 1
 333 -56 l 1
 278 -56 l 1
389 -56 m 1
 389 0 l 1
 444 0 l 1
 444 -56 l 1
 389 -56 l 1
167 -111 m 1
 167 -56 l 1
 333 -56 l 1
 333 -111 l 1
 167 -111 l 1
389 -111 m 1
 389 -56 l 1
 556 -56 l 1
 556 -111 l 1
 389 -111 l 1
EndSplineSet
EndChar

StartChar: periodcentered
Encoding: 183 183 122
Width: 611
Flags: HW
LayerCount: 2
Back
Fore
SplineSet
278 333 m 1
 278 389 l 1
 389 389 l 1
 389 333 l 1
 278 333 l 1
222 278 m 1
 222 333 l 1
 444 333 l 1
 444 278 l 1
 222 278 l 1
222 222 m 1
 222 278 l 1
 444 278 l 1
 444 222 l 1
 222 222 l 1
278 167 m 1
 278 222 l 1
 389 222 l 1
 389 167 l 1
 278 167 l 1
EndSplineSet
EndChar

StartChar: cedilla
Encoding: 184 184 123
Width: 611
Flags: HW
LayerCount: 2
Back
Fore
SplineSet
278 -56 m 1
 278 0 l 1
 333 0 l 1
 333 -56 l 1
 278 -56 l 1
278 -111 m 1
 278 -56 l 1
 444 -56 l 1
 444 -111 l 1
 278 -111 l 1
389 -167 m 1
 389 -111 l 1
 500 -111 l 1
 500 -167 l 1
 389 -167 l 1
167 -222 m 1
 167 -167 l 1
 222 -167 l 1
 222 -222 l 1
 167 -222 l 1
389 -222 m 1
 389 -167 l 1
 500 -167 l 1
 500 -222 l 1
 389 -222 l 1
222 -278 m 1
 222 -222 l 1
 444 -222 l 1
 444 -278 l 1
 222 -278 l 1
EndSplineSet
EndChar

StartChar: onesuperior
Encoding: 185 185 124
Width: 611
Flags: HW
LayerCount: 2
Back
Fore
SplineSet
167 667 m 1
 167 722 l 1
 389 722 l 1
 389 667 l 1
 167 667 l 1
278 611 m 1
 278 667 l 1
 389 667 l 1
 389 611 l 1
 278 611 l 1
278 556 m 1
 278 611 l 1
 389 611 l 1
 389 556 l 1
 278 556 l 1
278 500 m 1
 278 556 l 1
 389 556 l 1
 389 500 l 1
 278 500 l 1
278 444 m 1
 278 500 l 1
 389 500 l 1
 389 444 l 1
 278 444 l 1
278 389 m 1
 278 444 l 1
 389 444 l 1
 389 389 l 1
 278 389 l 1
167 333 m 1
 167 389 l 1
 500 389 l 1
 500 333 l 1
 167 333 l 1
EndSplineSet
EndChar

StartChar: ordmasculine
Encoding: 186 186 125
Width: 611
Flags: HW
LayerCount: 2
Back
Fore
SplineSet
222 667 m 1
 222 722 l 1
 389 722 l 1
 389 667 l 1
 222 667 l 1
167 611 m 1
 167 667 l 1
 222 667 l 1
 222 611 l 1
 167 611 l 1
389 611 m 1
 389 667 l 1
 444 667 l 1
 444 611 l 1
 389 611 l 1
111 556 m 1
 111 611 l 1
 222 611 l 1
 222 556 l 1
 111 556 l 1
389 556 m 1
 389 611 l 1
 500 611 l 1
 500 556 l 1
 389 556 l 1
111 500 m 1
 111 556 l 1
 222 556 l 1
 222 500 l 1
 111 500 l 1
389 500 m 1
 389 556 l 1
 500 556 l 1
 500 500 l 1
 389 500 l 1
111 444 m 1
 111 500 l 1
 222 500 l 1
 222 444 l 1
 111 444 l 1
389 444 m 1
 389 500 l 1
 500 500 l 1
 500 444 l 1
 389 444 l 1
167 389 m 1
 167 444 l 1
 222 444 l 1
 222 389 l 1
 167 389 l 1
389 389 m 1
 389 444 l 1
 444 444 l 1
 444 389 l 1
 389 389 l 1
222 333 m 1
 222 389 l 1
 389 389 l 1
 389 333 l 1
 222 333 l 1
111 222 m 1
 111 278 l 1
 500 278 l 1
 500 222 l 1
 111 222 l 1
EndSplineSet
EndChar

StartChar: guillemotright
Encoding: 187 187 126
Width: 611
Flags: HW
LayerCount: 2
Back
Fore
SplineSet
111 333 m 1
 111 389 l 1
 167 389 l 1
 167 333 l 1
 111 333 l 1
333 333 m 1
 333 389 l 1
 389 389 l 1
 389 333 l 1
 333 333 l 1
111 278 m 1
 111 333 l 1
 222 333 l 1
 222 278 l 1
 111 278 l 1
333 278 m 1
 333 333 l 1
 444 333 l 1
 444 278 l 1
 333 278 l 1
167 222 m 1
 167 278 l 1
 278 278 l 1
 278 222 l 1
 167 222 l 1
389 222 m 1
 389 278 l 1
 500 278 l 1
 500 222 l 1
 389 222 l 1
167 167 m 1
 167 222 l 1
 278 222 l 1
 278 167 l 1
 167 167 l 1
389 167 m 1
 389 222 l 1
 500 222 l 1
 500 167 l 1
 389 167 l 1
167 111 m 1
 167 167 l 1
 278 167 l 1
 278 111 l 1
 167 111 l 1
389 111 m 1
 389 167 l 1
 500 167 l 1
 500 111 l 1
 389 111 l 1
111 56 m 1
 111 111 l 1
 222 111 l 1
 222 56 l 1
 111 56 l 1
333 56 m 1
 333 111 l 1
 444 111 l 1
 444 56 l 1
 333 56 l 1
111 0 m 1
 111 56 l 1
 167 56 l 1
 167 0 l 1
 111 0 l 1
333 0 m 1
 333 56 l 1
 389 56 l 1
 389 0 l 1
 333 0 l 1
EndSplineSet
EndChar

StartChar: onequarter
Encoding: 188 188 127
Width: 611
Flags: HW
LayerCount: 2
Back
Fore
SplineSet
56 556 m 1
 56 611 l 1
 222 611 l 1
 222 556 l 1
 56 556 l 1
111 500 m 1
 111 556 l 1
 222 556 l 1
 222 500 l 1
 111 500 l 1
111 444 m 1
 111 500 l 1
 222 500 l 1
 222 444 l 1
 111 444 l 1
111 389 m 1
 111 444 l 1
 222 444 l 1
 222 389 l 1
 111 389 l 1
111 333 m 1
 111 389 l 1
 222 389 l 1
 222 333 l 1
 111 333 l 1
111 278 m 1
 111 333 l 1
 222 333 l 1
 222 278 l 1
 111 278 l 1
500 278 m 1
 500 333 l 1
 611 333 l 1
 611 278 l 1
 500 278 l 1
56 222 m 1
 56 278 l 1
 278 278 l 1
 278 222 l 1
 56 222 l 1
389 222 m 1
 389 278 l 1
 556 278 l 1
 556 222 l 1
 389 222 l 1
278 167 m 1
 278 222 l 1
 444 222 l 1
 444 167 l 1
 278 167 l 1
167 111 m 1
 167 167 l 1
 333 167 l 1
 333 111 l 1
 167 111 l 1
444 111 m 1
 444 167 l 1
 556 167 l 1
 556 111 l 1
 444 111 l 1
56 56 m 1
 56 111 l 1
 222 111 l 1
 222 56 l 1
 56 56 l 1
389 56 m 1
 389 111 l 1
 556 111 l 1
 556 56 l 1
 389 56 l 1
56 0 m 1
 56 56 l 1
 111 56 l 1
 111 0 l 1
 56 0 l 1
333 0 m 1
 333 56 l 1
 389 56 l 1
 389 0 l 1
 333 0 l 1
444 0 m 1
 444 56 l 1
 556 56 l 1
 556 0 l 1
 444 0 l 1
278 -56 m 1
 278 0 l 1
 333 0 l 1
 333 -56 l 1
 278 -56 l 1
444 -56 m 1
 444 0 l 1
 556 0 l 1
 556 -56 l 1
 444 -56 l 1
222 -111 m 1
 222 -56 l 1
 611 -56 l 1
 611 -111 l 1
 222 -111 l 1
444 -167 m 1
 444 -111 l 1
 556 -111 l 1
 556 -167 l 1
 444 -167 l 1
444 -222 m 1
 444 -167 l 1
 556 -167 l 1
 556 -222 l 1
 444 -222 l 1
EndSplineSet
EndChar

StartChar: onehalf
Encoding: 189 189 128
Width: 611
Flags: HW
LayerCount: 2
Back
Fore
SplineSet
56 556 m 1
 56 611 l 1
 222 611 l 1
 222 556 l 1
 56 556 l 1
111 500 m 1
 111 556 l 1
 222 556 l 1
 222 500 l 1
 111 500 l 1
111 444 m 1
 111 500 l 1
 222 500 l 1
 222 444 l 1
 111 444 l 1
111 389 m 1
 111 444 l 1
 222 444 l 1
 222 389 l 1
 111 389 l 1
111 333 m 1
 111 389 l 1
 222 389 l 1
 222 333 l 1
 111 333 l 1
111 278 m 1
 111 333 l 1
 222 333 l 1
 222 278 l 1
 111 278 l 1
500 278 m 1
 500 333 l 1
 611 333 l 1
 611 278 l 1
 500 278 l 1
56 222 m 1
 56 278 l 1
 278 278 l 1
 278 222 l 1
 56 222 l 1
389 222 m 1
 389 278 l 1
 556 278 l 1
 556 222 l 1
 389 222 l 1
278 167 m 1
 278 222 l 1
 444 222 l 1
 444 167 l 1
 278 167 l 1
167 111 m 1
 167 167 l 1
 333 167 l 1
 333 111 l 1
 167 111 l 1
389 111 m 1
 389 167 l 1
 556 167 l 1
 556 111 l 1
 389 111 l 1
56 56 m 1
 56 111 l 1
 222 111 l 1
 222 56 l 1
 56 56 l 1
333 56 m 1
 333 111 l 1
 389 111 l 1
 389 56 l 1
 333 56 l 1
500 56 m 1
 500 111 l 1
 611 111 l 1
 611 56 l 1
 500 56 l 1
56 0 m 1
 56 56 l 1
 111 56 l 1
 111 0 l 1
 56 0 l 1
500 0 m 1
 500 56 l 1
 611 56 l 1
 611 0 l 1
 500 0 l 1
444 -56 m 1
 444 0 l 1
 556 0 l 1
 556 -56 l 1
 444 -56 l 1
389 -111 m 1
 389 -56 l 1
 500 -56 l 1
 500 -111 l 1
 389 -111 l 1
333 -167 m 1
 333 -111 l 1
 444 -111 l 1
 444 -167 l 1
 333 -167 l 1
556 -167 m 1
 556 -111 l 1
 611 -111 l 1
 611 -167 l 1
 556 -167 l 1
333 -222 m 1
 333 -167 l 1
 611 -167 l 1
 611 -222 l 1
 333 -222 l 1
EndSplineSet
EndChar

StartChar: threequarters
Encoding: 190 190 129
Width: 611
Flags: HW
LayerCount: 2
Back
Fore
SplineSet
111 556 m 1
 111 611 l 1
 278 611 l 1
 278 556 l 1
 111 556 l 1
56 500 m 1
 56 556 l 1
 111 556 l 1
 111 500 l 1
 56 500 l 1
222 500 m 1
 222 556 l 1
 333 556 l 1
 333 500 l 1
 222 500 l 1
222 444 m 1
 222 500 l 1
 333 500 l 1
 333 444 l 1
 222 444 l 1
167 389 m 1
 167 444 l 1
 278 444 l 1
 278 389 l 1
 167 389 l 1
222 333 m 1
 222 389 l 1
 333 389 l 1
 333 333 l 1
 222 333 l 1
56 278 m 1
 56 333 l 1
 111 333 l 1
 111 278 l 1
 56 278 l 1
222 278 m 1
 222 333 l 1
 333 333 l 1
 333 278 l 1
 222 278 l 1
500 278 m 1
 500 333 l 1
 611 333 l 1
 611 278 l 1
 500 278 l 1
111 222 m 1
 111 278 l 1
 278 278 l 1
 278 222 l 1
 111 222 l 1
389 222 m 1
 389 278 l 1
 556 278 l 1
 556 222 l 1
 389 222 l 1
278 167 m 1
 278 222 l 1
 444 222 l 1
 444 167 l 1
 278 167 l 1
167 111 m 1
 167 167 l 1
 333 167 l 1
 333 111 l 1
 167 111 l 1
444 111 m 1
 444 167 l 1
 556 167 l 1
 556 111 l 1
 444 111 l 1
56 56 m 1
 56 111 l 1
 222 111 l 1
 222 56 l 1
 56 56 l 1
389 56 m 1
 389 111 l 1
 556 111 l 1
 556 56 l 1
 389 56 l 1
56 0 m 1
 56 56 l 1
 111 56 l 1
 111 0 l 1
 56 0 l 1
333 0 m 1
 333 56 l 1
 389 56 l 1
 389 0 l 1
 333 0 l 1
444 0 m 1
 444 56 l 1
 556 56 l 1
 556 0 l 1
 444 0 l 1
278 -56 m 1
 278 0 l 1
 333 0 l 1
 333 -56 l 1
 278 -56 l 1
444 -56 m 1
 444 0 l 1
 556 0 l 1
 556 -56 l 1
 444 -56 l 1
222 -111 m 1
 222 -56 l 1
 611 -56 l 1
 611 -111 l 1
 222 -111 l 1
444 -167 m 1
 444 -111 l 1
 556 -111 l 1
 556 -167 l 1
 444 -167 l 1
444 -222 m 1
 444 -167 l 1
 556 -167 l 1
 556 -222 l 1
 444 -222 l 1
EndSplineSet
EndChar

StartChar: questiondown
Encoding: 191 191 130
Width: 611
Flags: HW
LayerCount: 2
Back
Fore
SplineSet
278 556 m 1
 278 611 l 1
 389 611 l 1
 389 556 l 1
 278 556 l 1
222 500 m 1
 222 556 l 1
 444 556 l 1
 444 500 l 1
 222 500 l 1
278 444 m 1
 278 500 l 1
 389 500 l 1
 389 444 l 1
 278 444 l 1
278 333 m 1
 278 389 l 1
 389 389 l 1
 389 333 l 1
 278 333 l 1
278 278 m 1
 278 333 l 1
 389 333 l 1
 389 278 l 1
 278 278 l 1
222 222 m 1
 222 278 l 1
 333 278 l 1
 333 222 l 1
 222 222 l 1
167 167 m 1
 167 222 l 1
 278 222 l 1
 278 167 l 1
 167 167 l 1
111 111 m 1
 111 167 l 1
 222 167 l 1
 222 111 l 1
 111 111 l 1
111 56 m 1
 111 111 l 1
 222 111 l 1
 222 56 l 1
 111 56 l 1
111 0 m 1
 111 56 l 1
 222 56 l 1
 222 0 l 1
 111 0 l 1
444 0 m 1
 444 56 l 1
 556 56 l 1
 556 0 l 1
 444 0 l 1
167 -56 m 1
 167 0 l 1
 500 0 l 1
 500 -56 l 1
 167 -56 l 1
EndSplineSet
EndChar

StartChar: Agrave
Encoding: 192 192 131
Width: 611
Flags: HW
LayerCount: 2
Back
Fore
SplineSet
167 778 m 1
 167 833 l 1
 333 833 l 1
 333 778 l 1
 167 778 l 1
278 722 m 1
 278 778 l 1
 389 778 l 1
 389 722 l 1
 278 722 l 1
389 667 m 1
 389 722 l 1
 444 722 l 1
 444 667 l 1
 389 667 l 1
222 556 m 1
 222 611 l 1
 389 611 l 1
 389 556 l 1
 222 556 l 1
222 500 m 1
 222 556 l 1
 389 556 l 1
 389 500 l 1
 222 500 l 1
167 444 m 1
 167 500 l 1
 278 500 l 1
 278 444 l 1
 167 444 l 1
333 444 m 1
 333 500 l 1
 444 500 l 1
 444 444 l 1
 333 444 l 1
167 389 m 1
 167 444 l 1
 278 444 l 1
 278 389 l 1
 167 389 l 1
333 389 m 1
 333 444 l 1
 444 444 l 1
 444 389 l 1
 333 389 l 1
167 333 m 1
 167 389 l 1
 278 389 l 1
 278 333 l 1
 167 333 l 1
333 333 m 1
 333 389 l 1
 444 389 l 1
 444 333 l 1
 333 333 l 1
111 278 m 1
 111 333 l 1
 222 333 l 1
 222 278 l 1
 111 278 l 1
389 278 m 1
 389 333 l 1
 500 333 l 1
 500 278 l 1
 389 278 l 1
111 222 m 1
 111 278 l 1
 222 278 l 1
 222 222 l 1
 111 222 l 1
389 222 m 1
 389 278 l 1
 500 278 l 1
 500 222 l 1
 389 222 l 1
111 167 m 1
 111 222 l 1
 500 222 l 1
 500 167 l 1
 111 167 l 1
56 111 m 1
 56 167 l 1
 167 167 l 1
 167 111 l 1
 56 111 l 1
444 111 m 1
 444 167 l 1
 556 167 l 1
 556 111 l 1
 444 111 l 1
56 56 m 1
 56 111 l 1
 167 111 l 1
 167 56 l 1
 56 56 l 1
444 56 m 1
 444 111 l 1
 556 111 l 1
 556 56 l 1
 444 56 l 1
0 0 m 1
 0 56 l 1
 222 56 l 1
 222 0 l 1
 0 0 l 1
389 0 m 1
 389 56 l 1
 611 56 l 1
 611 0 l 1
 389 0 l 1
EndSplineSet
EndChar

StartChar: Aacute
Encoding: 193 193 132
Width: 611
Flags: HW
LayerCount: 2
Back
Fore
SplineSet
278 778 m 1
 278 833 l 1
 444 833 l 1
 444 778 l 1
 278 778 l 1
222 722 m 1
 222 778 l 1
 333 778 l 1
 333 722 l 1
 222 722 l 1
167 667 m 1
 167 722 l 1
 222 722 l 1
 222 667 l 1
 167 667 l 1
222 556 m 1
 222 611 l 1
 389 611 l 1
 389 556 l 1
 222 556 l 1
222 500 m 1
 222 556 l 1
 389 556 l 1
 389 500 l 1
 222 500 l 1
167 444 m 1
 167 500 l 1
 278 500 l 1
 278 444 l 1
 167 444 l 1
333 444 m 1
 333 500 l 1
 444 500 l 1
 444 444 l 1
 333 444 l 1
167 389 m 1
 167 444 l 1
 278 444 l 1
 278 389 l 1
 167 389 l 1
333 389 m 1
 333 444 l 1
 444 444 l 1
 444 389 l 1
 333 389 l 1
167 333 m 1
 167 389 l 1
 278 389 l 1
 278 333 l 1
 167 333 l 1
333 333 m 1
 333 389 l 1
 444 389 l 1
 444 333 l 1
 333 333 l 1
111 278 m 1
 111 333 l 1
 222 333 l 1
 222 278 l 1
 111 278 l 1
389 278 m 1
 389 333 l 1
 500 333 l 1
 500 278 l 1
 389 278 l 1
111 222 m 1
 111 278 l 1
 222 278 l 1
 222 222 l 1
 111 222 l 1
389 222 m 1
 389 278 l 1
 500 278 l 1
 500 222 l 1
 389 222 l 1
111 167 m 1
 111 222 l 1
 500 222 l 1
 500 167 l 1
 111 167 l 1
56 111 m 1
 56 167 l 1
 167 167 l 1
 167 111 l 1
 56 111 l 1
444 111 m 1
 444 167 l 1
 556 167 l 1
 556 111 l 1
 444 111 l 1
56 56 m 1
 56 111 l 1
 167 111 l 1
 167 56 l 1
 56 56 l 1
444 56 m 1
 444 111 l 1
 556 111 l 1
 556 56 l 1
 444 56 l 1
0 0 m 1
 0 56 l 1
 222 56 l 1
 222 0 l 1
 0 0 l 1
389 0 m 1
 389 56 l 1
 611 56 l 1
 611 0 l 1
 389 0 l 1
EndSplineSet
EndChar

StartChar: Acircumflex
Encoding: 194 194 133
Width: 611
Flags: HW
LayerCount: 2
Back
Fore
SplineSet
278 778 m 1
 278 833 l 1
 333 833 l 1
 333 778 l 1
 278 778 l 1
222 722 m 1
 222 778 l 1
 389 778 l 1
 389 722 l 1
 222 722 l 1
111 667 m 1
 111 722 l 1
 222 722 l 1
 222 667 l 1
 111 667 l 1
389 667 m 1
 389 722 l 1
 500 722 l 1
 500 667 l 1
 389 667 l 1
222 556 m 1
 222 611 l 1
 389 611 l 1
 389 556 l 1
 222 556 l 1
222 500 m 1
 222 556 l 1
 389 556 l 1
 389 500 l 1
 222 500 l 1
167 444 m 1
 167 500 l 1
 278 500 l 1
 278 444 l 1
 167 444 l 1
333 444 m 1
 333 500 l 1
 444 500 l 1
 444 444 l 1
 333 444 l 1
167 389 m 1
 167 444 l 1
 278 444 l 1
 278 389 l 1
 167 389 l 1
333 389 m 1
 333 444 l 1
 444 444 l 1
 444 389 l 1
 333 389 l 1
167 333 m 1
 167 389 l 1
 278 389 l 1
 278 333 l 1
 167 333 l 1
333 333 m 1
 333 389 l 1
 444 389 l 1
 444 333 l 1
 333 333 l 1
111 278 m 1
 111 333 l 1
 222 333 l 1
 222 278 l 1
 111 278 l 1
389 278 m 1
 389 333 l 1
 500 333 l 1
 500 278 l 1
 389 278 l 1
111 222 m 1
 111 278 l 1
 222 278 l 1
 222 222 l 1
 111 222 l 1
389 222 m 1
 389 278 l 1
 500 278 l 1
 500 222 l 1
 389 222 l 1
111 167 m 1
 111 222 l 1
 500 222 l 1
 500 167 l 1
 111 167 l 1
56 111 m 1
 56 167 l 1
 167 167 l 1
 167 111 l 1
 56 111 l 1
444 111 m 1
 444 167 l 1
 556 167 l 1
 556 111 l 1
 444 111 l 1
56 56 m 1
 56 111 l 1
 167 111 l 1
 167 56 l 1
 56 56 l 1
444 56 m 1
 444 111 l 1
 556 111 l 1
 556 56 l 1
 444 56 l 1
0 0 m 1
 0 56 l 1
 222 56 l 1
 222 0 l 1
 0 0 l 1
389 0 m 1
 389 56 l 1
 611 56 l 1
 611 0 l 1
 389 0 l 1
EndSplineSet
EndChar

StartChar: Atilde
Encoding: 195 195 134
Width: 611
Flags: HW
LayerCount: 2
Back
Fore
SplineSet
167 778 m 1
 167 833 l 1
 389 833 l 1
 389 778 l 1
 167 778 l 1
500 778 m 1
 500 833 l 1
 556 833 l 1
 556 778 l 1
 500 778 l 1
111 722 m 1
 111 778 l 1
 167 778 l 1
 167 722 l 1
 111 722 l 1
278 722 m 1
 278 778 l 1
 500 778 l 1
 500 722 l 1
 278 722 l 1
222 556 m 1
 222 611 l 1
 389 611 l 1
 389 556 l 1
 222 556 l 1
222 500 m 1
 222 556 l 1
 389 556 l 1
 389 500 l 1
 222 500 l 1
167 444 m 1
 167 500 l 1
 278 500 l 1
 278 444 l 1
 167 444 l 1
333 444 m 1
 333 500 l 1
 444 500 l 1
 444 444 l 1
 333 444 l 1
167 389 m 1
 167 444 l 1
 278 444 l 1
 278 389 l 1
 167 389 l 1
333 389 m 1
 333 444 l 1
 444 444 l 1
 444 389 l 1
 333 389 l 1
167 333 m 1
 167 389 l 1
 278 389 l 1
 278 333 l 1
 167 333 l 1
333 333 m 1
 333 389 l 1
 444 389 l 1
 444 333 l 1
 333 333 l 1
111 278 m 1
 111 333 l 1
 222 333 l 1
 222 278 l 1
 111 278 l 1
389 278 m 1
 389 333 l 1
 500 333 l 1
 500 278 l 1
 389 278 l 1
111 222 m 1
 111 278 l 1
 222 278 l 1
 222 222 l 1
 111 222 l 1
389 222 m 1
 389 278 l 1
 500 278 l 1
 500 222 l 1
 389 222 l 1
111 167 m 1
 111 222 l 1
 500 222 l 1
 500 167 l 1
 111 167 l 1
56 111 m 1
 56 167 l 1
 167 167 l 1
 167 111 l 1
 56 111 l 1
444 111 m 1
 444 167 l 1
 556 167 l 1
 556 111 l 1
 444 111 l 1
56 56 m 1
 56 111 l 1
 167 111 l 1
 167 56 l 1
 56 56 l 1
444 56 m 1
 444 111 l 1
 556 111 l 1
 556 56 l 1
 444 56 l 1
0 0 m 1
 0 56 l 1
 222 56 l 1
 222 0 l 1
 0 0 l 1
389 0 m 1
 389 56 l 1
 611 56 l 1
 611 0 l 1
 389 0 l 1
EndSplineSet
EndChar

StartChar: Adieresis
Encoding: 196 196 135
Width: 611
Flags: HW
LayerCount: 2
Back
Fore
SplineSet
111 778 m 1
 111 833 l 1
 222 833 l 1
 222 778 l 1
 111 778 l 1
389 778 m 1
 389 833 l 1
 500 833 l 1
 500 778 l 1
 389 778 l 1
111 722 m 1
 111 778 l 1
 222 778 l 1
 222 722 l 1
 111 722 l 1
389 722 m 1
 389 778 l 1
 500 778 l 1
 500 722 l 1
 389 722 l 1
222 556 m 1
 222 611 l 1
 389 611 l 1
 389 556 l 1
 222 556 l 1
222 500 m 1
 222 556 l 1
 389 556 l 1
 389 500 l 1
 222 500 l 1
167 444 m 1
 167 500 l 1
 278 500 l 1
 278 444 l 1
 167 444 l 1
333 444 m 1
 333 500 l 1
 444 500 l 1
 444 444 l 1
 333 444 l 1
167 389 m 1
 167 444 l 1
 278 444 l 1
 278 389 l 1
 167 389 l 1
333 389 m 1
 333 444 l 1
 444 444 l 1
 444 389 l 1
 333 389 l 1
167 333 m 1
 167 389 l 1
 278 389 l 1
 278 333 l 1
 167 333 l 1
333 333 m 1
 333 389 l 1
 444 389 l 1
 444 333 l 1
 333 333 l 1
111 278 m 1
 111 333 l 1
 222 333 l 1
 222 278 l 1
 111 278 l 1
389 278 m 1
 389 333 l 1
 500 333 l 1
 500 278 l 1
 389 278 l 1
111 222 m 1
 111 278 l 1
 222 278 l 1
 222 222 l 1
 111 222 l 1
389 222 m 1
 389 278 l 1
 500 278 l 1
 500 222 l 1
 389 222 l 1
111 167 m 1
 111 222 l 1
 500 222 l 1
 500 167 l 1
 111 167 l 1
56 111 m 1
 56 167 l 1
 167 167 l 1
 167 111 l 1
 56 111 l 1
444 111 m 1
 444 167 l 1
 556 167 l 1
 556 111 l 1
 444 111 l 1
56 56 m 1
 56 111 l 1
 167 111 l 1
 167 56 l 1
 56 56 l 1
444 56 m 1
 444 111 l 1
 556 111 l 1
 556 56 l 1
 444 56 l 1
0 0 m 1
 0 56 l 1
 222 56 l 1
 222 0 l 1
 0 0 l 1
389 0 m 1
 389 56 l 1
 611 56 l 1
 611 0 l 1
 389 0 l 1
EndSplineSet
EndChar

StartChar: Aring
Encoding: 197 197 136
Width: 611
Flags: HW
LayerCount: 2
Back
Fore
SplineSet
167 778 m 1
 167 833 l 1
 444 833 l 1
 444 778 l 1
 167 778 l 1
111 722 m 1
 111 778 l 1
 222 778 l 1
 222 722 l 1
 111 722 l 1
389 722 m 1
 389 778 l 1
 500 778 l 1
 500 722 l 1
 389 722 l 1
111 667 m 1
 111 722 l 1
 222 722 l 1
 222 667 l 1
 111 667 l 1
389 667 m 1
 389 722 l 1
 500 722 l 1
 500 667 l 1
 389 667 l 1
111 611 m 1
 111 667 l 1
 222 667 l 1
 222 611 l 1
 111 611 l 1
389 611 m 1
 389 667 l 1
 500 667 l 1
 500 611 l 1
 389 611 l 1
167 556 m 1
 167 611 l 1
 444 611 l 1
 444 556 l 1
 167 556 l 1
222 500 m 1
 222 556 l 1
 389 556 l 1
 389 500 l 1
 222 500 l 1
167 444 m 1
 167 500 l 1
 278 500 l 1
 278 444 l 1
 167 444 l 1
333 444 m 1
 333 500 l 1
 444 500 l 1
 444 444 l 1
 333 444 l 1
167 389 m 1
 167 444 l 1
 278 444 l 1
 278 389 l 1
 167 389 l 1
333 389 m 1
 333 444 l 1
 444 444 l 1
 444 389 l 1
 333 389 l 1
167 333 m 1
 167 389 l 1
 278 389 l 1
 278 333 l 1
 167 333 l 1
333 333 m 1
 333 389 l 1
 444 389 l 1
 444 333 l 1
 333 333 l 1
111 278 m 1
 111 333 l 1
 222 333 l 1
 222 278 l 1
 111 278 l 1
389 278 m 1
 389 333 l 1
 500 333 l 1
 500 278 l 1
 389 278 l 1
111 222 m 1
 111 278 l 1
 222 278 l 1
 222 222 l 1
 111 222 l 1
389 222 m 1
 389 278 l 1
 500 278 l 1
 500 222 l 1
 389 222 l 1
111 167 m 1
 111 222 l 1
 500 222 l 1
 500 167 l 1
 111 167 l 1
56 111 m 1
 56 167 l 1
 167 167 l 1
 167 111 l 1
 56 111 l 1
444 111 m 1
 444 167 l 1
 556 167 l 1
 556 111 l 1
 444 111 l 1
56 56 m 1
 56 111 l 1
 167 111 l 1
 167 56 l 1
 56 56 l 1
444 56 m 1
 444 111 l 1
 556 111 l 1
 556 56 l 1
 444 56 l 1
0 0 m 1
 0 56 l 1
 222 56 l 1
 222 0 l 1
 0 0 l 1
389 0 m 1
 389 56 l 1
 611 56 l 1
 611 0 l 1
 389 0 l 1
EndSplineSet
EndChar

StartChar: AE
Encoding: 198 198 137
Width: 611
Flags: HW
LayerCount: 2
Back
Fore
SplineSet
167 556 m 1
 167 611 l 1
 611 611 l 1
 611 556 l 1
 167 556 l 1
167 500 m 1
 167 556 l 1
 389 556 l 1
 389 500 l 1
 167 500 l 1
556 500 m 1
 556 556 l 1
 611 556 l 1
 611 500 l 1
 556 500 l 1
167 444 m 1
 167 500 l 1
 222 500 l 1
 222 444 l 1
 167 444 l 1
278 444 m 1
 278 500 l 1
 389 500 l 1
 389 444 l 1
 278 444 l 1
556 444 m 1
 556 500 l 1
 611 500 l 1
 611 444 l 1
 556 444 l 1
167 389 m 1
 167 444 l 1
 222 444 l 1
 222 389 l 1
 167 389 l 1
278 389 m 1
 278 444 l 1
 389 444 l 1
 389 389 l 1
 278 389 l 1
444 389 m 1
 444 444 l 1
 500 444 l 1
 500 389 l 1
 444 389 l 1
556 389 m 1
 556 444 l 1
 611 444 l 1
 611 389 l 1
 556 389 l 1
111 333 m 1
 111 389 l 1
 222 389 l 1
 222 333 l 1
 111 333 l 1
278 333 m 1
 278 389 l 1
 389 389 l 1
 389 333 l 1
 278 333 l 1
444 333 m 1
 444 389 l 1
 500 389 l 1
 500 333 l 1
 444 333 l 1
111 278 m 1
 111 333 l 1
 167 333 l 1
 167 278 l 1
 111 278 l 1
278 278 m 1
 278 333 l 1
 500 333 l 1
 500 278 l 1
 278 278 l 1
111 222 m 1
 111 278 l 1
 167 278 l 1
 167 222 l 1
 111 222 l 1
278 222 m 1
 278 278 l 1
 389 278 l 1
 389 222 l 1
 278 222 l 1
444 222 m 1
 444 278 l 1
 500 278 l 1
 500 222 l 1
 444 222 l 1
56 167 m 1
 56 222 l 1
 389 222 l 1
 389 167 l 1
 56 167 l 1
556 167 m 1
 556 222 l 1
 611 222 l 1
 611 167 l 1
 556 167 l 1
56 111 m 1
 56 167 l 1
 111 167 l 1
 111 111 l 1
 56 111 l 1
278 111 m 1
 278 167 l 1
 389 167 l 1
 389 111 l 1
 278 111 l 1
556 111 m 1
 556 167 l 1
 611 167 l 1
 611 111 l 1
 556 111 l 1
56 56 m 1
 56 111 l 1
 111 111 l 1
 111 56 l 1
 56 56 l 1
278 56 m 1
 278 111 l 1
 389 111 l 1
 389 56 l 1
 278 56 l 1
556 56 m 1
 556 111 l 1
 611 111 l 1
 611 56 l 1
 556 56 l 1
0 0 m 1
 0 56 l 1
 167 56 l 1
 167 0 l 1
 0 0 l 1
222 0 m 1
 222 56 l 1
 611 56 l 1
 611 0 l 1
 222 0 l 1
EndSplineSet
EndChar

StartChar: Ccedilla
Encoding: 199 199 138
Width: 611
Flags: HW
LayerCount: 2
Back
Fore
SplineSet
167 556 m 1
 167 611 l 1
 444 611 l 1
 444 556 l 1
 167 556 l 1
500 556 m 1
 500 611 l 1
 556 611 l 1
 556 556 l 1
 500 556 l 1
111 500 m 1
 111 556 l 1
 222 556 l 1
 222 500 l 1
 111 500 l 1
389 500 m 1
 389 556 l 1
 556 556 l 1
 556 500 l 1
 389 500 l 1
56 444 m 1
 56 500 l 1
 167 500 l 1
 167 444 l 1
 56 444 l 1
444 444 m 1
 444 500 l 1
 556 500 l 1
 556 444 l 1
 444 444 l 1
56 389 m 1
 56 444 l 1
 167 444 l 1
 167 389 l 1
 56 389 l 1
444 389 m 1
 444 444 l 1
 556 444 l 1
 556 389 l 1
 444 389 l 1
56 333 m 1
 56 389 l 1
 167 389 l 1
 167 333 l 1
 56 333 l 1
56 278 m 1
 56 333 l 1
 167 333 l 1
 167 278 l 1
 56 278 l 1
56 222 m 1
 56 278 l 1
 167 278 l 1
 167 222 l 1
 56 222 l 1
56 167 m 1
 56 222 l 1
 167 222 l 1
 167 167 l 1
 56 167 l 1
56 111 m 1
 56 167 l 1
 167 167 l 1
 167 111 l 1
 56 111 l 1
500 111 m 1
 500 167 l 1
 556 167 l 1
 556 111 l 1
 500 111 l 1
111 56 m 1
 111 111 l 1
 222 111 l 1
 222 56 l 1
 111 56 l 1
444 56 m 1
 444 111 l 1
 556 111 l 1
 556 56 l 1
 444 56 l 1
167 0 m 1
 167 56 l 1
 500 56 l 1
 500 0 l 1
 167 0 l 1
278 -56 m 1
 278 0 l 1
 333 0 l 1
 333 -56 l 1
 278 -56 l 1
278 -111 m 1
 278 -56 l 1
 444 -56 l 1
 444 -111 l 1
 278 -111 l 1
389 -167 m 1
 389 -111 l 1
 500 -111 l 1
 500 -167 l 1
 389 -167 l 1
167 -222 m 1
 167 -167 l 1
 222 -167 l 1
 222 -222 l 1
 167 -222 l 1
389 -222 m 1
 389 -167 l 1
 500 -167 l 1
 500 -222 l 1
 389 -222 l 1
222 -278 m 1
 222 -222 l 1
 444 -222 l 1
 444 -278 l 1
 222 -278 l 1
EndSplineSet
EndChar

StartChar: Egrave
Encoding: 200 200 139
Width: 611
Flags: HW
LayerCount: 2
Back
Fore
SplineSet
222 778 m 1
 222 833 l 1
 389 833 l 1
 389 778 l 1
 222 778 l 1
333 722 m 1
 333 778 l 1
 444 778 l 1
 444 722 l 1
 333 722 l 1
444 667 m 1
 444 722 l 1
 500 722 l 1
 500 667 l 1
 444 667 l 1
56 556 m 1
 56 611 l 1
 556 611 l 1
 556 556 l 1
 56 556 l 1
167 500 m 1
 167 556 l 1
 278 556 l 1
 278 500 l 1
 167 500 l 1
500 500 m 1
 500 556 l 1
 556 556 l 1
 556 500 l 1
 500 500 l 1
167 444 m 1
 167 500 l 1
 278 500 l 1
 278 444 l 1
 167 444 l 1
500 444 m 1
 500 500 l 1
 556 500 l 1
 556 444 l 1
 500 444 l 1
167 389 m 1
 167 444 l 1
 278 444 l 1
 278 389 l 1
 167 389 l 1
389 389 m 1
 389 444 l 1
 444 444 l 1
 444 389 l 1
 389 389 l 1
167 333 m 1
 167 389 l 1
 278 389 l 1
 278 333 l 1
 167 333 l 1
389 333 m 1
 389 389 l 1
 444 389 l 1
 444 333 l 1
 389 333 l 1
167 278 m 1
 167 333 l 1
 444 333 l 1
 444 278 l 1
 167 278 l 1
167 222 m 1
 167 278 l 1
 278 278 l 1
 278 222 l 1
 167 222 l 1
389 222 m 1
 389 278 l 1
 444 278 l 1
 444 222 l 1
 389 222 l 1
167 167 m 1
 167 222 l 1
 278 222 l 1
 278 167 l 1
 167 167 l 1
500 167 m 1
 500 222 l 1
 556 222 l 1
 556 167 l 1
 500 167 l 1
167 111 m 1
 167 167 l 1
 278 167 l 1
 278 111 l 1
 167 111 l 1
500 111 m 1
 500 167 l 1
 556 167 l 1
 556 111 l 1
 500 111 l 1
167 56 m 1
 167 111 l 1
 278 111 l 1
 278 56 l 1
 167 56 l 1
500 56 m 1
 500 111 l 1
 556 111 l 1
 556 56 l 1
 500 56 l 1
56 0 m 1
 56 56 l 1
 556 56 l 1
 556 0 l 1
 56 0 l 1
EndSplineSet
EndChar

StartChar: Eacute
Encoding: 201 201 140
Width: 611
Flags: HW
LayerCount: 2
Back
Fore
SplineSet
333 778 m 1
 333 833 l 1
 500 833 l 1
 500 778 l 1
 333 778 l 1
278 722 m 1
 278 778 l 1
 389 778 l 1
 389 722 l 1
 278 722 l 1
222 667 m 1
 222 722 l 1
 278 722 l 1
 278 667 l 1
 222 667 l 1
56 556 m 1
 56 611 l 1
 556 611 l 1
 556 556 l 1
 56 556 l 1
167 500 m 1
 167 556 l 1
 278 556 l 1
 278 500 l 1
 167 500 l 1
500 500 m 1
 500 556 l 1
 556 556 l 1
 556 500 l 1
 500 500 l 1
167 444 m 1
 167 500 l 1
 278 500 l 1
 278 444 l 1
 167 444 l 1
500 444 m 1
 500 500 l 1
 556 500 l 1
 556 444 l 1
 500 444 l 1
167 389 m 1
 167 444 l 1
 278 444 l 1
 278 389 l 1
 167 389 l 1
389 389 m 1
 389 444 l 1
 444 444 l 1
 444 389 l 1
 389 389 l 1
167 333 m 1
 167 389 l 1
 278 389 l 1
 278 333 l 1
 167 333 l 1
389 333 m 1
 389 389 l 1
 444 389 l 1
 444 333 l 1
 389 333 l 1
167 278 m 1
 167 333 l 1
 444 333 l 1
 444 278 l 1
 167 278 l 1
167 222 m 1
 167 278 l 1
 278 278 l 1
 278 222 l 1
 167 222 l 1
389 222 m 1
 389 278 l 1
 444 278 l 1
 444 222 l 1
 389 222 l 1
167 167 m 1
 167 222 l 1
 278 222 l 1
 278 167 l 1
 167 167 l 1
500 167 m 1
 500 222 l 1
 556 222 l 1
 556 167 l 1
 500 167 l 1
167 111 m 1
 167 167 l 1
 278 167 l 1
 278 111 l 1
 167 111 l 1
500 111 m 1
 500 167 l 1
 556 167 l 1
 556 111 l 1
 500 111 l 1
167 56 m 1
 167 111 l 1
 278 111 l 1
 278 56 l 1
 167 56 l 1
500 56 m 1
 500 111 l 1
 556 111 l 1
 556 56 l 1
 500 56 l 1
56 0 m 1
 56 56 l 1
 556 56 l 1
 556 0 l 1
 56 0 l 1
EndSplineSet
EndChar

StartChar: Ecircumflex
Encoding: 202 202 141
Width: 611
Flags: HW
LayerCount: 2
Back
Fore
SplineSet
278 778 m 1
 278 833 l 1
 333 833 l 1
 333 778 l 1
 278 778 l 1
222 722 m 1
 222 778 l 1
 389 778 l 1
 389 722 l 1
 222 722 l 1
111 667 m 1
 111 722 l 1
 222 722 l 1
 222 667 l 1
 111 667 l 1
389 667 m 1
 389 722 l 1
 500 722 l 1
 500 667 l 1
 389 667 l 1
56 556 m 1
 56 611 l 1
 556 611 l 1
 556 556 l 1
 56 556 l 1
167 500 m 1
 167 556 l 1
 278 556 l 1
 278 500 l 1
 167 500 l 1
500 500 m 1
 500 556 l 1
 556 556 l 1
 556 500 l 1
 500 500 l 1
167 444 m 1
 167 500 l 1
 278 500 l 1
 278 444 l 1
 167 444 l 1
500 444 m 1
 500 500 l 1
 556 500 l 1
 556 444 l 1
 500 444 l 1
167 389 m 1
 167 444 l 1
 278 444 l 1
 278 389 l 1
 167 389 l 1
389 389 m 1
 389 444 l 1
 444 444 l 1
 444 389 l 1
 389 389 l 1
167 333 m 1
 167 389 l 1
 278 389 l 1
 278 333 l 1
 167 333 l 1
389 333 m 1
 389 389 l 1
 444 389 l 1
 444 333 l 1
 389 333 l 1
167 278 m 1
 167 333 l 1
 444 333 l 1
 444 278 l 1
 167 278 l 1
167 222 m 1
 167 278 l 1
 278 278 l 1
 278 222 l 1
 167 222 l 1
389 222 m 1
 389 278 l 1
 444 278 l 1
 444 222 l 1
 389 222 l 1
167 167 m 1
 167 222 l 1
 278 222 l 1
 278 167 l 1
 167 167 l 1
500 167 m 1
 500 222 l 1
 556 222 l 1
 556 167 l 1
 500 167 l 1
167 111 m 1
 167 167 l 1
 278 167 l 1
 278 111 l 1
 167 111 l 1
500 111 m 1
 500 167 l 1
 556 167 l 1
 556 111 l 1
 500 111 l 1
167 56 m 1
 167 111 l 1
 278 111 l 1
 278 56 l 1
 167 56 l 1
500 56 m 1
 500 111 l 1
 556 111 l 1
 556 56 l 1
 500 56 l 1
56 0 m 1
 56 56 l 1
 556 56 l 1
 556 0 l 1
 56 0 l 1
EndSplineSet
EndChar

StartChar: Edieresis
Encoding: 203 203 142
Width: 611
Flags: HW
LayerCount: 2
Back
Fore
SplineSet
111 778 m 1
 111 833 l 1
 222 833 l 1
 222 778 l 1
 111 778 l 1
389 778 m 1
 389 833 l 1
 500 833 l 1
 500 778 l 1
 389 778 l 1
111 722 m 1
 111 778 l 1
 222 778 l 1
 222 722 l 1
 111 722 l 1
389 722 m 1
 389 778 l 1
 500 778 l 1
 500 722 l 1
 389 722 l 1
56 556 m 1
 56 611 l 1
 556 611 l 1
 556 556 l 1
 56 556 l 1
167 500 m 1
 167 556 l 1
 278 556 l 1
 278 500 l 1
 167 500 l 1
500 500 m 1
 500 556 l 1
 556 556 l 1
 556 500 l 1
 500 500 l 1
167 444 m 1
 167 500 l 1
 278 500 l 1
 278 444 l 1
 167 444 l 1
500 444 m 1
 500 500 l 1
 556 500 l 1
 556 444 l 1
 500 444 l 1
167 389 m 1
 167 444 l 1
 278 444 l 1
 278 389 l 1
 167 389 l 1
389 389 m 1
 389 444 l 1
 444 444 l 1
 444 389 l 1
 389 389 l 1
167 333 m 1
 167 389 l 1
 278 389 l 1
 278 333 l 1
 167 333 l 1
389 333 m 1
 389 389 l 1
 444 389 l 1
 444 333 l 1
 389 333 l 1
167 278 m 1
 167 333 l 1
 444 333 l 1
 444 278 l 1
 167 278 l 1
167 222 m 1
 167 278 l 1
 278 278 l 1
 278 222 l 1
 167 222 l 1
389 222 m 1
 389 278 l 1
 444 278 l 1
 444 222 l 1
 389 222 l 1
167 167 m 1
 167 222 l 1
 278 222 l 1
 278 167 l 1
 167 167 l 1
500 167 m 1
 500 222 l 1
 556 222 l 1
 556 167 l 1
 500 167 l 1
167 111 m 1
 167 167 l 1
 278 167 l 1
 278 111 l 1
 167 111 l 1
500 111 m 1
 500 167 l 1
 556 167 l 1
 556 111 l 1
 500 111 l 1
167 56 m 1
 167 111 l 1
 278 111 l 1
 278 56 l 1
 167 56 l 1
500 56 m 1
 500 111 l 1
 556 111 l 1
 556 56 l 1
 500 56 l 1
56 0 m 1
 56 56 l 1
 556 56 l 1
 556 0 l 1
 56 0 l 1
EndSplineSet
EndChar

StartChar: Igrave
Encoding: 204 204 143
Width: 611
Flags: HW
LayerCount: 2
Back
Fore
SplineSet
167 778 m 1
 167 833 l 1
 333 833 l 1
 333 778 l 1
 167 778 l 1
278 722 m 1
 278 778 l 1
 389 778 l 1
 389 722 l 1
 278 722 l 1
389 667 m 1
 389 722 l 1
 444 722 l 1
 444 667 l 1
 389 667 l 1
111 556 m 1
 111 611 l 1
 556 611 l 1
 556 556 l 1
 111 556 l 1
278 500 m 1
 278 556 l 1
 389 556 l 1
 389 500 l 1
 278 500 l 1
278 444 m 1
 278 500 l 1
 389 500 l 1
 389 444 l 1
 278 444 l 1
278 389 m 1
 278 444 l 1
 389 444 l 1
 389 389 l 1
 278 389 l 1
278 333 m 1
 278 389 l 1
 389 389 l 1
 389 333 l 1
 278 333 l 1
278 278 m 1
 278 333 l 1
 389 333 l 1
 389 278 l 1
 278 278 l 1
278 222 m 1
 278 278 l 1
 389 278 l 1
 389 222 l 1
 278 222 l 1
278 167 m 1
 278 222 l 1
 389 222 l 1
 389 167 l 1
 278 167 l 1
278 111 m 1
 278 167 l 1
 389 167 l 1
 389 111 l 1
 278 111 l 1
278 56 m 1
 278 111 l 1
 389 111 l 1
 389 56 l 1
 278 56 l 1
111 0 m 1
 111 56 l 1
 556 56 l 1
 556 0 l 1
 111 0 l 1
EndSplineSet
EndChar

StartChar: Iacute
Encoding: 205 205 144
Width: 611
Flags: HW
LayerCount: 2
Back
Fore
SplineSet
333 778 m 1
 333 833 l 1
 500 833 l 1
 500 778 l 1
 333 778 l 1
278 722 m 1
 278 778 l 1
 389 778 l 1
 389 722 l 1
 278 722 l 1
222 667 m 1
 222 722 l 1
 278 722 l 1
 278 667 l 1
 222 667 l 1
111 556 m 1
 111 611 l 1
 556 611 l 1
 556 556 l 1
 111 556 l 1
278 500 m 1
 278 556 l 1
 389 556 l 1
 389 500 l 1
 278 500 l 1
278 444 m 1
 278 500 l 1
 389 500 l 1
 389 444 l 1
 278 444 l 1
278 389 m 1
 278 444 l 1
 389 444 l 1
 389 389 l 1
 278 389 l 1
278 333 m 1
 278 389 l 1
 389 389 l 1
 389 333 l 1
 278 333 l 1
278 278 m 1
 278 333 l 1
 389 333 l 1
 389 278 l 1
 278 278 l 1
278 222 m 1
 278 278 l 1
 389 278 l 1
 389 222 l 1
 278 222 l 1
278 167 m 1
 278 222 l 1
 389 222 l 1
 389 167 l 1
 278 167 l 1
278 111 m 1
 278 167 l 1
 389 167 l 1
 389 111 l 1
 278 111 l 1
278 56 m 1
 278 111 l 1
 389 111 l 1
 389 56 l 1
 278 56 l 1
111 0 m 1
 111 56 l 1
 556 56 l 1
 556 0 l 1
 111 0 l 1
EndSplineSet
EndChar

StartChar: Icircumflex
Encoding: 206 206 145
Width: 611
Flags: HW
LayerCount: 2
Back
Fore
SplineSet
333 778 m 1
 333 833 l 1
 389 833 l 1
 389 778 l 1
 333 778 l 1
278 722 m 1
 278 778 l 1
 444 778 l 1
 444 722 l 1
 278 722 l 1
167 667 m 1
 167 722 l 1
 278 722 l 1
 278 667 l 1
 167 667 l 1
444 667 m 1
 444 722 l 1
 556 722 l 1
 556 667 l 1
 444 667 l 1
111 556 m 1
 111 611 l 1
 556 611 l 1
 556 556 l 1
 111 556 l 1
278 500 m 1
 278 556 l 1
 389 556 l 1
 389 500 l 1
 278 500 l 1
278 444 m 1
 278 500 l 1
 389 500 l 1
 389 444 l 1
 278 444 l 1
278 389 m 1
 278 444 l 1
 389 444 l 1
 389 389 l 1
 278 389 l 1
278 333 m 1
 278 389 l 1
 389 389 l 1
 389 333 l 1
 278 333 l 1
278 278 m 1
 278 333 l 1
 389 333 l 1
 389 278 l 1
 278 278 l 1
278 222 m 1
 278 278 l 1
 389 278 l 1
 389 222 l 1
 278 222 l 1
278 167 m 1
 278 222 l 1
 389 222 l 1
 389 167 l 1
 278 167 l 1
278 111 m 1
 278 167 l 1
 389 167 l 1
 389 111 l 1
 278 111 l 1
278 56 m 1
 278 111 l 1
 389 111 l 1
 389 56 l 1
 278 56 l 1
111 0 m 1
 111 56 l 1
 556 56 l 1
 556 0 l 1
 111 0 l 1
EndSplineSet
EndChar

StartChar: Idieresis
Encoding: 207 207 146
Width: 611
Flags: HW
LayerCount: 2
Back
Fore
SplineSet
167 778 m 1
 167 833 l 1
 278 833 l 1
 278 778 l 1
 167 778 l 1
389 778 m 1
 389 833 l 1
 500 833 l 1
 500 778 l 1
 389 778 l 1
167 722 m 1
 167 778 l 1
 278 778 l 1
 278 722 l 1
 167 722 l 1
389 722 m 1
 389 778 l 1
 500 778 l 1
 500 722 l 1
 389 722 l 1
111 556 m 1
 111 611 l 1
 556 611 l 1
 556 556 l 1
 111 556 l 1
278 500 m 1
 278 556 l 1
 389 556 l 1
 389 500 l 1
 278 500 l 1
278 444 m 1
 278 500 l 1
 389 500 l 1
 389 444 l 1
 278 444 l 1
278 389 m 1
 278 444 l 1
 389 444 l 1
 389 389 l 1
 278 389 l 1
278 333 m 1
 278 389 l 1
 389 389 l 1
 389 333 l 1
 278 333 l 1
278 278 m 1
 278 333 l 1
 389 333 l 1
 389 278 l 1
 278 278 l 1
278 222 m 1
 278 278 l 1
 389 278 l 1
 389 222 l 1
 278 222 l 1
278 167 m 1
 278 222 l 1
 389 222 l 1
 389 167 l 1
 278 167 l 1
278 111 m 1
 278 167 l 1
 389 167 l 1
 389 111 l 1
 278 111 l 1
278 56 m 1
 278 111 l 1
 389 111 l 1
 389 56 l 1
 278 56 l 1
111 0 m 1
 111 56 l 1
 556 56 l 1
 556 0 l 1
 111 0 l 1
EndSplineSet
EndChar

StartChar: Eth
Encoding: 208 208 147
Width: 611
Flags: HW
LayerCount: 2
Back
Fore
SplineSet
111 556 m 1
 111 611 l 1
 500 611 l 1
 500 556 l 1
 111 556 l 1
167 500 m 1
 167 556 l 1
 278 556 l 1
 278 500 l 1
 167 500 l 1
444 500 m 1
 444 556 l 1
 556 556 l 1
 556 500 l 1
 444 500 l 1
167 444 m 1
 167 500 l 1
 278 500 l 1
 278 444 l 1
 167 444 l 1
500 444 m 1
 500 500 l 1
 611 500 l 1
 611 444 l 1
 500 444 l 1
167 389 m 1
 167 444 l 1
 278 444 l 1
 278 389 l 1
 167 389 l 1
500 389 m 1
 500 444 l 1
 611 444 l 1
 611 389 l 1
 500 389 l 1
167 333 m 1
 167 389 l 1
 278 389 l 1
 278 333 l 1
 167 333 l 1
500 333 m 1
 500 389 l 1
 611 389 l 1
 611 333 l 1
 500 333 l 1
56 278 m 1
 56 333 l 1
 444 333 l 1
 444 278 l 1
 56 278 l 1
500 278 m 1
 500 333 l 1
 611 333 l 1
 611 278 l 1
 500 278 l 1
167 222 m 1
 167 278 l 1
 278 278 l 1
 278 222 l 1
 167 222 l 1
500 222 m 1
 500 278 l 1
 611 278 l 1
 611 222 l 1
 500 222 l 1
167 167 m 1
 167 222 l 1
 278 222 l 1
 278 167 l 1
 167 167 l 1
500 167 m 1
 500 222 l 1
 611 222 l 1
 611 167 l 1
 500 167 l 1
167 111 m 1
 167 167 l 1
 278 167 l 1
 278 111 l 1
 167 111 l 1
500 111 m 1
 500 167 l 1
 611 167 l 1
 611 111 l 1
 500 111 l 1
167 56 m 1
 167 111 l 1
 278 111 l 1
 278 56 l 1
 167 56 l 1
444 56 m 1
 444 111 l 1
 556 111 l 1
 556 56 l 1
 444 56 l 1
111 0 m 1
 111 56 l 1
 500 56 l 1
 500 0 l 1
 111 0 l 1
EndSplineSet
EndChar

StartChar: Ntilde
Encoding: 209 209 148
Width: 611
Flags: HW
LayerCount: 2
Back
Fore
SplineSet
167 778 m 1
 167 833 l 1
 389 833 l 1
 389 778 l 1
 167 778 l 1
500 778 m 1
 500 833 l 1
 556 833 l 1
 556 778 l 1
 500 778 l 1
111 722 m 1
 111 778 l 1
 167 778 l 1
 167 722 l 1
 111 722 l 1
278 722 m 1
 278 778 l 1
 500 778 l 1
 500 722 l 1
 278 722 l 1
56 556 m 1
 56 611 l 1
 222 611 l 1
 222 556 l 1
 56 556 l 1
389 556 m 1
 389 611 l 1
 611 611 l 1
 611 556 l 1
 389 556 l 1
111 500 m 1
 111 556 l 1
 278 556 l 1
 278 500 l 1
 111 500 l 1
444 500 m 1
 444 556 l 1
 556 556 l 1
 556 500 l 1
 444 500 l 1
111 444 m 1
 111 500 l 1
 278 500 l 1
 278 444 l 1
 111 444 l 1
444 444 m 1
 444 500 l 1
 556 500 l 1
 556 444 l 1
 444 444 l 1
111 389 m 1
 111 444 l 1
 222 444 l 1
 222 389 l 1
 111 389 l 1
278 389 m 1
 278 444 l 1
 333 444 l 1
 333 389 l 1
 278 389 l 1
444 389 m 1
 444 444 l 1
 556 444 l 1
 556 389 l 1
 444 389 l 1
111 333 m 1
 111 389 l 1
 222 389 l 1
 222 333 l 1
 111 333 l 1
278 333 m 1
 278 389 l 1
 333 389 l 1
 333 333 l 1
 278 333 l 1
444 333 m 1
 444 389 l 1
 556 389 l 1
 556 333 l 1
 444 333 l 1
111 278 m 1
 111 333 l 1
 222 333 l 1
 222 278 l 1
 111 278 l 1
333 278 m 1
 333 333 l 1
 389 333 l 1
 389 278 l 1
 333 278 l 1
444 278 m 1
 444 333 l 1
 556 333 l 1
 556 278 l 1
 444 278 l 1
111 222 m 1
 111 278 l 1
 222 278 l 1
 222 222 l 1
 111 222 l 1
333 222 m 1
 333 278 l 1
 389 278 l 1
 389 222 l 1
 333 222 l 1
444 222 m 1
 444 278 l 1
 556 278 l 1
 556 222 l 1
 444 222 l 1
111 167 m 1
 111 222 l 1
 222 222 l 1
 222 167 l 1
 111 167 l 1
389 167 m 1
 389 222 l 1
 556 222 l 1
 556 167 l 1
 389 167 l 1
111 111 m 1
 111 167 l 1
 222 167 l 1
 222 111 l 1
 111 111 l 1
389 111 m 1
 389 167 l 1
 556 167 l 1
 556 111 l 1
 389 111 l 1
111 56 m 1
 111 111 l 1
 222 111 l 1
 222 56 l 1
 111 56 l 1
444 56 m 1
 444 111 l 1
 556 111 l 1
 556 56 l 1
 444 56 l 1
56 0 m 1
 56 56 l 1
 333 56 l 1
 333 0 l 1
 56 0 l 1
444 0 m 1
 444 56 l 1
 556 56 l 1
 556 0 l 1
 444 0 l 1
EndSplineSet
EndChar

StartChar: Ograve
Encoding: 210 210 149
Width: 611
Flags: HW
LayerCount: 2
Back
Fore
SplineSet
111 778 m 1
 111 833 l 1
 278 833 l 1
 278 778 l 1
 111 778 l 1
222 722 m 1
 222 778 l 1
 333 778 l 1
 333 722 l 1
 222 722 l 1
333 667 m 1
 333 722 l 1
 389 722 l 1
 389 667 l 1
 333 667 l 1
167 556 m 1
 167 611 l 1
 444 611 l 1
 444 556 l 1
 167 556 l 1
111 500 m 1
 111 556 l 1
 222 556 l 1
 222 500 l 1
 111 500 l 1
389 500 m 1
 389 556 l 1
 500 556 l 1
 500 500 l 1
 389 500 l 1
56 444 m 1
 56 500 l 1
 167 500 l 1
 167 444 l 1
 56 444 l 1
444 444 m 1
 444 500 l 1
 556 500 l 1
 556 444 l 1
 444 444 l 1
56 389 m 1
 56 444 l 1
 167 444 l 1
 167 389 l 1
 56 389 l 1
444 389 m 1
 444 444 l 1
 556 444 l 1
 556 389 l 1
 444 389 l 1
56 333 m 1
 56 389 l 1
 167 389 l 1
 167 333 l 1
 56 333 l 1
444 333 m 1
 444 389 l 1
 556 389 l 1
 556 333 l 1
 444 333 l 1
56 278 m 1
 56 333 l 1
 167 333 l 1
 167 278 l 1
 56 278 l 1
444 278 m 1
 444 333 l 1
 556 333 l 1
 556 278 l 1
 444 278 l 1
56 222 m 1
 56 278 l 1
 167 278 l 1
 167 222 l 1
 56 222 l 1
444 222 m 1
 444 278 l 1
 556 278 l 1
 556 222 l 1
 444 222 l 1
56 167 m 1
 56 222 l 1
 167 222 l 1
 167 167 l 1
 56 167 l 1
444 167 m 1
 444 222 l 1
 556 222 l 1
 556 167 l 1
 444 167 l 1
56 111 m 1
 56 167 l 1
 167 167 l 1
 167 111 l 1
 56 111 l 1
444 111 m 1
 444 167 l 1
 556 167 l 1
 556 111 l 1
 444 111 l 1
111 56 m 1
 111 111 l 1
 222 111 l 1
 222 56 l 1
 111 56 l 1
389 56 m 1
 389 111 l 1
 500 111 l 1
 500 56 l 1
 389 56 l 1
167 0 m 1
 167 56 l 1
 444 56 l 1
 444 0 l 1
 167 0 l 1
EndSplineSet
EndChar

StartChar: Oacute
Encoding: 211 211 150
Width: 611
Flags: HW
LayerCount: 2
Back
Fore
SplineSet
333 778 m 1
 333 833 l 1
 500 833 l 1
 500 778 l 1
 333 778 l 1
278 722 m 1
 278 778 l 1
 389 778 l 1
 389 722 l 1
 278 722 l 1
222 667 m 1
 222 722 l 1
 278 722 l 1
 278 667 l 1
 222 667 l 1
167 556 m 1
 167 611 l 1
 444 611 l 1
 444 556 l 1
 167 556 l 1
111 500 m 1
 111 556 l 1
 222 556 l 1
 222 500 l 1
 111 500 l 1
389 500 m 1
 389 556 l 1
 500 556 l 1
 500 500 l 1
 389 500 l 1
56 444 m 1
 56 500 l 1
 167 500 l 1
 167 444 l 1
 56 444 l 1
444 444 m 1
 444 500 l 1
 556 500 l 1
 556 444 l 1
 444 444 l 1
56 389 m 1
 56 444 l 1
 167 444 l 1
 167 389 l 1
 56 389 l 1
444 389 m 1
 444 444 l 1
 556 444 l 1
 556 389 l 1
 444 389 l 1
56 333 m 1
 56 389 l 1
 167 389 l 1
 167 333 l 1
 56 333 l 1
444 333 m 1
 444 389 l 1
 556 389 l 1
 556 333 l 1
 444 333 l 1
56 278 m 1
 56 333 l 1
 167 333 l 1
 167 278 l 1
 56 278 l 1
444 278 m 1
 444 333 l 1
 556 333 l 1
 556 278 l 1
 444 278 l 1
56 222 m 1
 56 278 l 1
 167 278 l 1
 167 222 l 1
 56 222 l 1
444 222 m 1
 444 278 l 1
 556 278 l 1
 556 222 l 1
 444 222 l 1
56 167 m 1
 56 222 l 1
 167 222 l 1
 167 167 l 1
 56 167 l 1
444 167 m 1
 444 222 l 1
 556 222 l 1
 556 167 l 1
 444 167 l 1
56 111 m 1
 56 167 l 1
 167 167 l 1
 167 111 l 1
 56 111 l 1
444 111 m 1
 444 167 l 1
 556 167 l 1
 556 111 l 1
 444 111 l 1
111 56 m 1
 111 111 l 1
 222 111 l 1
 222 56 l 1
 111 56 l 1
389 56 m 1
 389 111 l 1
 500 111 l 1
 500 56 l 1
 389 56 l 1
167 0 m 1
 167 56 l 1
 444 56 l 1
 444 0 l 1
 167 0 l 1
EndSplineSet
EndChar

StartChar: Ocircumflex
Encoding: 212 212 151
Width: 611
Flags: HW
LayerCount: 2
Back
Fore
SplineSet
278 778 m 1
 278 833 l 1
 333 833 l 1
 333 778 l 1
 278 778 l 1
222 722 m 1
 222 778 l 1
 389 778 l 1
 389 722 l 1
 222 722 l 1
111 667 m 1
 111 722 l 1
 222 722 l 1
 222 667 l 1
 111 667 l 1
389 667 m 1
 389 722 l 1
 500 722 l 1
 500 667 l 1
 389 667 l 1
167 556 m 1
 167 611 l 1
 444 611 l 1
 444 556 l 1
 167 556 l 1
111 500 m 1
 111 556 l 1
 222 556 l 1
 222 500 l 1
 111 500 l 1
389 500 m 1
 389 556 l 1
 500 556 l 1
 500 500 l 1
 389 500 l 1
56 444 m 1
 56 500 l 1
 167 500 l 1
 167 444 l 1
 56 444 l 1
444 444 m 1
 444 500 l 1
 556 500 l 1
 556 444 l 1
 444 444 l 1
56 389 m 1
 56 444 l 1
 167 444 l 1
 167 389 l 1
 56 389 l 1
444 389 m 1
 444 444 l 1
 556 444 l 1
 556 389 l 1
 444 389 l 1
56 333 m 1
 56 389 l 1
 167 389 l 1
 167 333 l 1
 56 333 l 1
444 333 m 1
 444 389 l 1
 556 389 l 1
 556 333 l 1
 444 333 l 1
56 278 m 1
 56 333 l 1
 167 333 l 1
 167 278 l 1
 56 278 l 1
444 278 m 1
 444 333 l 1
 556 333 l 1
 556 278 l 1
 444 278 l 1
56 222 m 1
 56 278 l 1
 167 278 l 1
 167 222 l 1
 56 222 l 1
444 222 m 1
 444 278 l 1
 556 278 l 1
 556 222 l 1
 444 222 l 1
56 167 m 1
 56 222 l 1
 167 222 l 1
 167 167 l 1
 56 167 l 1
444 167 m 1
 444 222 l 1
 556 222 l 1
 556 167 l 1
 444 167 l 1
56 111 m 1
 56 167 l 1
 167 167 l 1
 167 111 l 1
 56 111 l 1
444 111 m 1
 444 167 l 1
 556 167 l 1
 556 111 l 1
 444 111 l 1
111 56 m 1
 111 111 l 1
 222 111 l 1
 222 56 l 1
 111 56 l 1
389 56 m 1
 389 111 l 1
 500 111 l 1
 500 56 l 1
 389 56 l 1
167 0 m 1
 167 56 l 1
 444 56 l 1
 444 0 l 1
 167 0 l 1
EndSplineSet
EndChar

StartChar: Otilde
Encoding: 213 213 152
Width: 611
Flags: HW
LayerCount: 2
Back
Fore
SplineSet
167 778 m 1
 167 833 l 1
 389 833 l 1
 389 778 l 1
 167 778 l 1
500 778 m 1
 500 833 l 1
 556 833 l 1
 556 778 l 1
 500 778 l 1
111 722 m 1
 111 778 l 1
 167 778 l 1
 167 722 l 1
 111 722 l 1
278 722 m 1
 278 778 l 1
 500 778 l 1
 500 722 l 1
 278 722 l 1
167 556 m 1
 167 611 l 1
 444 611 l 1
 444 556 l 1
 167 556 l 1
111 500 m 1
 111 556 l 1
 222 556 l 1
 222 500 l 1
 111 500 l 1
389 500 m 1
 389 556 l 1
 500 556 l 1
 500 500 l 1
 389 500 l 1
56 444 m 1
 56 500 l 1
 167 500 l 1
 167 444 l 1
 56 444 l 1
444 444 m 1
 444 500 l 1
 556 500 l 1
 556 444 l 1
 444 444 l 1
56 389 m 1
 56 444 l 1
 167 444 l 1
 167 389 l 1
 56 389 l 1
444 389 m 1
 444 444 l 1
 556 444 l 1
 556 389 l 1
 444 389 l 1
56 333 m 1
 56 389 l 1
 167 389 l 1
 167 333 l 1
 56 333 l 1
444 333 m 1
 444 389 l 1
 556 389 l 1
 556 333 l 1
 444 333 l 1
56 278 m 1
 56 333 l 1
 167 333 l 1
 167 278 l 1
 56 278 l 1
444 278 m 1
 444 333 l 1
 556 333 l 1
 556 278 l 1
 444 278 l 1
56 222 m 1
 56 278 l 1
 167 278 l 1
 167 222 l 1
 56 222 l 1
444 222 m 1
 444 278 l 1
 556 278 l 1
 556 222 l 1
 444 222 l 1
56 167 m 1
 56 222 l 1
 167 222 l 1
 167 167 l 1
 56 167 l 1
444 167 m 1
 444 222 l 1
 556 222 l 1
 556 167 l 1
 444 167 l 1
56 111 m 1
 56 167 l 1
 167 167 l 1
 167 111 l 1
 56 111 l 1
444 111 m 1
 444 167 l 1
 556 167 l 1
 556 111 l 1
 444 111 l 1
111 56 m 1
 111 111 l 1
 222 111 l 1
 222 56 l 1
 111 56 l 1
389 56 m 1
 389 111 l 1
 500 111 l 1
 500 56 l 1
 389 56 l 1
167 0 m 1
 167 56 l 1
 444 56 l 1
 444 0 l 1
 167 0 l 1
EndSplineSet
EndChar

StartChar: Odieresis
Encoding: 214 214 153
Width: 611
Flags: HW
LayerCount: 2
Back
Fore
SplineSet
111 778 m 1
 111 833 l 1
 222 833 l 1
 222 778 l 1
 111 778 l 1
389 778 m 1
 389 833 l 1
 500 833 l 1
 500 778 l 1
 389 778 l 1
111 722 m 1
 111 778 l 1
 222 778 l 1
 222 722 l 1
 111 722 l 1
389 722 m 1
 389 778 l 1
 500 778 l 1
 500 722 l 1
 389 722 l 1
167 556 m 1
 167 611 l 1
 444 611 l 1
 444 556 l 1
 167 556 l 1
111 500 m 1
 111 556 l 1
 222 556 l 1
 222 500 l 1
 111 500 l 1
389 500 m 1
 389 556 l 1
 500 556 l 1
 500 500 l 1
 389 500 l 1
56 444 m 1
 56 500 l 1
 167 500 l 1
 167 444 l 1
 56 444 l 1
444 444 m 1
 444 500 l 1
 556 500 l 1
 556 444 l 1
 444 444 l 1
56 389 m 1
 56 444 l 1
 167 444 l 1
 167 389 l 1
 56 389 l 1
444 389 m 1
 444 444 l 1
 556 444 l 1
 556 389 l 1
 444 389 l 1
56 333 m 1
 56 389 l 1
 167 389 l 1
 167 333 l 1
 56 333 l 1
444 333 m 1
 444 389 l 1
 556 389 l 1
 556 333 l 1
 444 333 l 1
56 278 m 1
 56 333 l 1
 167 333 l 1
 167 278 l 1
 56 278 l 1
444 278 m 1
 444 333 l 1
 556 333 l 1
 556 278 l 1
 444 278 l 1
56 222 m 1
 56 278 l 1
 167 278 l 1
 167 222 l 1
 56 222 l 1
444 222 m 1
 444 278 l 1
 556 278 l 1
 556 222 l 1
 444 222 l 1
56 167 m 1
 56 222 l 1
 167 222 l 1
 167 167 l 1
 56 167 l 1
444 167 m 1
 444 222 l 1
 556 222 l 1
 556 167 l 1
 444 167 l 1
56 111 m 1
 56 167 l 1
 167 167 l 1
 167 111 l 1
 56 111 l 1
444 111 m 1
 444 167 l 1
 556 167 l 1
 556 111 l 1
 444 111 l 1
111 56 m 1
 111 111 l 1
 222 111 l 1
 222 56 l 1
 111 56 l 1
389 56 m 1
 389 111 l 1
 500 111 l 1
 500 56 l 1
 389 56 l 1
167 0 m 1
 167 56 l 1
 444 56 l 1
 444 0 l 1
 167 0 l 1
EndSplineSet
EndChar

StartChar: multiply
Encoding: 215 215 154
Width: 611
Flags: HW
LayerCount: 2
Back
Fore
SplineSet
111 444 m 1
 111 500 l 1
 167 500 l 1
 167 444 l 1
 111 444 l 1
444 444 m 1
 444 500 l 1
 500 500 l 1
 500 444 l 1
 444 444 l 1
111 389 m 1
 111 444 l 1
 222 444 l 1
 222 389 l 1
 111 389 l 1
389 389 m 1
 389 444 l 1
 500 444 l 1
 500 389 l 1
 389 389 l 1
167 333 m 1
 167 389 l 1
 278 389 l 1
 278 333 l 1
 167 333 l 1
333 333 m 1
 333 389 l 1
 444 389 l 1
 444 333 l 1
 333 333 l 1
222 278 m 1
 222 333 l 1
 389 333 l 1
 389 278 l 1
 222 278 l 1
222 222 m 1
 222 278 l 1
 389 278 l 1
 389 222 l 1
 222 222 l 1
167 167 m 1
 167 222 l 1
 278 222 l 1
 278 167 l 1
 167 167 l 1
333 167 m 1
 333 222 l 1
 444 222 l 1
 444 167 l 1
 333 167 l 1
111 111 m 1
 111 167 l 1
 222 167 l 1
 222 111 l 1
 111 111 l 1
389 111 m 1
 389 167 l 1
 500 167 l 1
 500 111 l 1
 389 111 l 1
111 56 m 1
 111 111 l 1
 167 111 l 1
 167 56 l 1
 111 56 l 1
444 56 m 1
 444 111 l 1
 500 111 l 1
 500 56 l 1
 444 56 l 1
EndSplineSet
EndChar

StartChar: Oslash
Encoding: 216 216 155
Width: 611
Flags: HW
LayerCount: 2
Back
Fore
SplineSet
444 611 m 1
 444 667 l 1
 500 667 l 1
 500 611 l 1
 444 611 l 1
167 556 m 1
 167 611 l 1
 500 611 l 1
 500 556 l 1
 167 556 l 1
111 500 m 1
 111 556 l 1
 222 556 l 1
 222 500 l 1
 111 500 l 1
389 500 m 1
 389 556 l 1
 500 556 l 1
 500 500 l 1
 389 500 l 1
56 444 m 1
 56 500 l 1
 167 500 l 1
 167 444 l 1
 56 444 l 1
333 444 m 1
 333 500 l 1
 556 500 l 1
 556 444 l 1
 333 444 l 1
56 389 m 1
 56 444 l 1
 167 444 l 1
 167 389 l 1
 56 389 l 1
333 389 m 1
 333 444 l 1
 389 444 l 1
 389 389 l 1
 333 389 l 1
444 389 m 1
 444 444 l 1
 556 444 l 1
 556 389 l 1
 444 389 l 1
56 333 m 1
 56 389 l 1
 167 389 l 1
 167 333 l 1
 56 333 l 1
278 333 m 1
 278 389 l 1
 389 389 l 1
 389 333 l 1
 278 333 l 1
444 333 m 1
 444 389 l 1
 556 389 l 1
 556 333 l 1
 444 333 l 1
56 278 m 1
 56 333 l 1
 167 333 l 1
 167 278 l 1
 56 278 l 1
278 278 m 1
 278 333 l 1
 333 333 l 1
 333 278 l 1
 278 278 l 1
444 278 m 1
 444 333 l 1
 556 333 l 1
 556 278 l 1
 444 278 l 1
56 222 m 1
 56 278 l 1
 167 278 l 1
 167 222 l 1
 56 222 l 1
222 222 m 1
 222 278 l 1
 333 278 l 1
 333 222 l 1
 222 222 l 1
444 222 m 1
 444 278 l 1
 556 278 l 1
 556 222 l 1
 444 222 l 1
56 167 m 1
 56 222 l 1
 167 222 l 1
 167 167 l 1
 56 167 l 1
222 167 m 1
 222 222 l 1
 278 222 l 1
 278 167 l 1
 222 167 l 1
444 167 m 1
 444 222 l 1
 556 222 l 1
 556 167 l 1
 444 167 l 1
56 111 m 1
 56 167 l 1
 278 167 l 1
 278 111 l 1
 56 111 l 1
444 111 m 1
 444 167 l 1
 556 167 l 1
 556 111 l 1
 444 111 l 1
111 56 m 1
 111 111 l 1
 222 111 l 1
 222 56 l 1
 111 56 l 1
389 56 m 1
 389 111 l 1
 500 111 l 1
 500 56 l 1
 389 56 l 1
111 0 m 1
 111 56 l 1
 444 56 l 1
 444 0 l 1
 111 0 l 1
111 -56 m 1
 111 0 l 1
 167 0 l 1
 167 -56 l 1
 111 -56 l 1
EndSplineSet
EndChar

StartChar: Ugrave
Encoding: 217 217 156
Width: 611
Flags: HW
LayerCount: 2
Back
Fore
SplineSet
167 778 m 1
 167 833 l 1
 333 833 l 1
 333 778 l 1
 167 778 l 1
278 722 m 1
 278 778 l 1
 389 778 l 1
 389 722 l 1
 278 722 l 1
389 667 m 1
 389 722 l 1
 444 722 l 1
 444 667 l 1
 389 667 l 1
56 556 m 1
 56 611 l 1
 278 611 l 1
 278 556 l 1
 56 556 l 1
389 556 m 1
 389 611 l 1
 611 611 l 1
 611 556 l 1
 389 556 l 1
111 500 m 1
 111 556 l 1
 222 556 l 1
 222 500 l 1
 111 500 l 1
444 500 m 1
 444 556 l 1
 556 556 l 1
 556 500 l 1
 444 500 l 1
111 444 m 1
 111 500 l 1
 222 500 l 1
 222 444 l 1
 111 444 l 1
444 444 m 1
 444 500 l 1
 556 500 l 1
 556 444 l 1
 444 444 l 1
111 389 m 1
 111 444 l 1
 222 444 l 1
 222 389 l 1
 111 389 l 1
444 389 m 1
 444 444 l 1
 556 444 l 1
 556 389 l 1
 444 389 l 1
111 333 m 1
 111 389 l 1
 222 389 l 1
 222 333 l 1
 111 333 l 1
444 333 m 1
 444 389 l 1
 556 389 l 1
 556 333 l 1
 444 333 l 1
111 278 m 1
 111 333 l 1
 222 333 l 1
 222 278 l 1
 111 278 l 1
444 278 m 1
 444 333 l 1
 556 333 l 1
 556 278 l 1
 444 278 l 1
111 222 m 1
 111 278 l 1
 222 278 l 1
 222 222 l 1
 111 222 l 1
444 222 m 1
 444 278 l 1
 556 278 l 1
 556 222 l 1
 444 222 l 1
111 167 m 1
 111 222 l 1
 222 222 l 1
 222 167 l 1
 111 167 l 1
444 167 m 1
 444 222 l 1
 556 222 l 1
 556 167 l 1
 444 167 l 1
111 111 m 1
 111 167 l 1
 222 167 l 1
 222 111 l 1
 111 111 l 1
444 111 m 1
 444 167 l 1
 556 167 l 1
 556 111 l 1
 444 111 l 1
167 56 m 1
 167 111 l 1
 278 111 l 1
 278 56 l 1
 167 56 l 1
389 56 m 1
 389 111 l 1
 500 111 l 1
 500 56 l 1
 389 56 l 1
222 0 m 1
 222 56 l 1
 444 56 l 1
 444 0 l 1
 222 0 l 1
EndSplineSet
EndChar

StartChar: Uacute
Encoding: 218 218 157
Width: 611
Flags: HW
LayerCount: 2
Back
Fore
SplineSet
333 778 m 1
 333 833 l 1
 500 833 l 1
 500 778 l 1
 333 778 l 1
278 722 m 1
 278 778 l 1
 389 778 l 1
 389 722 l 1
 278 722 l 1
222 667 m 1
 222 722 l 1
 278 722 l 1
 278 667 l 1
 222 667 l 1
56 556 m 1
 56 611 l 1
 278 611 l 1
 278 556 l 1
 56 556 l 1
389 556 m 1
 389 611 l 1
 611 611 l 1
 611 556 l 1
 389 556 l 1
111 500 m 1
 111 556 l 1
 222 556 l 1
 222 500 l 1
 111 500 l 1
444 500 m 1
 444 556 l 1
 556 556 l 1
 556 500 l 1
 444 500 l 1
111 444 m 1
 111 500 l 1
 222 500 l 1
 222 444 l 1
 111 444 l 1
444 444 m 1
 444 500 l 1
 556 500 l 1
 556 444 l 1
 444 444 l 1
111 389 m 1
 111 444 l 1
 222 444 l 1
 222 389 l 1
 111 389 l 1
444 389 m 1
 444 444 l 1
 556 444 l 1
 556 389 l 1
 444 389 l 1
111 333 m 1
 111 389 l 1
 222 389 l 1
 222 333 l 1
 111 333 l 1
444 333 m 1
 444 389 l 1
 556 389 l 1
 556 333 l 1
 444 333 l 1
111 278 m 1
 111 333 l 1
 222 333 l 1
 222 278 l 1
 111 278 l 1
444 278 m 1
 444 333 l 1
 556 333 l 1
 556 278 l 1
 444 278 l 1
111 222 m 1
 111 278 l 1
 222 278 l 1
 222 222 l 1
 111 222 l 1
444 222 m 1
 444 278 l 1
 556 278 l 1
 556 222 l 1
 444 222 l 1
111 167 m 1
 111 222 l 1
 222 222 l 1
 222 167 l 1
 111 167 l 1
444 167 m 1
 444 222 l 1
 556 222 l 1
 556 167 l 1
 444 167 l 1
111 111 m 1
 111 167 l 1
 222 167 l 1
 222 111 l 1
 111 111 l 1
444 111 m 1
 444 167 l 1
 556 167 l 1
 556 111 l 1
 444 111 l 1
167 56 m 1
 167 111 l 1
 278 111 l 1
 278 56 l 1
 167 56 l 1
389 56 m 1
 389 111 l 1
 500 111 l 1
 500 56 l 1
 389 56 l 1
222 0 m 1
 222 56 l 1
 444 56 l 1
 444 0 l 1
 222 0 l 1
EndSplineSet
EndChar

StartChar: Ucircumflex
Encoding: 219 219 158
Width: 611
Flags: HW
LayerCount: 2
Back
Fore
SplineSet
278 778 m 1
 278 833 l 1
 333 833 l 1
 333 778 l 1
 278 778 l 1
222 722 m 1
 222 778 l 1
 389 778 l 1
 389 722 l 1
 222 722 l 1
111 667 m 1
 111 722 l 1
 222 722 l 1
 222 667 l 1
 111 667 l 1
389 667 m 1
 389 722 l 1
 500 722 l 1
 500 667 l 1
 389 667 l 1
56 556 m 1
 56 611 l 1
 278 611 l 1
 278 556 l 1
 56 556 l 1
389 556 m 1
 389 611 l 1
 611 611 l 1
 611 556 l 1
 389 556 l 1
111 500 m 1
 111 556 l 1
 222 556 l 1
 222 500 l 1
 111 500 l 1
444 500 m 1
 444 556 l 1
 556 556 l 1
 556 500 l 1
 444 500 l 1
111 444 m 1
 111 500 l 1
 222 500 l 1
 222 444 l 1
 111 444 l 1
444 444 m 1
 444 500 l 1
 556 500 l 1
 556 444 l 1
 444 444 l 1
111 389 m 1
 111 444 l 1
 222 444 l 1
 222 389 l 1
 111 389 l 1
444 389 m 1
 444 444 l 1
 556 444 l 1
 556 389 l 1
 444 389 l 1
111 333 m 1
 111 389 l 1
 222 389 l 1
 222 333 l 1
 111 333 l 1
444 333 m 1
 444 389 l 1
 556 389 l 1
 556 333 l 1
 444 333 l 1
111 278 m 1
 111 333 l 1
 222 333 l 1
 222 278 l 1
 111 278 l 1
444 278 m 1
 444 333 l 1
 556 333 l 1
 556 278 l 1
 444 278 l 1
111 222 m 1
 111 278 l 1
 222 278 l 1
 222 222 l 1
 111 222 l 1
444 222 m 1
 444 278 l 1
 556 278 l 1
 556 222 l 1
 444 222 l 1
111 167 m 1
 111 222 l 1
 222 222 l 1
 222 167 l 1
 111 167 l 1
444 167 m 1
 444 222 l 1
 556 222 l 1
 556 167 l 1
 444 167 l 1
111 111 m 1
 111 167 l 1
 222 167 l 1
 222 111 l 1
 111 111 l 1
444 111 m 1
 444 167 l 1
 556 167 l 1
 556 111 l 1
 444 111 l 1
167 56 m 1
 167 111 l 1
 278 111 l 1
 278 56 l 1
 167 56 l 1
389 56 m 1
 389 111 l 1
 500 111 l 1
 500 56 l 1
 389 56 l 1
222 0 m 1
 222 56 l 1
 444 56 l 1
 444 0 l 1
 222 0 l 1
EndSplineSet
EndChar

StartChar: Udieresis
Encoding: 220 220 159
Width: 611
Flags: HW
LayerCount: 2
Back
Fore
SplineSet
167 778 m 1
 167 833 l 1
 278 833 l 1
 278 778 l 1
 167 778 l 1
389 778 m 1
 389 833 l 1
 500 833 l 1
 500 778 l 1
 389 778 l 1
167 722 m 1
 167 778 l 1
 278 778 l 1
 278 722 l 1
 167 722 l 1
389 722 m 1
 389 778 l 1
 500 778 l 1
 500 722 l 1
 389 722 l 1
56 556 m 1
 56 611 l 1
 278 611 l 1
 278 556 l 1
 56 556 l 1
389 556 m 1
 389 611 l 1
 611 611 l 1
 611 556 l 1
 389 556 l 1
111 500 m 1
 111 556 l 1
 222 556 l 1
 222 500 l 1
 111 500 l 1
444 500 m 1
 444 556 l 1
 556 556 l 1
 556 500 l 1
 444 500 l 1
111 444 m 1
 111 500 l 1
 222 500 l 1
 222 444 l 1
 111 444 l 1
444 444 m 1
 444 500 l 1
 556 500 l 1
 556 444 l 1
 444 444 l 1
111 389 m 1
 111 444 l 1
 222 444 l 1
 222 389 l 1
 111 389 l 1
444 389 m 1
 444 444 l 1
 556 444 l 1
 556 389 l 1
 444 389 l 1
111 333 m 1
 111 389 l 1
 222 389 l 1
 222 333 l 1
 111 333 l 1
444 333 m 1
 444 389 l 1
 556 389 l 1
 556 333 l 1
 444 333 l 1
111 278 m 1
 111 333 l 1
 222 333 l 1
 222 278 l 1
 111 278 l 1
444 278 m 1
 444 333 l 1
 556 333 l 1
 556 278 l 1
 444 278 l 1
111 222 m 1
 111 278 l 1
 222 278 l 1
 222 222 l 1
 111 222 l 1
444 222 m 1
 444 278 l 1
 556 278 l 1
 556 222 l 1
 444 222 l 1
111 167 m 1
 111 222 l 1
 222 222 l 1
 222 167 l 1
 111 167 l 1
444 167 m 1
 444 222 l 1
 556 222 l 1
 556 167 l 1
 444 167 l 1
111 111 m 1
 111 167 l 1
 222 167 l 1
 222 111 l 1
 111 111 l 1
444 111 m 1
 444 167 l 1
 556 167 l 1
 556 111 l 1
 444 111 l 1
167 56 m 1
 167 111 l 1
 278 111 l 1
 278 56 l 1
 167 56 l 1
389 56 m 1
 389 111 l 1
 500 111 l 1
 500 56 l 1
 389 56 l 1
222 0 m 1
 222 56 l 1
 444 56 l 1
 444 0 l 1
 222 0 l 1
EndSplineSet
EndChar

StartChar: Yacute
Encoding: 221 221 160
Width: 611
Flags: HW
LayerCount: 2
Back
Fore
SplineSet
333 778 m 1
 333 833 l 1
 500 833 l 1
 500 778 l 1
 333 778 l 1
278 722 m 1
 278 778 l 1
 389 778 l 1
 389 722 l 1
 278 722 l 1
222 667 m 1
 222 722 l 1
 278 722 l 1
 278 667 l 1
 222 667 l 1
56 556 m 1
 56 611 l 1
 278 611 l 1
 278 556 l 1
 56 556 l 1
389 556 m 1
 389 611 l 1
 611 611 l 1
 611 556 l 1
 389 556 l 1
111 500 m 1
 111 556 l 1
 222 556 l 1
 222 500 l 1
 111 500 l 1
444 500 m 1
 444 556 l 1
 556 556 l 1
 556 500 l 1
 444 500 l 1
167 444 m 1
 167 500 l 1
 222 500 l 1
 222 444 l 1
 167 444 l 1
444 444 m 1
 444 500 l 1
 500 500 l 1
 500 444 l 1
 444 444 l 1
167 389 m 1
 167 444 l 1
 278 444 l 1
 278 389 l 1
 167 389 l 1
389 389 m 1
 389 444 l 1
 500 444 l 1
 500 389 l 1
 389 389 l 1
222 333 m 1
 222 389 l 1
 278 389 l 1
 278 333 l 1
 222 333 l 1
389 333 m 1
 389 389 l 1
 444 389 l 1
 444 333 l 1
 389 333 l 1
222 278 m 1
 222 333 l 1
 444 333 l 1
 444 278 l 1
 222 278 l 1
278 222 m 1
 278 278 l 1
 389 278 l 1
 389 222 l 1
 278 222 l 1
278 167 m 1
 278 222 l 1
 389 222 l 1
 389 167 l 1
 278 167 l 1
278 111 m 1
 278 167 l 1
 389 167 l 1
 389 111 l 1
 278 111 l 1
278 56 m 1
 278 111 l 1
 389 111 l 1
 389 56 l 1
 278 56 l 1
167 0 m 1
 167 56 l 1
 500 56 l 1
 500 0 l 1
 167 0 l 1
EndSplineSet
EndChar

StartChar: Thorn
Encoding: 222 222 161
Width: 611
Flags: HW
LayerCount: 2
Back
Fore
SplineSet
56 556 m 1
 56 611 l 1
 444 611 l 1
 444 556 l 1
 56 556 l 1
167 500 m 1
 167 556 l 1
 278 556 l 1
 278 500 l 1
 167 500 l 1
167 444 m 1
 167 500 l 1
 500 500 l 1
 500 444 l 1
 167 444 l 1
167 389 m 1
 167 444 l 1
 278 444 l 1
 278 389 l 1
 167 389 l 1
444 389 m 1
 444 444 l 1
 556 444 l 1
 556 389 l 1
 444 389 l 1
167 333 m 1
 167 389 l 1
 278 389 l 1
 278 333 l 1
 167 333 l 1
444 333 m 1
 444 389 l 1
 556 389 l 1
 556 333 l 1
 444 333 l 1
167 278 m 1
 167 333 l 1
 278 333 l 1
 278 278 l 1
 167 278 l 1
444 278 m 1
 444 333 l 1
 556 333 l 1
 556 278 l 1
 444 278 l 1
167 222 m 1
 167 278 l 1
 278 278 l 1
 278 222 l 1
 167 222 l 1
444 222 m 1
 444 278 l 1
 556 278 l 1
 556 222 l 1
 444 222 l 1
167 167 m 1
 167 222 l 1
 278 222 l 1
 278 167 l 1
 167 167 l 1
444 167 m 1
 444 222 l 1
 556 222 l 1
 556 167 l 1
 444 167 l 1
167 111 m 1
 167 167 l 1
 500 167 l 1
 500 111 l 1
 167 111 l 1
167 56 m 1
 167 111 l 1
 278 111 l 1
 278 56 l 1
 167 56 l 1
56 0 m 1
 56 56 l 1
 444 56 l 1
 444 0 l 1
 56 0 l 1
EndSplineSet
EndChar

StartChar: germandbls
Encoding: 223 223 162
Width: 611
Flags: HW
LayerCount: 2
Back
Fore
SplineSet
222 611 m 1
 222 667 l 1
 500 667 l 1
 500 611 l 1
 222 611 l 1
167 556 m 1
 167 611 l 1
 278 611 l 1
 278 556 l 1
 167 556 l 1
444 556 m 1
 444 611 l 1
 556 611 l 1
 556 556 l 1
 444 556 l 1
167 500 m 1
 167 556 l 1
 278 556 l 1
 278 500 l 1
 167 500 l 1
444 500 m 1
 444 556 l 1
 556 556 l 1
 556 500 l 1
 444 500 l 1
167 444 m 1
 167 500 l 1
 278 500 l 1
 278 444 l 1
 167 444 l 1
444 444 m 1
 444 500 l 1
 556 500 l 1
 556 444 l 1
 444 444 l 1
167 389 m 1
 167 444 l 1
 278 444 l 1
 278 389 l 1
 167 389 l 1
444 389 m 1
 444 444 l 1
 556 444 l 1
 556 389 l 1
 444 389 l 1
167 333 m 1
 167 389 l 1
 278 389 l 1
 278 333 l 1
 167 333 l 1
333 333 m 1
 333 389 l 1
 500 389 l 1
 500 333 l 1
 333 333 l 1
167 278 m 1
 167 333 l 1
 278 333 l 1
 278 278 l 1
 167 278 l 1
444 278 m 1
 444 333 l 1
 556 333 l 1
 556 278 l 1
 444 278 l 1
167 222 m 1
 167 278 l 1
 278 278 l 1
 278 222 l 1
 167 222 l 1
500 222 m 1
 500 278 l 1
 611 278 l 1
 611 222 l 1
 500 222 l 1
167 167 m 1
 167 222 l 1
 278 222 l 1
 278 167 l 1
 167 167 l 1
500 167 m 1
 500 222 l 1
 611 222 l 1
 611 167 l 1
 500 167 l 1
167 111 m 1
 167 167 l 1
 278 167 l 1
 278 111 l 1
 167 111 l 1
500 111 m 1
 500 167 l 1
 611 167 l 1
 611 111 l 1
 500 111 l 1
167 56 m 1
 167 111 l 1
 278 111 l 1
 278 56 l 1
 167 56 l 1
500 56 m 1
 500 111 l 1
 611 111 l 1
 611 56 l 1
 500 56 l 1
56 0 m 1
 56 56 l 1
 278 56 l 1
 278 0 l 1
 56 0 l 1
333 0 m 1
 333 56 l 1
 556 56 l 1
 556 0 l 1
 333 0 l 1
EndSplineSet
EndChar

StartChar: agrave
Encoding: 224 224 163
Width: 611
Flags: HW
LayerCount: 2
Back
Fore
SplineSet
167 722 m 1
 167 778 l 1
 333 778 l 1
 333 722 l 1
 167 722 l 1
278 667 m 1
 278 722 l 1
 389 722 l 1
 389 667 l 1
 278 667 l 1
389 611 m 1
 389 667 l 1
 444 667 l 1
 444 611 l 1
 389 611 l 1
167 444 m 1
 167 500 l 1
 444 500 l 1
 444 444 l 1
 167 444 l 1
111 389 m 1
 111 444 l 1
 222 444 l 1
 222 389 l 1
 111 389 l 1
389 389 m 1
 389 444 l 1
 500 444 l 1
 500 389 l 1
 389 389 l 1
389 333 m 1
 389 389 l 1
 500 389 l 1
 500 333 l 1
 389 333 l 1
167 278 m 1
 167 333 l 1
 500 333 l 1
 500 278 l 1
 167 278 l 1
111 222 m 1
 111 278 l 1
 222 278 l 1
 222 222 l 1
 111 222 l 1
389 222 m 1
 389 278 l 1
 500 278 l 1
 500 222 l 1
 389 222 l 1
56 167 m 1
 56 222 l 1
 167 222 l 1
 167 167 l 1
 56 167 l 1
389 167 m 1
 389 222 l 1
 500 222 l 1
 500 167 l 1
 389 167 l 1
56 111 m 1
 56 167 l 1
 167 167 l 1
 167 111 l 1
 56 111 l 1
389 111 m 1
 389 167 l 1
 500 167 l 1
 500 111 l 1
 389 111 l 1
56 56 m 1
 56 111 l 1
 222 111 l 1
 222 56 l 1
 56 56 l 1
333 56 m 1
 333 111 l 1
 500 111 l 1
 500 56 l 1
 333 56 l 1
111 0 m 1
 111 56 l 1
 333 56 l 1
 333 0 l 1
 111 0 l 1
389 0 m 1
 389 56 l 1
 556 56 l 1
 556 0 l 1
 389 0 l 1
EndSplineSet
EndChar

StartChar: aacute
Encoding: 225 225 164
Width: 611
Flags: HW
LayerCount: 2
Back
Fore
SplineSet
333 722 m 1
 333 778 l 1
 500 778 l 1
 500 722 l 1
 333 722 l 1
278 667 m 1
 278 722 l 1
 389 722 l 1
 389 667 l 1
 278 667 l 1
222 611 m 1
 222 667 l 1
 278 667 l 1
 278 611 l 1
 222 611 l 1
167 444 m 1
 167 500 l 1
 444 500 l 1
 444 444 l 1
 167 444 l 1
111 389 m 1
 111 444 l 1
 222 444 l 1
 222 389 l 1
 111 389 l 1
389 389 m 1
 389 444 l 1
 500 444 l 1
 500 389 l 1
 389 389 l 1
389 333 m 1
 389 389 l 1
 500 389 l 1
 500 333 l 1
 389 333 l 1
167 278 m 1
 167 333 l 1
 500 333 l 1
 500 278 l 1
 167 278 l 1
111 222 m 1
 111 278 l 1
 222 278 l 1
 222 222 l 1
 111 222 l 1
389 222 m 1
 389 278 l 1
 500 278 l 1
 500 222 l 1
 389 222 l 1
56 167 m 1
 56 222 l 1
 167 222 l 1
 167 167 l 1
 56 167 l 1
389 167 m 1
 389 222 l 1
 500 222 l 1
 500 167 l 1
 389 167 l 1
56 111 m 1
 56 167 l 1
 167 167 l 1
 167 111 l 1
 56 111 l 1
389 111 m 1
 389 167 l 1
 500 167 l 1
 500 111 l 1
 389 111 l 1
56 56 m 1
 56 111 l 1
 222 111 l 1
 222 56 l 1
 56 56 l 1
333 56 m 1
 333 111 l 1
 500 111 l 1
 500 56 l 1
 333 56 l 1
111 0 m 1
 111 56 l 1
 333 56 l 1
 333 0 l 1
 111 0 l 1
389 0 m 1
 389 56 l 1
 556 56 l 1
 556 0 l 1
 389 0 l 1
EndSplineSet
EndChar

StartChar: acircumflex
Encoding: 226 226 165
Width: 611
Flags: HW
LayerCount: 2
Back
Fore
SplineSet
278 722 m 1
 278 778 l 1
 333 778 l 1
 333 722 l 1
 278 722 l 1
222 667 m 1
 222 722 l 1
 389 722 l 1
 389 667 l 1
 222 667 l 1
111 611 m 1
 111 667 l 1
 222 667 l 1
 222 611 l 1
 111 611 l 1
389 611 m 1
 389 667 l 1
 500 667 l 1
 500 611 l 1
 389 611 l 1
167 444 m 1
 167 500 l 1
 444 500 l 1
 444 444 l 1
 167 444 l 1
111 389 m 1
 111 444 l 1
 222 444 l 1
 222 389 l 1
 111 389 l 1
389 389 m 1
 389 444 l 1
 500 444 l 1
 500 389 l 1
 389 389 l 1
389 333 m 1
 389 389 l 1
 500 389 l 1
 500 333 l 1
 389 333 l 1
167 278 m 1
 167 333 l 1
 500 333 l 1
 500 278 l 1
 167 278 l 1
111 222 m 1
 111 278 l 1
 222 278 l 1
 222 222 l 1
 111 222 l 1
389 222 m 1
 389 278 l 1
 500 278 l 1
 500 222 l 1
 389 222 l 1
56 167 m 1
 56 222 l 1
 167 222 l 1
 167 167 l 1
 56 167 l 1
389 167 m 1
 389 222 l 1
 500 222 l 1
 500 167 l 1
 389 167 l 1
56 111 m 1
 56 167 l 1
 167 167 l 1
 167 111 l 1
 56 111 l 1
389 111 m 1
 389 167 l 1
 500 167 l 1
 500 111 l 1
 389 111 l 1
56 56 m 1
 56 111 l 1
 222 111 l 1
 222 56 l 1
 56 56 l 1
333 56 m 1
 333 111 l 1
 500 111 l 1
 500 56 l 1
 333 56 l 1
111 0 m 1
 111 56 l 1
 333 56 l 1
 333 0 l 1
 111 0 l 1
389 0 m 1
 389 56 l 1
 556 56 l 1
 556 0 l 1
 389 0 l 1
EndSplineSet
EndChar

StartChar: atilde
Encoding: 227 227 166
Width: 611
Flags: HW
LayerCount: 2
Back
Fore
SplineSet
167 667 m 1
 167 722 l 1
 389 722 l 1
 389 667 l 1
 167 667 l 1
500 667 m 1
 500 722 l 1
 556 722 l 1
 556 667 l 1
 500 667 l 1
111 611 m 1
 111 667 l 1
 167 667 l 1
 167 611 l 1
 111 611 l 1
278 611 m 1
 278 667 l 1
 500 667 l 1
 500 611 l 1
 278 611 l 1
167 444 m 1
 167 500 l 1
 444 500 l 1
 444 444 l 1
 167 444 l 1
111 389 m 1
 111 444 l 1
 222 444 l 1
 222 389 l 1
 111 389 l 1
389 389 m 1
 389 444 l 1
 500 444 l 1
 500 389 l 1
 389 389 l 1
389 333 m 1
 389 389 l 1
 500 389 l 1
 500 333 l 1
 389 333 l 1
167 278 m 1
 167 333 l 1
 500 333 l 1
 500 278 l 1
 167 278 l 1
111 222 m 1
 111 278 l 1
 222 278 l 1
 222 222 l 1
 111 222 l 1
389 222 m 1
 389 278 l 1
 500 278 l 1
 500 222 l 1
 389 222 l 1
56 167 m 1
 56 222 l 1
 167 222 l 1
 167 167 l 1
 56 167 l 1
389 167 m 1
 389 222 l 1
 500 222 l 1
 500 167 l 1
 389 167 l 1
56 111 m 1
 56 167 l 1
 167 167 l 1
 167 111 l 1
 56 111 l 1
389 111 m 1
 389 167 l 1
 500 167 l 1
 500 111 l 1
 389 111 l 1
56 56 m 1
 56 111 l 1
 222 111 l 1
 222 56 l 1
 56 56 l 1
333 56 m 1
 333 111 l 1
 500 111 l 1
 500 56 l 1
 333 56 l 1
111 0 m 1
 111 56 l 1
 333 56 l 1
 333 0 l 1
 111 0 l 1
389 0 m 1
 389 56 l 1
 556 56 l 1
 556 0 l 1
 389 0 l 1
EndSplineSet
EndChar

StartChar: adieresis
Encoding: 228 228 167
Width: 611
Flags: HW
LayerCount: 2
Back
Fore
SplineSet
111 667 m 1
 111 722 l 1
 222 722 l 1
 222 667 l 1
 111 667 l 1
389 667 m 1
 389 722 l 1
 500 722 l 1
 500 667 l 1
 389 667 l 1
111 611 m 1
 111 667 l 1
 222 667 l 1
 222 611 l 1
 111 611 l 1
389 611 m 1
 389 667 l 1
 500 667 l 1
 500 611 l 1
 389 611 l 1
167 444 m 1
 167 500 l 1
 444 500 l 1
 444 444 l 1
 167 444 l 1
111 389 m 1
 111 444 l 1
 222 444 l 1
 222 389 l 1
 111 389 l 1
389 389 m 1
 389 444 l 1
 500 444 l 1
 500 389 l 1
 389 389 l 1
389 333 m 1
 389 389 l 1
 500 389 l 1
 500 333 l 1
 389 333 l 1
167 278 m 1
 167 333 l 1
 500 333 l 1
 500 278 l 1
 167 278 l 1
111 222 m 1
 111 278 l 1
 222 278 l 1
 222 222 l 1
 111 222 l 1
389 222 m 1
 389 278 l 1
 500 278 l 1
 500 222 l 1
 389 222 l 1
56 167 m 1
 56 222 l 1
 167 222 l 1
 167 167 l 1
 56 167 l 1
389 167 m 1
 389 222 l 1
 500 222 l 1
 500 167 l 1
 389 167 l 1
56 111 m 1
 56 167 l 1
 167 167 l 1
 167 111 l 1
 56 111 l 1
389 111 m 1
 389 167 l 1
 500 167 l 1
 500 111 l 1
 389 111 l 1
56 56 m 1
 56 111 l 1
 222 111 l 1
 222 56 l 1
 56 56 l 1
333 56 m 1
 333 111 l 1
 500 111 l 1
 500 56 l 1
 333 56 l 1
111 0 m 1
 111 56 l 1
 333 56 l 1
 333 0 l 1
 111 0 l 1
389 0 m 1
 389 56 l 1
 556 56 l 1
 556 0 l 1
 389 0 l 1
EndSplineSet
EndChar

StartChar: aring
Encoding: 229 229 168
Width: 611
Flags: HW
LayerCount: 2
Back
Fore
SplineSet
222 722 m 1
 222 778 l 1
 444 778 l 1
 444 722 l 1
 222 722 l 1
167 667 m 1
 167 722 l 1
 278 722 l 1
 278 667 l 1
 167 667 l 1
389 667 m 1
 389 722 l 1
 500 722 l 1
 500 667 l 1
 389 667 l 1
167 611 m 1
 167 667 l 1
 278 667 l 1
 278 611 l 1
 167 611 l 1
389 611 m 1
 389 667 l 1
 500 667 l 1
 500 611 l 1
 389 611 l 1
222 556 m 1
 222 611 l 1
 444 611 l 1
 444 556 l 1
 222 556 l 1
167 444 m 1
 167 500 l 1
 444 500 l 1
 444 444 l 1
 167 444 l 1
111 389 m 1
 111 444 l 1
 222 444 l 1
 222 389 l 1
 111 389 l 1
389 389 m 1
 389 444 l 1
 500 444 l 1
 500 389 l 1
 389 389 l 1
389 333 m 1
 389 389 l 1
 500 389 l 1
 500 333 l 1
 389 333 l 1
167 278 m 1
 167 333 l 1
 500 333 l 1
 500 278 l 1
 167 278 l 1
111 222 m 1
 111 278 l 1
 222 278 l 1
 222 222 l 1
 111 222 l 1
389 222 m 1
 389 278 l 1
 500 278 l 1
 500 222 l 1
 389 222 l 1
56 167 m 1
 56 222 l 1
 167 222 l 1
 167 167 l 1
 56 167 l 1
389 167 m 1
 389 222 l 1
 500 222 l 1
 500 167 l 1
 389 167 l 1
56 111 m 1
 56 167 l 1
 167 167 l 1
 167 111 l 1
 56 111 l 1
389 111 m 1
 389 167 l 1
 500 167 l 1
 500 111 l 1
 389 111 l 1
56 56 m 1
 56 111 l 1
 222 111 l 1
 222 56 l 1
 56 56 l 1
333 56 m 1
 333 111 l 1
 500 111 l 1
 500 56 l 1
 333 56 l 1
111 0 m 1
 111 56 l 1
 333 56 l 1
 333 0 l 1
 111 0 l 1
389 0 m 1
 389 56 l 1
 556 56 l 1
 556 0 l 1
 389 0 l 1
EndSplineSet
EndChar

StartChar: ae
Encoding: 230 230 169
Width: 611
Flags: HW
LayerCount: 2
Back
Fore
SplineSet
111 444 m 1
 111 500 l 1
 333 500 l 1
 333 444 l 1
 111 444 l 1
389 444 m 1
 389 500 l 1
 556 500 l 1
 556 444 l 1
 389 444 l 1
56 389 m 1
 56 444 l 1
 167 444 l 1
 167 389 l 1
 56 389 l 1
278 389 m 1
 278 444 l 1
 444 444 l 1
 444 389 l 1
 278 389 l 1
500 389 m 1
 500 444 l 1
 611 444 l 1
 611 389 l 1
 500 389 l 1
278 333 m 1
 278 389 l 1
 389 389 l 1
 389 333 l 1
 278 333 l 1
500 333 m 1
 500 389 l 1
 611 389 l 1
 611 333 l 1
 500 333 l 1
278 278 m 1
 278 333 l 1
 389 333 l 1
 389 278 l 1
 278 278 l 1
500 278 m 1
 500 333 l 1
 611 333 l 1
 611 278 l 1
 500 278 l 1
111 222 m 1
 111 278 l 1
 611 278 l 1
 611 222 l 1
 111 222 l 1
56 167 m 1
 56 222 l 1
 167 222 l 1
 167 167 l 1
 56 167 l 1
278 167 m 1
 278 222 l 1
 389 222 l 1
 389 167 l 1
 278 167 l 1
56 111 m 1
 56 167 l 1
 167 167 l 1
 167 111 l 1
 56 111 l 1
278 111 m 1
 278 167 l 1
 389 167 l 1
 389 111 l 1
 278 111 l 1
56 56 m 1
 56 111 l 1
 167 111 l 1
 167 56 l 1
 56 56 l 1
278 56 m 1
 278 111 l 1
 444 111 l 1
 444 56 l 1
 278 56 l 1
500 56 m 1
 500 111 l 1
 611 111 l 1
 611 56 l 1
 500 56 l 1
111 0 m 1
 111 56 l 1
 278 56 l 1
 278 0 l 1
 111 0 l 1
333 0 m 1
 333 56 l 1
 556 56 l 1
 556 0 l 1
 333 0 l 1
EndSplineSet
EndChar

StartChar: ccedilla
Encoding: 231 231 170
Width: 611
Flags: HW
LayerCount: 2
Back
Fore
SplineSet
222 444 m 1
 222 500 l 1
 444 500 l 1
 444 444 l 1
 222 444 l 1
500 444 m 1
 500 500 l 1
 556 500 l 1
 556 444 l 1
 500 444 l 1
167 389 m 1
 167 444 l 1
 278 444 l 1
 278 389 l 1
 167 389 l 1
389 389 m 1
 389 444 l 1
 556 444 l 1
 556 389 l 1
 389 389 l 1
111 333 m 1
 111 389 l 1
 222 389 l 1
 222 333 l 1
 111 333 l 1
444 333 m 1
 444 389 l 1
 556 389 l 1
 556 333 l 1
 444 333 l 1
111 278 m 1
 111 333 l 1
 222 333 l 1
 222 278 l 1
 111 278 l 1
500 278 m 1
 500 333 l 1
 556 333 l 1
 556 278 l 1
 500 278 l 1
111 222 m 1
 111 278 l 1
 222 278 l 1
 222 222 l 1
 111 222 l 1
111 167 m 1
 111 222 l 1
 222 222 l 1
 222 167 l 1
 111 167 l 1
111 111 m 1
 111 167 l 1
 222 167 l 1
 222 111 l 1
 111 111 l 1
500 111 m 1
 500 167 l 1
 556 167 l 1
 556 111 l 1
 500 111 l 1
167 56 m 1
 167 111 l 1
 278 111 l 1
 278 56 l 1
 167 56 l 1
444 56 m 1
 444 111 l 1
 556 111 l 1
 556 56 l 1
 444 56 l 1
222 0 m 1
 222 56 l 1
 500 56 l 1
 500 0 l 1
 222 0 l 1
278 -56 m 1
 278 0 l 1
 333 0 l 1
 333 -56 l 1
 278 -56 l 1
278 -111 m 1
 278 -56 l 1
 444 -56 l 1
 444 -111 l 1
 278 -111 l 1
389 -167 m 1
 389 -111 l 1
 500 -111 l 1
 500 -167 l 1
 389 -167 l 1
167 -222 m 1
 167 -167 l 1
 222 -167 l 1
 222 -222 l 1
 167 -222 l 1
389 -222 m 1
 389 -167 l 1
 500 -167 l 1
 500 -222 l 1
 389 -222 l 1
222 -278 m 1
 222 -222 l 1
 444 -222 l 1
 444 -278 l 1
 222 -278 l 1
EndSplineSet
EndChar

StartChar: egrave
Encoding: 232 232 171
Width: 611
Flags: HW
LayerCount: 2
Back
Fore
SplineSet
167 722 m 1
 167 778 l 1
 333 778 l 1
 333 722 l 1
 167 722 l 1
278 667 m 1
 278 722 l 1
 389 722 l 1
 389 667 l 1
 278 667 l 1
389 611 m 1
 389 667 l 1
 444 667 l 1
 444 611 l 1
 389 611 l 1
167 444 m 1
 167 500 l 1
 444 500 l 1
 444 444 l 1
 167 444 l 1
111 389 m 1
 111 444 l 1
 222 444 l 1
 222 389 l 1
 111 389 l 1
389 389 m 1
 389 444 l 1
 500 444 l 1
 500 389 l 1
 389 389 l 1
56 333 m 1
 56 389 l 1
 167 389 l 1
 167 333 l 1
 56 333 l 1
444 333 m 1
 444 389 l 1
 556 389 l 1
 556 333 l 1
 444 333 l 1
56 278 m 1
 56 333 l 1
 167 333 l 1
 167 278 l 1
 56 278 l 1
444 278 m 1
 444 333 l 1
 556 333 l 1
 556 278 l 1
 444 278 l 1
56 222 m 1
 56 278 l 1
 556 278 l 1
 556 222 l 1
 56 222 l 1
56 167 m 1
 56 222 l 1
 167 222 l 1
 167 167 l 1
 56 167 l 1
56 111 m 1
 56 167 l 1
 167 167 l 1
 167 111 l 1
 56 111 l 1
111 56 m 1
 111 111 l 1
 222 111 l 1
 222 56 l 1
 111 56 l 1
444 56 m 1
 444 111 l 1
 556 111 l 1
 556 56 l 1
 444 56 l 1
167 0 m 1
 167 56 l 1
 444 56 l 1
 444 0 l 1
 167 0 l 1
EndSplineSet
EndChar

StartChar: eacute
Encoding: 233 233 172
Width: 611
Flags: HW
LayerCount: 2
Back
Fore
SplineSet
333 722 m 1
 333 778 l 1
 500 778 l 1
 500 722 l 1
 333 722 l 1
278 667 m 1
 278 722 l 1
 389 722 l 1
 389 667 l 1
 278 667 l 1
222 611 m 1
 222 667 l 1
 278 667 l 1
 278 611 l 1
 222 611 l 1
167 444 m 1
 167 500 l 1
 444 500 l 1
 444 444 l 1
 167 444 l 1
111 389 m 1
 111 444 l 1
 222 444 l 1
 222 389 l 1
 111 389 l 1
389 389 m 1
 389 444 l 1
 500 444 l 1
 500 389 l 1
 389 389 l 1
56 333 m 1
 56 389 l 1
 167 389 l 1
 167 333 l 1
 56 333 l 1
444 333 m 1
 444 389 l 1
 556 389 l 1
 556 333 l 1
 444 333 l 1
56 278 m 1
 56 333 l 1
 167 333 l 1
 167 278 l 1
 56 278 l 1
444 278 m 1
 444 333 l 1
 556 333 l 1
 556 278 l 1
 444 278 l 1
56 222 m 1
 56 278 l 1
 556 278 l 1
 556 222 l 1
 56 222 l 1
56 167 m 1
 56 222 l 1
 167 222 l 1
 167 167 l 1
 56 167 l 1
56 111 m 1
 56 167 l 1
 167 167 l 1
 167 111 l 1
 56 111 l 1
111 56 m 1
 111 111 l 1
 222 111 l 1
 222 56 l 1
 111 56 l 1
444 56 m 1
 444 111 l 1
 556 111 l 1
 556 56 l 1
 444 56 l 1
167 0 m 1
 167 56 l 1
 444 56 l 1
 444 0 l 1
 167 0 l 1
EndSplineSet
EndChar

StartChar: ecircumflex
Encoding: 234 234 173
Width: 611
Flags: HW
LayerCount: 2
Back
Fore
SplineSet
278 722 m 1
 278 778 l 1
 333 778 l 1
 333 722 l 1
 278 722 l 1
222 667 m 1
 222 722 l 1
 389 722 l 1
 389 667 l 1
 222 667 l 1
111 611 m 1
 111 667 l 1
 222 667 l 1
 222 611 l 1
 111 611 l 1
389 611 m 1
 389 667 l 1
 500 667 l 1
 500 611 l 1
 389 611 l 1
167 444 m 1
 167 500 l 1
 444 500 l 1
 444 444 l 1
 167 444 l 1
111 389 m 1
 111 444 l 1
 222 444 l 1
 222 389 l 1
 111 389 l 1
389 389 m 1
 389 444 l 1
 500 444 l 1
 500 389 l 1
 389 389 l 1
56 333 m 1
 56 389 l 1
 167 389 l 1
 167 333 l 1
 56 333 l 1
444 333 m 1
 444 389 l 1
 556 389 l 1
 556 333 l 1
 444 333 l 1
56 278 m 1
 56 333 l 1
 167 333 l 1
 167 278 l 1
 56 278 l 1
444 278 m 1
 444 333 l 1
 556 333 l 1
 556 278 l 1
 444 278 l 1
56 222 m 1
 56 278 l 1
 556 278 l 1
 556 222 l 1
 56 222 l 1
56 167 m 1
 56 222 l 1
 167 222 l 1
 167 167 l 1
 56 167 l 1
56 111 m 1
 56 167 l 1
 167 167 l 1
 167 111 l 1
 56 111 l 1
111 56 m 1
 111 111 l 1
 222 111 l 1
 222 56 l 1
 111 56 l 1
444 56 m 1
 444 111 l 1
 556 111 l 1
 556 56 l 1
 444 56 l 1
167 0 m 1
 167 56 l 1
 444 56 l 1
 444 0 l 1
 167 0 l 1
EndSplineSet
EndChar

StartChar: edieresis
Encoding: 235 235 174
Width: 611
Flags: HW
LayerCount: 2
Back
Fore
SplineSet
111 667 m 1
 111 722 l 1
 222 722 l 1
 222 667 l 1
 111 667 l 1
389 667 m 1
 389 722 l 1
 500 722 l 1
 500 667 l 1
 389 667 l 1
111 611 m 1
 111 667 l 1
 222 667 l 1
 222 611 l 1
 111 611 l 1
389 611 m 1
 389 667 l 1
 500 667 l 1
 500 611 l 1
 389 611 l 1
167 444 m 1
 167 500 l 1
 444 500 l 1
 444 444 l 1
 167 444 l 1
111 389 m 1
 111 444 l 1
 222 444 l 1
 222 389 l 1
 111 389 l 1
389 389 m 1
 389 444 l 1
 500 444 l 1
 500 389 l 1
 389 389 l 1
56 333 m 1
 56 389 l 1
 167 389 l 1
 167 333 l 1
 56 333 l 1
444 333 m 1
 444 389 l 1
 556 389 l 1
 556 333 l 1
 444 333 l 1
56 278 m 1
 56 333 l 1
 167 333 l 1
 167 278 l 1
 56 278 l 1
444 278 m 1
 444 333 l 1
 556 333 l 1
 556 278 l 1
 444 278 l 1
56 222 m 1
 56 278 l 1
 556 278 l 1
 556 222 l 1
 56 222 l 1
56 167 m 1
 56 222 l 1
 167 222 l 1
 167 167 l 1
 56 167 l 1
56 111 m 1
 56 167 l 1
 167 167 l 1
 167 111 l 1
 56 111 l 1
111 56 m 1
 111 111 l 1
 222 111 l 1
 222 56 l 1
 111 56 l 1
444 56 m 1
 444 111 l 1
 556 111 l 1
 556 56 l 1
 444 56 l 1
167 0 m 1
 167 56 l 1
 444 56 l 1
 444 0 l 1
 167 0 l 1
EndSplineSet
EndChar

StartChar: igrave
Encoding: 236 236 175
Width: 611
Flags: HW
LayerCount: 2
Back
Fore
SplineSet
167 722 m 1
 167 778 l 1
 333 778 l 1
 333 722 l 1
 167 722 l 1
278 667 m 1
 278 722 l 1
 389 722 l 1
 389 667 l 1
 278 667 l 1
389 611 m 1
 389 667 l 1
 444 667 l 1
 444 611 l 1
 389 611 l 1
167 444 m 1
 167 500 l 1
 389 500 l 1
 389 444 l 1
 167 444 l 1
278 389 m 1
 278 444 l 1
 389 444 l 1
 389 389 l 1
 278 389 l 1
278 333 m 1
 278 389 l 1
 389 389 l 1
 389 333 l 1
 278 333 l 1
278 278 m 1
 278 333 l 1
 389 333 l 1
 389 278 l 1
 278 278 l 1
278 222 m 1
 278 278 l 1
 389 278 l 1
 389 222 l 1
 278 222 l 1
278 167 m 1
 278 222 l 1
 389 222 l 1
 389 167 l 1
 278 167 l 1
278 111 m 1
 278 167 l 1
 389 167 l 1
 389 111 l 1
 278 111 l 1
278 56 m 1
 278 111 l 1
 389 111 l 1
 389 56 l 1
 278 56 l 1
111 0 m 1
 111 56 l 1
 556 56 l 1
 556 0 l 1
 111 0 l 1
EndSplineSet
EndChar

StartChar: iacute
Encoding: 237 237 176
Width: 611
Flags: HW
LayerCount: 2
Back
Fore
SplineSet
333 722 m 1
 333 778 l 1
 500 778 l 1
 500 722 l 1
 333 722 l 1
278 667 m 1
 278 722 l 1
 389 722 l 1
 389 667 l 1
 278 667 l 1
222 611 m 1
 222 667 l 1
 278 667 l 1
 278 611 l 1
 222 611 l 1
167 444 m 1
 167 500 l 1
 389 500 l 1
 389 444 l 1
 167 444 l 1
278 389 m 1
 278 444 l 1
 389 444 l 1
 389 389 l 1
 278 389 l 1
278 333 m 1
 278 389 l 1
 389 389 l 1
 389 333 l 1
 278 333 l 1
278 278 m 1
 278 333 l 1
 389 333 l 1
 389 278 l 1
 278 278 l 1
278 222 m 1
 278 278 l 1
 389 278 l 1
 389 222 l 1
 278 222 l 1
278 167 m 1
 278 222 l 1
 389 222 l 1
 389 167 l 1
 278 167 l 1
278 111 m 1
 278 167 l 1
 389 167 l 1
 389 111 l 1
 278 111 l 1
278 56 m 1
 278 111 l 1
 389 111 l 1
 389 56 l 1
 278 56 l 1
111 0 m 1
 111 56 l 1
 556 56 l 1
 556 0 l 1
 111 0 l 1
EndSplineSet
EndChar

